<?xml version="1.0" standalone="no"?>
<!DOCTYPE svg PUBLIC "-//W3C//DTD SVG 1.1//EN" "http://www.w3.org/Graphics/SVG/1.1/DTD/svg11.dtd" >
<svg xmlns="http://www.w3.org/2000/svg" xmlns:xlink="http://www.w3.org/1999/xlink" version="1.1">
<metadata></metadata>
<defs>
<font id="swistblnk_neamentsregular" horiz-adv-x="630" >
<font-face units-per-em="2048" ascent="1536" descent="-512" />
<missing-glyph horiz-adv-x="712" />
<glyph horiz-adv-x="0" />
<glyph horiz-adv-x="682" />
<glyph horiz-adv-x="0" />
<glyph horiz-adv-x="0" />
<glyph unicode="&#xd;" horiz-adv-x="712" />
<glyph unicode=" "  horiz-adv-x="712" />
<glyph unicode="&#x09;" horiz-adv-x="712" />
<glyph unicode="&#xa0;" horiz-adv-x="712" />
<glyph unicode="!" horiz-adv-x="327" d="M2 -45q0 7 4 8v6q13 5 17 8l20 29q3 3 5.5 9t5.5 15.5t5 14.5q0 8 1 19.5t1 13.5v51q0 4 2.5 32.5t2.5 31.5t1 12.5t1 17.5v23v33.5t0.5 55t2 59t3.5 20.5v6q-3 3 -3 6t1.5 7t1.5 7v13q0 7 2 45t2 39q0 139 -4 376v9v12q3 8 0 16q0 11 2 15t2 20q0 24 4 35q6 29 10 39 l12 102v17v12v31q0 3 2.5 6t2.5 6t1 7t1 7q0 5 -1 10t-1 9l4 6h12h12l16 -2q16 -1 21 0q2 2 10 2l17 4q7 0 19.5 4t19.5 4q3 0 7 2t7 2q2 0 18.5 -4t24.5 -4l6 -14v-4q0 -4 -1 -9t-2.5 -11t-2.5 -9q-2 -8 -2 -27q0 -5 -7.5 -26.5t-8.5 -28.5q-3 -3 -4.5 -10t-4.5 -11 q-1 -3 -2 -11t-2 -19.5t-2 -16.5q-2 0 -2 -2v-6q0 -17 -6 -41q0 -8 -2 -8q-2 -4 -2 -10q0 -3 1 -6t1 -6v-31q0 -59 -8 -78v-14v-19v-6h2q-2 0 -2 -6l6 -137v-8q2 -15 0.5 -19.5t-5 -51t-3.5 -108.5q-4 -12 -4 -26q0 -1 1.5 -1.5t1.5 -2t-3 -4.5v-5q6 0 6 -190v-23v-30 q-3 -9 0 -15l-2 -8q-1 -8 -5 -41t-8 -86q0 -1 -1 -2t-1 -2l-2 -2q-3 -5 -6 -17t-6 -18q0 -6 -14 -37q-3 -3 -6.5 -8t-8 -9t-10.5 -7q-14 -14 -16 -15q-7 0 -15 -4h-4q-5 -2 -17 -8t-19 -9t-17.5 -5.5t-19.5 -1.5h-7l-36 -6h-5h-6l-8 4q-4 1 -4 8zM2 -268q1 6 3.5 11t3.5 8.5 t5 8t5 5.5l7 7l7 7q15 18 18 20q4 4 26 12.5t27 8.5h29q26 -18 37 -41q3 -3 11.5 -9.5t11.5 -11.5v-26q0 -7 -11 -33q-8 -5 -30.5 -24t-38.5 -25q-27 -12 -56 -2q-1 0 -24 14q-11 2 -23 14q-3 4 0 14.5t0 14.5q-8 13 -8 27z" />
<glyph unicode="&#x22;" horiz-adv-x="462" d="M164.5 1064q-0.5 2 0.5 4.5t3 4.5l39 2q12 0 14 -2t6 -14q0 -15 -2 -17l-4 -18q0 -3 -5.5 -14l-6.5 -13q-2 -11 -14 -32l-11 -13q-6 -6 -10 -6q-6 3 -6 8v15q0 4 -1 8t-1 8t1 15.5t1 15.5v16q0 3 -1 11.5t-1 11.5q0 2 -0.5 4.5t-1 4.5zM260 965q0 4 1 8.5t1 7.5v31v16 q0 3 -1 13.5t-1 13.5q0 8 6 14q3 1 14 1t19 3q1 0 1 -1q1 -3 5 -3q1 0 6 2.5t6 -2.5q4 0 7 -14q0 -13 -2 -17q-9 -15 -9 -30l-14 -33q0 -5 -6 -14l-8 -11q-6 -6 -11 -6q-4 0 -6 2t-2 4q0 4 -3 7.5t-3 7.5z" />
<glyph unicode="#" horiz-adv-x="808" d="M131 461v2v35l2 14l8 4h9l16 -2l20 2l56 8l8 8l18 52l39 123l-28 6l-82 6h-23l-6 10v6l8 29l117 -6h26l17 18l12 45l39 125l10 55l13 46l16 6l29 -2l6 -9l2 -6l-2 -30l-15 -50l-16 -49l-14 -51l-10 -45l-25 -49h14l94 -6h15l10 24l37 101l14 51l19 63l2 2l10 15l14 -2h8 l29 -11l6 -10l2 -10l-2 -4l-47 -109l-20 -49l-23 -69l43 -7l27 -4l24 -2h27l4 -2l10 -14v-23l-2 -8l-8 -6h-26l-52 10l-57 8l-12 -6l-23 -61l-20 -74v-18l28 -2l31 -4h55l27 -3l4 -4l4 -8l-2 -31l-4 -4l-8 -2h-27l-55 2l-62 -2l-8 -8l-12 -24l-29 -105l-26 -100l-13 -19 l-6 -6l-35 8v7l23 79l14 52l25 90l6 26l-33 2l-53 4l-37 -10l-6 -4l-10 -24l-4 -13l-45 -149l-15 -53l-6 -5l-22 -2l-15 4l-6 15v10l6 10l15 49l26 105l15 49l-29 2l-12 -4h-13zM311 539h31l68 -4l30 6l9 14l2 18l20 66l18 61l-12 5l-63 2l-37 2l-10 -2l-11 -21l-37 -108z " />
<glyph unicode="$" horiz-adv-x="862" d="M29 311q13 113 83 192.5t181 86.5q10 1 19.5 0t15.5 -2l6 -2h6q6 0 32 -6.5t36 -10.5q9 0 30 -16q0 10 4 14v2l9 160l-15 14l-8 15l-6 4l-8 6l-4 7q-5 7 -9 11q-7 7 -10 13q-3 1 -10 8v4l-4 4l-6 12q0 2 -2 2l-9 11h-2q-3 0 -4 1.5t-1 5t-1 5.5q-1 0 -6.5 10.5t-18.5 32 t-26 41.5q0 2 -2 4l-4 4v6q-9 9 -21 94q0 9 4 37t16.5 66.5t29.5 50.5h-7l7 2v4h2l2 6l18 21h2q-1 1 4.5 7t23.5 17t44 21q2 6 39 6l12 4h8l2 17l8 141l3 24h10h18l8 -6l2 -6l-2 -37v-35l-2 -38v-58v-2l17 -4h14h25v8v21l4 2v37v34v37v35l4 8l6 4h6l23 -12l2 -12v-144 l-2 -24q81 -37 120 -150q-3 -3 -3 -5t1.5 -3t1.5 -2v-8l-6 -49l-2 -6v-2q0 -1 -1 -4t-1 -7l-2 -2q-2 -2 -8.5 -11t-13.5 -16t-11 -7l-30 -21q-1 1 -7 -2t-11.5 -4t-10.5 6q-3 6 -2 10t3 9l3 4q6 6 12 8h2l5 4l8 8q6 1 16 14.5t10 16.5v8q0 3 1 6t1 4v6q0 13 -2 27l-4 12 l-6 23q-21 43 -32 58t-33 22v-6q-2 -6 -2 -23v-16v-37l-7 -97l-2 -16v-4l-8 -225v-2l43 -56l31 -43q40 -40 80 -118l22 -48q19 -33 25 -59q-3 -7 0 -10l18 -62q5 -30 5.5 -103t-3.5 -99q0 -3 -1 -9.5t-1 -9.5q-2 -4 -2 -12q0 -1 -2 -15.5t-3 -22.5t-6 -26t-10.5 -30.5 t-16.5 -31.5t-24 -33t-33 -31t-44 -30t-56.5 -25t-70.5 -21l-4 -86v-35v-37l-4 -35l-4 -6l-23 -4v-4l-10 4l-6 8l2 17l-2 4l2 20v39l2 16l6 91q-39 -13 -47 -13q-8 -2 -10 -2l-2 -76h-4l4 -18l-6 -41v-18l-3 -5v-16l-20 -6l-6 -4l-6 4l-4 6l-4 6l2 33l4 39l2 35l2 63 q-21 4 -76 4q-33 2 -145 66q-91 47 -134 142t-32 218zM79 245q0 -10 3 -14l4 -16q2 -6 2 -14h2q-1 -4 1.5 -22t2.5 -19q0 -3 4 -15v-4q5 0 2 -6q1 0 6.5 -14t13 -28.5t13.5 -16.5v-4q4 0 4 -2l4 -9q0 2 4 -4q22 -30 31 -34l17 -15l2 -2q1 -3 18 -8t20 -8q19 -14 27 -17 q3 -3 13 -5t14 -5h10q4 -1 68 -8q9 3 22 2t27 2q-2 2 -2 12l-1 4q-1 4 -1 9q-2 17 2 45q0 5 1 9l1 3q0 7 1 18t1 15q0 39 18 364v6l4 54q-3 1 -6 3.5t-4 2.5q-1 6 -14 10q-7 5 -36 13t-38 8l-23 -3q-3 3 -23 0t-28 0q-9 0 -39 -10q-59 -11 -102 -80.5t-43 -115.5 q1 -5 0 -14.5t0 -14.5v-16q0 -3 -1.5 -14.5t-1.5 -21.5zM418 1022q0 -2 2 -4v-6q0 -2 2 -4q1 -3 4.5 -14t6.5 -20.5t3 -12.5v-3l8 -11q8 -11 11 -11q0 -1 -2 1q-3 2 -2 0l8 -13l8 104v2v19l6 108l4 39v12q-4 -5 -10.5 -13t-7.5 -9.5t0 -3.5q-3 -3 -4 -7.5t-4 -7.5v-6 q-1 -5 -9 -12q1 -3 -2 -15t-9 -31.5t-9 -35.5q-4 -12 -4 -37v-8zM463 0v-16v-19q3 0 1.5 2.5t2.5 3.5q3 0 10 4t19.5 11.5t23.5 13.5v2v47v21q0 50 4 65q0 5 0.5 12.5t2.5 32.5t4.5 63t8 119.5t11.5 186.5v2q0 10 2 16v15v8v16q-1 3 -3 5t-3 5q-4 4 -4 11h-4l-19 28l-16 29 q-9 9 -12 10q-1 2 -3 4q0 -19 -2 -55t-2 -57v4v-8q0 -11 -2 -15v-16v-2q-11 -161 -16 -367v4v-8v-43v-69v-19q-4 -9 -4 -47zM502 897q3 -3 3 -8t3 -8q16 -22 35 -33q1 -5 9.5 -8.5t10.5 -5.5v-3v-2q0 12 2 31.5t2 26.5v37q0 22 8 110l7 80v4v45v62q-29 7 -64 -6l-2 -52 l-6 -59v-2q0 -3 -0.5 -8t-1 -12.5t-0.5 -21.5v-32l-2 -37l-2 -12h2v-6q0 -2 -4 -64v-16zM569 39q0 -1 1 -4t1 -6v-6l7 6h2q2 0 3 1.5t0.5 3.5t-1.5 4v3q12 0 55 61q4 4 14 66l11 33v192q0 3 -3 6l-6 13q-2 32 -18.5 78t-40.5 77v-2q6 -10 0 -16v-10v-2l-4 -95v-8 q-4 -4 -7 -87q-2 -35 -3 -59.5t-3.5 -76.5t-5.5 -107q3 -4 3 -9.5t-1.5 -12.5t-1.5 -10q0 -8 -1 -18t-1 -15z" />
<glyph unicode="%" horiz-adv-x="1087" d="M70 831l8 39l12 37v2q1 1 2 4.5t3.5 11.5t4.5 15q0 2 4 10l15 29v2q0 2 2 4l-2 2l12 17l4 6q0 2 2 4l43 76l10 10l43 30v3q2 2 13 2q2 0 4 2l4 4l20 6q2 2 15 2h2h4h4h2q2 -2 6 -2h6h4h7q10 0 73 -23h2v-2q3 -7 2 -8q-2 0 -4 -2v-2v-2l-8 -4q-3 -8 -8 -8q-13 -3 -21 -11 l-3 -2q-3 -2 -7 -2q-3 0 -6.5 -3.5t-11 -10.5t-17.5 -14q-9 -9 -26 -39q-8 -11 -13 -25q-25 -50 -45 -96v-2l-8 -37q0 -1 -1 -2t-1 -2v-4q0 -4 -18 -80v-8v-19v-2q-3 -9 6 -43q-5 -5 13 -13q35 -15 52 -5l2 2q15 0 21 2q2 2 8 2q14 5 23 12q1 0 1.5 1t2 2.5t4.5 2.5v2l47 62 l12 20q29 66 23 88l-2 2h-4h-4h-2q-10 0 -25 15q-1 2 -9.5 10.5t-17.5 21.5t-12 27q0 4 1 11t1 10q0 4 4 16l17 49l4 6l24 29h2q4 4 13 4h2h2h2h4q2 0 4 -1.5l6 -4.5t10 -6l6 -8q0 -1 3.5 -8t3.5 -11q0 -9 4 -24q2 -2 4 -54q-2 -2 -2 -12q0 -31 -4 -35q0 -6 -2 -12h2h2h2 q10 0 151 51q13 6 19 8l41 66q0 4 6 10q5 3 8 8h2l55 58l43 30q2 1 8.5 4.5t10.5 4.5q3 3 7 4.5t15 4.5t21 7q4 0 7 1l3 1q20 4 25 4h12h2h8h39h2q40 -13 45 -16q2 0 4 -2q2 0 2 -2l21 -23v-2h2q14 -37 14 -47q0 -1 -1 -3t-1 -3l-2 -4v-2q0 -1 -6 -13.5t-12 -17.5 q-6 -9 -15 -12l-8 -4q-5 -2 -12 -9h-2l-43 -10q-6 -3 -23.5 -7t-48.5 -11.5t-51 -12.5h-4h-2l-8 -4q-1 0 -2.5 -1t-2.5 -1l-22 -41q-12 -21 -23 -32q-3 -4 -5 -12.5t-5 -12.5q-1 -7 -6 -16t-16.5 -29.5t-22.5 -48.5v-8l-6 -13q0 -4 -2.5 -11t-9.5 -25.5t-13 -36.5 q-3 -3 -5 -6.5t-4.5 -12.5t-5.5 -20t-10 -37t-16 -55l-30 -91q0 5 -28 -59.5t-46 -108.5l-14 -28l-117 -266l2 -2h-2l-4 -9v-2l-37 -98l-8 -23h-2q-2 0 -2 -6q0 -2 -1 -4t-4 -7t-7 -12.5t-12.5 -23.5t-18.5 -37l-4 -4q0 -2 -3 -2l-30 -33q-4 -4 -6 -4q-12 -12 -25 -12l-5 -1 q-5 -1 -9 -1q-1 0 -9.5 1t-23.5 1h-2h-4h-8q-2 0 -7.5 1.5t-16 4.5t-21.5 6q-7 0 -9 2l-6 2l-10 9v2q0 6 4 10l2 2l4 4l12 2l33 25l2 2l2 2q0 4 4 4q1 3 4.5 6t4.5 6q2 2 4 8l14 33q0 2 1 5t4.5 10.5t6.5 17.5l7 12l4 6l6 23q0 7 45 110q3 3 4 9.5t4 9.5q2 2 2 8l23 39 q6 6 81 197q3 14 11 22l47 113q4 18 18 48.5t17 53.5q0 4 2.5 12.5t13.5 43.5t25 83q3 3 4 5.5t1 6t1 5.5q22 51 26 59l43 117q3 4 33 55q3 3 4 6.5t4 6.5h-10q-7 -3 -20.5 -6.5t-20.5 -6.5q-95 -32 -110 -37q-7 0 -7 -6q-9 -43 -12 -49q0 -6 -4 -19t-8 -14l-4 -12l-4 -8 l-4 -8l-7 -13l-8 -16l-6 -8q-1 -1 -2 -3.5t-3.5 -5.5t-6.5 -6l-2 -6l-13 -12q1 -4 -12 -12q-12 -7 -20 -13q0 -2 -4 -2q0 -4 -7 -4q-2 -1 -5 -2l-4.5 -1.5t-2.5 -0.5q-5 -3 -16.5 -4.5t-24.5 -5.5h-4q-2 0 -4 -2q-4 0 -8 -1l-4 -1v-2h-2q-13 -4 -27 4h-4l-8 4h-6l-68 33 l-2 2l-2 2q-9 9 -25 35q0 2 -2 2q-8 14 -13.5 30t-7 24t-4 33t-3.5 31zM373 942q15 -20 24 -29l2 -2l15 -10q4 0 6 -1q1 -1 2 -1l2 6q1 3 4 37v57q0 23 -2 29v4l-2 2l-4 4l-2 2q0 6 -15 0l-1 -2q-2 -1 -5.5 -5t-7.5 -9.5t-8 -14.5t-6 -20q-2 -6 -2 -37v-10zM483 -121 q0 4 0.5 7.5t2 9t4.5 23.5t6 44q4 0 4 4v6q1 0 7 17q3 10 6 17t9 24t13 35q1 0 32 67l13 17q4 0 4 6q0 2 10 12.5t20.5 20t10.5 8.5h2l2 2q-1 1 4 3q3 2 13 6t16 7l24 8q4 0 16 3.5t19 -1.5q6 0 8 -2l27 -2q8 0 8 -2q6 0 22 -4q9 0 9 -6h2q0 -2 2 -4h2h2l10 -6v-6 q0 9 -61 -43q-10 -10 -14.5 -15.5t-7.5 -10.5t-14 -22t-26 -39l-6 -16l-59 -166v-2l-4 -14v-4q0 -6 -3 -6q0 -2 -0.5 -5t-1.5 -12t-2 -24q-3 -10 13 -54l2 -2h2l4 -4q5 -5 8 -6l45 6l19 4h4q13 0 21 9.5t18 13.5q2 2 8 10t11.5 14t8.5 7q0 2 2 2l2 2l6 8q3 3 6.5 10.5 t6.5 11.5l22 58q-1 2 0 6t3 13t3 20q0 1 1 3t1 3q-3 0 -6 1t-4 1h-4q-4 0 -4 2q-2 -2 -16 10q-10 7 -15 14q-1 3 -3 4.5t-3 4.5q-3 1 -3.5 3t-3.5 11.5t-9 22.5q0 2 -1 9.5t-1 16.5q0 10 8 35q9 29 43 63q3 3 8 3h4h4h2h4q6 0 9 -3l10 -8l2 -2q0 -1 1 -3t1 -3q5 -5 10 -20 l6 -39v-2q3 -7 2.5 -10t-2.5 -17.5t-2 -30.5v-6q0 -2 -1.5 -11t-1.5 -15t3 -7q4 0 31 9q8 0 23 12q4 0 20 8h2q9 -3 10 -4l5 -2.5t6 -1.5v-6h2v2l-2 -2h-2q-3 -1 -5.5 -3t-5.5 -3v-2q-4 -4 -12 -7q-4 -4 -35 -18h-2q-1 0 -24 -10q-9 -3 -15 0q-2 0 -8 -6l-6 -37 q-2 -4 -7.5 -19.5t-12.5 -32.5t-15 -32q-1 -3 -4 -7.5t-4 -7.5l-20 -25q-21 -26 -31 -38l-2 -2l-21 -8q-2 -2 -4 -2l-27 -9h-2q-4 0 -8 -4q-19 0 -49 -10q-22 4 -31 8q-26 9 -73 33l-17 21l-10 22l-6 14q-10 10 -23 76zM784 31l2 -11q1 -3 2 -5t4 -5.5t6.5 -6.5t11 -10.5 l15.5 -15.5q14 0 15 5q0 3 2 38v3q2 8 0 32q-1 7 -1 21t-1 28q-2 2 -2 5q0 5 -11 14q-6 0 -8 -2q-8 -3 -12 -10q-6 -6 -6 -11l-6 -8l-9 -26v-9zM807 991q3 0 9 1t9 1h2q2 0 4 2h3l10 4h2l41 9q1 3 4.5 3.5t11.5 2t15 4.5l28 8q22 0 25 10q1 1 5 4t6.5 4.5t5.5 5t4.5 7 t2.5 8.5v2v6q-2 0 -2 2v4v2q0 11 -30 45l-2 2q-14 7 -23 7h-6h-4h-2q-6 -1 -11.5 -4.5t-7.5 -4.5l-4 -4h-2h-2q-3 -6 -6 -6l-27 -29q-6 -14 -22 -38q0 -1 -1 -2q-2 -3 -4 -5t-8 -12t-14 -24l-4 -9q0 -4 -4 -4q0 -2 -2 -2z" />
<glyph unicode="&#x26;" horiz-adv-x="884" d="M49 211.5v23v17.5v31q0 35 8 110q7 22 54 125q22 39 52.5 70.5t55.5 46.5q12 16 43 49l4.5 4.5t7.5 7t8 7.5t3 2q-2 6 -34 39t-34 51q0 4 -4 16q-10 0 -25 4.5t-20 9.5q-7 2 -29 17q-2 0 -6 4l-22 20q-4 5 -8 10.5t-6 8.5t-3 4l-10 18l-8 39v19q0 29 12 75q7 30 39 62 q0 2 18 4q1 -1 5.5 -3t8.5 -4.5t5 -6.5v-2q0 -3 -6 -9q-3 0 -4.5 -1t-5 -4t-7.5 -5l-8 -10q-8 -8 -12 -23q-3 -15 -9 -35t-6 -30q0 -34 13 -66q2 0 2 -2q0 -4 2 -4q38 -41 74 -57q3 14 -3 35.5t-6 31.5q-4 11 0 15q0 4 4 12.5t5 13.5q0 10 59 92l8 9q3 3 4 6t4 4 q0 2 11.5 11.5t25 20.5t15.5 13q3 3 16 9.5t16 12.5q149 100 279 39q32 -16 74 -55q2 -1 11 -9t14.5 -13t14.5 -14.5t14 -17.5t9 -19t4 -21q-4 -89 -16 -109l-15 -22q-20 -29 -124 -90q-11 -8 -21 -8q-2 -1 -12.5 -3.5t-22.5 -5.5t-18 -6q-7 -3 -12.5 -3t-10.5 -3h-8 q0 -2 -2 -2h-8q-7 0 -42.5 1t-41.5 1h-6h-4h-17q-2 0 -30 4q8 -20 38.5 -58.5t38.5 -51.5q-10 -4 -15 -7.5t-9.5 -10t-11.5 -11.5l-54 -55q-23 -23 -28 -35q-32 -32 -33 -35q2 7 -9 -9q-8 -12 -31 -49l-22 -34q0 -4 -6.5 -28.5t-9.5 -27.5q-9 -23 -4 -86q0 -3 1 -6t1 -6 q6 -42 6 -43q0 -3 2 -5t2 -5q4 -12 4 -21v-4q4 -1 4 -53q0 -7 11.5 -37t15.5 -30l2 -7q27 -45 81 -79t105 -48q19 -4 26 -3t20.5 5t23.5 5q5 -1 25.5 6.5t27.5 7.5q1 0 4 2t4 2q2 2 5 6t5 6t5 2q0 2 2 4q5 5 6 5q14 15 25.5 34t25 44.5t21.5 39.5q32 77 32 156 q0 64 -31.5 122t-80.5 58h-4q-13 8 -35 8q-7 0 -15.5 0.5t-11.5 0.5t-8 -1.5t-9 -5t-9 -10.5l-15 -27l-2 -4l-2 2q-8 -16 -8 -43q0 -60 45 -90l37 -20l39 -13l-6 -12l-13 -6l-12 -2l-18 4l-39 16l-10 9h-5q-49 25 -59 88q0 20 -2 26v8q0 7 -2 9h2q0 57 59 104h2l62 57l14 17 l72 55l74 45l39 27l34 24l68 68l18 16l15 19l49 82l16 47l17 41l14 104l-4 76l-16 49l-27 41l-35 33l-41 27l-41 8l-4 6l10 18h2h11h20l29 -10l26 -14l52 -43l24 -35l8 -21l15 -43l10 -59v-12l-2 -25v-2l-12 -100l-17 -39l-16 -45l-8 -23l-47 -78l-31 -34l-96 -90l-43 -31 v-2l-9 -6l-88 -58l-35 -28l-51 -48q14 -1 43 -14h-2q60 -7 102 -86t42 -147q0 -43 -25 -115t-57 -125q-8 -18 -15 -25l-10 -10q-2 -2 -4.5 -5.5t-9.5 -11.5t-21 -22q-3 -1 -9 -7t-9 -7l-4 -4h-2q-6 -4 -15 -11t-10 -8q-4 -4 -33 -8t-37 -4q-4 0 -7 -1l-3 -1h-2q-37 0 -39 -2 q-58 0 -76 4q-34 3 -67 17h-6q-4 3 -14 7t-13 7q-48 19 -117 63q0 4 -2 4q-2 2 -6 8t-8 9l-2 4q0 6 -22.5 38t-22.5 36q0 2 -2 4q-6 6 -11 16t-8.5 20t-5.5 25t-3.5 24.5t-2 26.5t-0.5 23.5zM320.5 927q-0.5 -43 31.5 -120h2h13q1 0 22 -1t49 -5q6 -2 27 -2q5 1 8.5 0t16 -1 t26.5 3q70 18 74 20q20 3 65.5 30t57.5 44q3 4 6 11.5t6 11.5l4 10q3 3 4.5 11t3.5 27t4 33q0 50 -28 68l-54 47q-92 58 -190 12q-4 -4 -15 -10.5t-16 -11.5q-24 -15 -49 -43l-27 -27q-3 -9 -8 -14q-33 -50 -33.5 -93z" />
<glyph unicode="'" horiz-adv-x="198" d="M72.5 1064q-0.5 2 0.5 4.5t3 4.5l39 2q12 0 14 -2t6 -14q0 -15 -2 -17l-4 -18q0 -3 -5.5 -14l-6.5 -13q-1 -9 -15 -32l-10 -13q-6 -6 -10 -6q-6 3 -6 8v15q0 4 -1 8t-1 8t1 15.5t1 15.5v16q0 3 -1 11.5t-1 11.5q0 2 -0.5 4.5t-1 4.5z" />
<glyph unicode="(" horiz-adv-x="421" d="M29 422q0 101 15.5 211.5t35.5 154.5q26 77 38.5 107t43.5 88q12 19 32.5 37.5t35 28.5t18.5 10q14 18 26 20q34 43 56 43l16 4q2 -2 2 -22q-54 -49 -67 -80q-12 -7 -25 -49q0 -6 -6.5 -24t-16.5 -48.5t-16 -62.5l-24 -213q0 -129 -5 -344q1 -7 3 -31t3 -34t4 -31.5 t6.5 -35t9.5 -31t13 -32.5q2 -4 11 -24.5t18 -38.5t22.5 -42t26.5 -40q0 -20 88 -93q-3 0 -5 -2t-5 -2q-7 4 -30 10.5t-36 20.5q-20 0 -84 76q-121 108 -129 162q-29 43 -65 174z" />
<glyph unicode=")" horiz-adv-x="432" d="M35 1120q3 0 5 2t5 2q8 -4 30.5 -10t35.5 -20q20 0 84 -76q121 -108 129 -162q29 -43 65 -174l10 -133q0 -98 -16 -208t-35 -159q-10 -29 -17 -48.5t-15.5 -39.5t-12.5 -29.5t-17 -35.5t-20 -41q-12 -19 -32.5 -37.5t-35 -28.5t-18.5 -10q-1 -1 -3 -4l-3 -4.5t-3.5 -4 t-4.5 -4t-5.5 -3t-6.5 -1.5q-34 -43 -56 -43l-16 -4q-2 2 -2 23q54 49 67 80q12 7 25 49q0 6 6.5 24t16.5 48.5t16 62.5l25 213q0 172 4 344q-1 7 -3 31t-3 34t-4 31.5t-6.5 35t-9.5 31t-13 32.5q-2 4 -11 24.5t-18 38.5t-22.5 42t-26.5 40q0 19 -88 92z" />
<glyph unicode="*" horiz-adv-x="454" d="M51 1128q-4 7 0 11q6 6 10 6q2 1 5.5 0.5t5.5 -0.5q8 0 10 -2t9 -7t15 -8q0 -4 46 -24l20 -6q14 -4 21 -2q3 4 6 16q3 3 5 9t5 9q5 17 6 38.5t4 29.5v10q0 4 -2 6t-2 3q3 1 10 8h19q4 2 12 2q2 0 4 -2q-4 -2 -2 -10.5t2 -10.5q-3 -3 -2 -6t-2 -12q0 -35 -2 -45 q0 -7 6 -19q1 -3 1.5 -8t1 -7.5t1.5 -2.5q3 -3 21 10q26 13 47 31q14 6 18 10q2 1 15 19l2 2h2q3 -3 5 -8.5t5 -8.5q0 -6 8 -14l4 -4q-8 -6 -13 -11t-9 -8q-3 -4 -7.5 -7.5t-7.5 -6.5q-12 -4 -39 -31l-12 -12q-3 -4 -7.5 -7.5t-6.5 -5.5t-2 -5q0 7 38 -22q6 -4 9 -7 q10 -6 31 -27q0 2 4 -2l28 -14v-2q-2 -2 -2 -4l-26 -19q-3 0 -6 -3l-3 -3q-5 3 -7 5t-5 3q-6 4 -10.5 7.5t-7.5 5.5l-45 22q-19 14 -21 14q0 -12 -2 -22q-12 -36 -10 -72v-18v-21l-4 -1q-3 -1 -4 -5l-25 -4l-14 4q0 3 2 8t2 13q6 23 6 65q0 5 -1 10.5t-1 10.5t0.5 12.5 t-0.5 9.5q-11 11 -20 -4l-7 -4q-3 -1 -7 -5t-7 -5q-3 -3 -7 -5t-7 -5l-39 -43q-7 -9 -17 -15h-16q-2 2 -4 2q-1 5 -4 12.5t-4 10.5q-2 0 -2 4q3 3 8.5 6.5t9.5 9.5q2 4 21 21t22 30q3 6 4 11.5t4 9.5q5 9 11 22l-3 6q-3 5 -6 5q-3 10 -11.5 15.5t-21.5 9.5t-18 7 q-3 3 -14.5 10t-16.5 15q-7 7 -10 16z" />
<glyph unicode="+" horiz-adv-x="614" d="M86 569l2 39q0 4 25 4q120 0 120 2l-2 11q14 82 7 94q-6 11 19.5 12t68.5 -4q1 0 19.5 2.5t30 1t11.5 -9.5q0 -3 0.5 -6t0.5 -7.5t0.5 -20t0.5 -40.5v-33l15 2q21 -1 63 -6q8 -1 53 -10q9 -4 14 -17t5 -22q-6 -6 -29 -6l-27 8q-18 5 -51 2q-14 4 -16.5 0.5t-7.5 -2.5 l-21 -2q-10 -80 2 -129q-3 -13 -84 -4q0 -3 -9.5 -6.5t-24.5 -2.5t-27 9q-7 2 -7 36.5v67.5t-8 33q-54 0 -108 -1q-26 -1 -30.5 -0.5t-4.5 5.5z" />
<glyph unicode="," horiz-adv-x="202" d="M66 215q2 2 2 6q0 8 2 10v2q2 2 2 5l10 6q6 6 31 6q-1 -1 3 0q13 4 13 -2q4 0 4 -2l4 -10v-52v-6v-10q-2 -16 -10 -29q-2 -3 -5 -8l-4.5 -7.5t-2.5 -2.5q-3 0 -5.5 -1t-5.5 -1q-4 1 -6 3t-2.5 4t-1.5 3q0 2 4 2q5 5 8 21l2 4q1 3 1 6t-3 4h-12h-6q-6 0 -20 18 q0 3 -1 15.5t-1 15.5z" />
<glyph unicode="-" d="M134 549q-14 61 5 74q13 10 65 10t90 -3.5t48 1.5h14q15 0 54 -2t58 -2.5t36 2.5q16 4 16 -16q0 -7 -6 -50q0 -3 1.5 -9l3 -12t2 -11.5t-2 -9t-8.5 -3.5q-4 0 -20 -1t-37.5 -1.5t-69.5 0.5l-41 2h-33q-66 6 -164 0q-2 -2 -11 31z" />
<glyph unicode="." horiz-adv-x="217" d="M68 225v8q0 5 6 11q6 4 12.5 5t16.5 0t12 -1h6q4 0 12 -8q9 -3 14 -11q3 -6 3 -18v-8q0 -6 -5 -21q-2 -2 -2 -4q-7 -10 -28 -10q-3 0 -11 -2t-14 -2h-2q-8 0 -12 4q-6 6 -6 12z" />
<glyph unicode="/" horiz-adv-x="1046" d="M47 -270l4 12l2 2q2 0 4 2l13 4q4 0 8 4q-2 -1 0 1q1 0 3 2q34 25 38 38q2 2 33 74q2 2 8.5 20t21.5 56.5t31 77.5q2 2 8 20l4 8q3 7 10.5 19.5t10.5 19.5l18 29v2q1 -2 2 0.5t4 12t7 22t12.5 35t19.5 47.5q13 31 15 34q17 44 65 156q13 50 35 107q0 2 4 18l6 14l2 11 q0 8 62 174l8 30q0 10 6 19q0 5 33 71q2 2 26 43v3q4 4 4 8q7 8 10.5 16t14 31t29.5 57q7 9 15 22t40 52q5 3 8 8l21 12l10 9q17 17 35 20l20 10q1 0 6 2.5t14 5.5t23 7q2 1 4.5 2t3.5 1.5t2 0.5q6 3 13 3t22.5 0.5t34.5 2.5h8.5h6t4.5 -0.5t4.5 -0.5t5.5 -1.5t8 -2.5t11 -4 t16 -5q3 0 4.5 -2.5t8 -11.5t15.5 -19v-2h2q13 -30 13 -47v-7l-2 -4q-12 -30 -26 -41.5t-48 -17.5l-43 -12q-10 -5 -19 -8t-15 -4.5t-20 -4t-24 -4.5h-4l-16 -4q-7 0 -11 -2l-18 -6l-23 -43q-15 -26 -24 -35q-3 -6 -5.5 -16t-6.5 -18t-11 -15q-3 -3 -30 -72l-2 -2 q-1 -2 -1 -6l-6 -12q0 -3 -1.5 -7.5t-6 -18.5t-11 -33t-19 -59.5t-27.5 -90.5q-4 -4 -96 -242q-2 -5 -13 -20l-14 -29l-23 -59l-6 -13q-2 0 -2 -2t-9.5 -23.5t-49.5 -117t-94 -225.5q-5 -16 -23 -43q-2 -9 -27 -33.5t-51 -36.5q-2 -2 -6 -2h-41h-4h-2h-10q-2 0 -7 1.5 t-17.5 5.5t-29.5 7l-6 2zM786 1014q16 4 17 4h1q3 2 7 3.5t22 5t46 7.5l41 15q13 3 24 14q23 17 25 35v2v6l1 1v2.5t-0.5 3.5t-3 5.5t-5.5 7.5t-9 9.5t-14 11.5q-10 8 -55 0l-15 -12q-3 -3 -11.5 -9t-12.5 -12q-17 -30 -25 -41q-4 -13 -24 -43z" />
<glyph unicode="0" horiz-adv-x="784" d="M31 512q0 1 2.5 21t5 46.5t2.5 45.5l82 219q0 3 4 9t4 9q1 3 4 8.5t10.5 16t15 21.5t21 30.5t25.5 36.5v2q1 1 4 7t8.5 13.5t22.5 22t43 31.5l14 10q4 4 15.5 7.5t23.5 10.5q9 6 14 6l29 11l41 6q20 0 41 4q5 0 12.5 2t14 2t12.5 -4q1 0 15.5 -3t26.5 -6.5t13 -6.5 q48 -26 45 -41q-3 -11 -26 -3q-3 1 -7 3q-44 26 -77 20h-7l-18 -4l-74 -35l-28 -24q-7 -6 -22 -31.5t-28 -38.5l-30 -45q-35 -59 -49 -90q0 -1 -1.5 -2t-1.5 -2v-4q0 -3 -11 -39t-11 -52q0 -4 -2 -5l-2 -1q-2 -2 -2 -14q-1 -3 -2 -12.5t-2 -14.5q-4 -43 -11 -100v-1 q0 -2 0.5 -6.5t1 -10.5t1 -15.5t1 -21t1 -27t1 -33t1 -39t0.5 -45.5v-6v-14v-2v-23v-18q2 0 2 -2t-2 -2q2 -2 16 -65t20 -66q0 -10 7 -13q3 -10 6 -10q2 -17 10 -35l4 -14q0 -18 28 -62t65 -77t57 -21q9 0 12 6q3 -3 9.5 8t29.5 48.5t53 79.5q0 1 2.5 10.5t5 17t6.5 10.5 q10 66 15 87q5 20 10 63l16 61q1 4 1 11t1 12.5t4 11.5q13 79 13 273q6 20 6 112q0 17 -2 25q-1 13 -2.5 41.5t-3 43.5t-10 34.5t-23.5 31.5q-4 2 -10 8t-13.5 8.5t-21.5 2.5l-3 -1q-3 -1 -7 -1q-26 -7 -43 -39q-23 -38 -23 -74q0 -43 14 -61q3 0 4.5 -4t4.5 -7l1 -6 q1 -6 1 -12q-1 -4 -7 -5l-6 -1q-17 21 -26 41q-17 29 -8 57q0 23 2 33q6 50 32 78q5 3 19 22q49 30 72 35q11 5 22.5 6t17.5 0t20.5 -6t20.5 -6q10 -5 33 -27q8 -4 18 -13.5t11 -10.5q8 -11 16 -29q0 -18 6 -27q16 -54 19 -92q8 -31 8 -55v-4v-41v-33q0 -7 -2 -23t-2 -24 q1 -7 -1.5 -61.5t-5.5 -106t-3 -49.5q-2 -2 -2 -4v-8l-15 -62q-1 -16 -20 -90q-5 -9 -10 -27.5t-7 -23.5q-17 -43 -36 -74q-7 -17 -31 -51q-13 -19 -39 -47t-35 -39q-17 -12 -26 -27q-13 -19 -35 -28q-10 0 -13 -6q-26 -11 -38 -11l-17 -8h-41q-2 0 -15.5 2t-23.5 4t-10 6 l-14 5l-7 5q-7 5 -20 15t-30 24t-42.5 36t-52.5 47l-10 12q-4 12 -12 20q-2 0 -2 2v4l-5 13q-32 80 -32 90q0 14 -2 18q-3 3 -2 5.5t-2 5.5q0 3 -1.5 8t-1.5 8q-4 3 -8.5 23t-9 45.5t-8.5 35.5q-2 6 -2 23v4q-2 5 -2.5 8.5t0 14t1 25t0 48t-2.5 76.5z" />
<glyph unicode="1" horiz-adv-x="284" d="M-90 965v12q0 14 2 18q7 26 12 35q0 2 2 4v2q2 2 6 13q4 2 11.5 12t13.5 10q3 1 17.5 9.5t29 12t39.5 3.5h4h57h5h-3h3q4 0 45.5 -4.5t44.5 -4.5q14 0 20 -2h10h7h14q2 0 4 2h22h3h4h10q10 0 12 -2h8h2l2 2h2l15 -2l2 -2q0 -2 2 -2l-8 -24q-8 -3 -11 -6h-2q2 -2 5 -2 q-4 0 -9 -5q-37 -23 -69 -137q0 -4 -4 -4v-4q-4 -4 -4 -16q-3 -7 -3.5 -18.5t-3.5 -18.5q-4 -4 -4 -8q0 -55 -10 -119v-10v-4v-21v-4q3 -3 2 -12t2 -15q0 -3 -2 -8.5t-2 -9.5v-10q3 -4 3 -7.5t-1.5 -6.5t-1.5 -5l-8 -153q0 -9 -4 -42.5t-4 -35.5q-2 -2 -2 -15v-20 q0 -3 1 -14t1 -15q10 -37 0 -233q1 -2 1.5 -9.5t2 -14.5t4.5 -11l6 -27q3 -3 6 -16l4 -2q2 -18 27 -43l18 -16l23 -17q4 0 4 -4q7 -2 14 -12q4 -4 4 -12q1 -3 -2 -3.5t-8.5 -0.5t-7.5 -1q-15 0 -29 -2h-2h-14q-18 7 -27 4h-4q-1 0 -3 1.5t-3 1.5h-10q-3 1 -16.5 2t-16.5 2 q-1 0 -5 7t-5 7q-20 4 -52.5 34.5t-44.5 51.5q-10 21 -10 27q-19 8 -6 206q0 4 5 60.5t1 89.5q-6 15 -6.5 36.5t1.5 48.5t-1 73v34q-2 0 -2 5q0 2 2 4l6 133q2 4 2 22q0 1 1 5t1 8q0 2 7.5 37.5t7.5 43.5q4 29 10 43l8 23q1 2 4.5 11t3.5 14q12 28 15 32l65 74q11 11 -35 19 q-2 0 -18 -1t-26.5 -0.5t-14.5 3.5q-2 1 -11 1t-10 -1h-28l-6 1h-11t-13.5 -1.5t-15.5 -5t-15.5 -10.5t-14.5 -17l-12 -51v-23q0 -6 -7 -16.5t-16 -10.5q-6 0 -10 20.5t-4 29.5z" />
<glyph unicode="2" horiz-adv-x="694" d="M37 -51q3 4 5 17t5 18q5 21 6 22l23 41q8 29 33 62q5 12 16 30q3 3 7 11.5t7 11.5q13 13 33 41q8 12 66.5 71t68.5 72q46 46 55 53q48 54 52 58q5 5 23 36.5t18 41.5q11 25 26 92q6 14 11 39q0 7 2 53.5t2 111.5q-4 20 -4 25l-19 55l-8 17q-11 20 -62 65q-6 5 -14 14 t-10 11l-19 10q-7 4 -26.5 1.5t-26.5 -1.5q-19 8 -33 8l-67 -20l-19 -12q-3 -3 -11.5 -14t-16.5 -17q-1 -1 -8 -10t-11 -15q0 -1 -8.5 -13.5t-15 -38t-6.5 -67.5q0 -23 26 -81l13 -19l16 -14l20 -13l9 -2q5 -8 -3 -19.5t-24 -12.5l-33 20l-20 17l-35 55l-6 22q-4 12 -4 23 q0 5 -1 15.5t-1 15.5q0 45 22 94l21 43l6 8q7 7 17.5 20.5t17.5 20.5q14 14 32 25q30 22 72 40q42 5 55 9h2h13h2h30q8 -3 54 -15q4 -1 12 -4.5t12 -3.5q15 -2 35 -14q0 -2 2 -2h4q10 0 53 -35.5t60 -52.5l18 -37q13 -20 25 -49q6 -15 6 -31q0 -17 4 -29q6 -8 -6 -155 q-2 -18 -10 -35q-7 -13 -16.5 -39t-16.5 -39q-10 -13 -12 -20q-33 -54 -47 -68q-9 -12 -28 -30.5t-28 -30.5q-58 -58 -65 -58q-8 -5 -21 -16t-20 -15q-5 -2 -41.5 -34.5t-38.5 -32.5q-6 -6 -14 -10q-28 -17 -56 -45q-9 -9 -26 -33.5t-25 -32.5q-3 -3 -5 -9.5t-5 -10.5 q-4 -5 -12.5 -18t-12.5 -19q-6 -19 0 -35v-2h4q15 0 21 2t15.5 9t17.5 7h16q6 0 19.5 2.5t17.5 3.5q22 7 100 -6q44 -4 60 -8q10 -5 46.5 -14t39.5 -6q19 0 47 12t30 14l17 19q15 15 24 30l27 39q4 -4 5 -12.5t1 -9.5q6 -12 6 -19v-16v-10v-19v-2q-1 -4 -2 -13.5t-2 -12.5 q-14 -53 -35 -74l-24 -25q-17 -10 -35 -18q-2 -1 -9 -4t-12 -4q-4 -3 -30 -9l-78 3q-42 6 -88 18q-3 0 -78 20h-49q-3 0 -7 0.5t-6.5 0.5t-5.5 -1q-12 0 -40 -4q-8 -3 -27.5 -5t-28.5 -5l-24 -16q0 -1 -8.5 -6.5t-8.5 -6.5q-8 0 -10 2q-2 1 -2 6.5t-0.5 20.5t-3.5 31z" />
<glyph unicode="3" horiz-adv-x="739" d="M18 127q3 5 12 28t17 31l8 7q7 7 17 12q0 2 4 2q18 0 25 -12t-15 -31q-23 -23 -27 -34.5t-2 -53.5q0 -29 33 -62q18 -18 33 -28q4 -4 5 -3l1 -1q10 0 21 -11q13 -1 40.5 -8t45.5 -6q105 9 182 96l47 64q7 16 17 45.5t17.5 51.5t10.5 26q0 8 4 12q23 67 2 131l-20 55 q-16 43 -19 41v-2q-1 3 -13 20t-13 21q-1 7 -10.5 19.5t-12.5 19.5q-3 0 -24 26.5t-21 30.5q-7 7 -14 17t-15 18q9 9 41 26.5t65.5 43.5t55.5 59q36 61 41.5 98t-14.5 85q-4 12 -6 14q-15 25 -21 31q-11 11 -29 34q-6 3 -15 11t-11 10q-82 53 -187 8q-6 0 -26 -14l-17 -8 l-34 -21l-33 -33l-21 -45v-6v-20l13 -25q1 -4 6 -11.5t4 -11.5q-3 -20 -35 -6q-2 0 -4 2q-2 1 -3 2.5t-3 5t-3.5 7.5l-4.5 12t-7 16q-4 5 -4 64l13 37q0 2 2 2q3 3 6 9t6 9t13 10.5t20 16.5h2l4 4q1 0 10 7.5t21 16t18 11.5h2q38 25 68 33q76 19 128 1.5t115 -69.5 q0 1 13.5 -11t26 -24.5t10.5 -11.5q0 -4 10 -17.5t16 -19.5l21 -37q7 -7 17.5 -45.5t6.5 -62.5q0 -19 -19 -64.5t-48 -64.5q-6 -9 -35.5 -27.5t-32.5 -22.5q4 -8 8 -10q2 -2 6 -7.5t7 -6.5q-1 -4 32 -49q32 -47 70.5 -120t38.5 -110q4 -21 4 -22l-10 -107q-5 -7 -8 -28 l-7 -37q0 -18 -19.5 -55.5t-21.5 -43.5q-4 -4 -18.5 -24t-17.5 -23q-1 0 -2.5 -1t-2.5 -1q-42 -42 -91.5 -71t-67.5 -29q-11 -8 -31 -12h-6q-41 -7 -70 -4q-43 0 -80 6q-10 1 -63 16q-52 17 -55 21q-1 1 -11 9.5t-18.5 17t-11.5 14.5q-3 3 -14.5 18t-14.5 18l-6 15 q-25 55 -17 96z" />
<glyph unicode="4" horiz-adv-x="784" d="M-51 463q0 29 14 43q1 1 5 5.5t5.5 6.5t5 5.5t5.5 5t6 4t7 3.5t7 2t8 1q43 6 66 6h4l22 -4q6 0 14 -1t11 -1q10 -7 10 6q0 3 12 23t13 22l24 49q26 46 51 115t37 127q5 16 9 40.5t6 32.5q0 15 15.5 63.5t15.5 61.5q3 15 1 33.5t-3.5 28t-5 21t-3.5 12.5q3 10 19 -5 q32 -10 32 -12l37 -24q0 -3 4 -3q2 -3 6 -6.5t7 -6.5t4 -7q6 0 10 -49t4 -72l-4 -12q-2 -2 -2 -12q-9 -68 -41 -150.5t-41 -118.5q-7 -18 -29 -57q-6 -6 -37 -61l-30 -56l-2 -2q8 -8 18 -8h8.5t10.5 -4q1 0 10.5 -1t17.5 -5q1 0 3 -1t3 -1q58 -15 80 -15h19q7 0 19.5 -1 t19.5 -1h45q3 0 8.5 1t9.5 1h4q1 9 4.5 22.5t3.5 14.5q0 52 6 121t13 88q0 -1 3.5 16.5t7 36.5t3.5 21q2 6 13 43t14 43l12 24q5 5 8 17q8 23 19 37l80 92q34 22 58.5 24.5t61.5 -4.5q16 0 19.5 -1.5t3.5 -6.5q0 -12 -10 -22q-28 -14 -51 -44t-48 -98q0 -4 -6 -4l-2 -2 q0 -3 -1 -8t-1 -8q-1 0 -2 -4.5t-3.5 -14t-4.5 -16.5l-8 -37v-2q-13 -83 -17 -92q-2 -2 -2 -6v-6q2 -21 0.5 -40t-5 -39t-3.5 -22q0 -34 -18.5 -127t-18.5 -100q-4 -16 -6 -48.5t0 -41.5q4 -4 -5 -48t-11 -46v-9q0 -6 -1 -50.5t-1 -53.5l4 -35q15 -77 35 -88l20 -22l23 -19 q0 -2 2 -2q3 -9 12 -12v-19q1 -3 -3 -3h-5q-4 1 -6 1h-29q-13 2 -23 5t-13.5 4t-6.5 0q-7 1 -15 2.5t-11 2t-6.5 1.5t-5 2.5l-3.5 3.5q-3 0 -6 6t-6 6q-18 4 -44 38.5t-36 57.5q-5 10 -12 27q0 1 -1 38.5t-1 43.5v4h2q10 169 20 192q0 6 2 43.5t2 38.5v48q-3 0 -9 -2.5 t-9 -2.5h-19h-10q-1 -4 -18.5 -2t-18.5 2h-26q-14 0 -47 6.5t-39 6.5q-5 1 -12.5 1t-10.5 1q-5 0 -13 3t-12 3q-1 -1 -3.5 -1t-8 2t-10.5 5l-23 8h-2q-3 -2 -5 -4t-3 -3.5t-2 -2.5q-8 -8 -8 -10q-7 -7 -35 -23q-3 -3 -7.5 -5t-13.5 -6.5t-18 -10.5q-1 1 -5 -2t-9 -6t-8 -3 q-13 -4 -33 -7t-33 -7h-12q-9 0 -27 6l-22 6l-23 23q-14 33 -14 39zM-20 469q0 -11 8 -23.5t16 -17.5q5 -4 16.5 -5t12.5 -1l8 2q13 8 25 14l17 8.5t9 6t6 8.5q16 21 25 41q2 0 2 4h-8q-8 2 -76 2q-15 0 -29 -2q-2 -2 -7.5 -5t-8.5 -7t-6.5 -7.5t-5.5 -5t-3 -4.5t-1 -8z" />
<glyph unicode="5" horiz-adv-x="800" d="M37 270q-9 107 98 226q11 11 21.5 20t25.5 17.5t21 12t27 13.5t26 12l10 1q9 2 10 6q5 3 16 5t19 5q2 -2 8 -2h3q16 -5 18.5 -16t-3 -19t-9.5 -8l-9 2l-20 -2q-38 -6 -91 -38.5t-87 -88.5q-2 -6 -11 -21t-10 -24q-20 -52 -18 -88v-23v-14q0 -42 4 -49q-4 4 -2 -5 q7 -40 48 -121q28 -55 46 -67l74 -41l7.5 -2.5t8.5 -2.5t8 -1q13 0 13 -4q10 0 32 -2.5t29 -3.5q7 3 29.5 5.5t60.5 18.5q3 0 20 10.5t39 24.5t31 19q2 -5 5 4l2 10q14 0 53 61q0 9 2 15l12 73q0 4 -3 88t-3 89l-4 8q-2 2 -2 14q-9 49 -107 186l-6 9h-2q0 2 -23.5 28.5 t-23.5 28.5l-6 6q0 3 -11.5 17t-59.5 75.5t-113 149.5v2v4h2l2 2q1 2 3 7.5t4 14.5t3.5 26.5t1.5 39.5q0 26 -10 120t-15 109q-2 5 0.5 6.5t6.5 -1.5l47 -13q6 -1 20 -11.5t14 -12.5h3h16h31h12q20 0 59 6q-5 -1 2 0q3 0 16 2q90 16 105 12q3 0 13 1t14 1h4h4h2h6h10h9h6h6 q11 0 29 -10q9 0 34 -25q28 -28 35 -69q0 -17 -5 -57t-13 -52l-49 -61l-9 -8l-22 -7l-39 -6l-16 6l-7 2l-8 9l-12 12l-6 16l2 13l20 10l9 -25l10 -10l18 -2h2l33 6l16 12l25 37q8 11 17.5 41t5.5 60l-23 51q-4 12 -18 12l-11 4q-9 4 -25 5t-18 1h-10h-33q-6 0 -129 -18 q-2 0 -29 -3t-32 -3q-33 0 -40 -9q-2 -3 1 -6l6 -18l31 -94q3 -17 3 -42t-1.5 -51t-1.5 -32q0 -2 5.5 -9.5t6.5 -7.5l-2 -1q-2 1 0 -2q6 -7 53 -54q5 -1 33 -26q2 -3 9 -8t29.5 -27t55.5 -60l33 -39q1 -1 9 -10t16.5 -20t23 -32t27.5 -46l22 -45q23 -57 23 -58q0 -2 4 -6 l16 -57q6 -35 11.5 -101.5t1.5 -93.5q-1 -3 -6 -32t-10 -46.5t-22 -50.5t-40.5 -56.5t-67 -51t-100.5 -47.5q-17 -2 -68 -21q-7 0 -53.5 2t-58.5 2q-39 0 -131 58q-83 36 -124.5 123t-35.5 202z" />
<glyph unicode="6" horiz-adv-x="706" d="M32.5 379q0.5 5 0.5 6v18v21v12v17v14v22l2 15q24 159 26 149l5 25l4 14q13 43 80 176q0 3 19 34.5t19 33.5l2 2q18 28 35 45l27 27q1 0 3 3t3 3l39 28q13 10 27 15l8 4l55 27q1 0 2.5 0.5t5 1.5t6.5 2l25 8l41 4h74q3 0 16.5 -5t17.5 -9q15 -5 17 -7q19 -12 32 -33.5 t16 -34t3 -16.5q0 -16 -10 -43q-7 -17 -27 -28l-18 -10l-4 -2q-3 -3 -9 -3h-8q-12 -4 -18 -4q-3 0 -31 -2t-33 -2h-12q-3 0 -11.5 1t-12.5 1h-3h-4q-8 0 -10 2q-4 0 -11 2t-11 2l-27 9q-12 12 0 24h2q25 7 37 -2h4q3 0 11 -3t12 -3q8 0 10 -2h26h9q9 -1 23 2.5t20 3.5l14 4 l35 15q10 23 8 36q0 4 -2 9t-4.5 10.5t-3.5 7.5q-7 11 -27 16l-31 9l-20 -2q-43 -11 -45 -13q-2 0 -4 -2q-14 -7 -21 -14l-18 -14l-12 -9q-21 -15 -50 -53q-7 -12 -17.5 -27t-14.5 -22l-13 -18q-43 -76 -51 -95q-4 -4 -14 -40t-10 -42q-13 -45 -13 -51v-10v-2v-12v-7 q-2 -2 -2 -12q-2 -24 -3.5 -42.5t-2.5 -28t-2 -16t-1.5 -9.5t-0.5 -4q-2 -2 0 -2v-8q-4 -11 -2 -11v-6q3 -13 0 -22q-2 -68 -2 -82v-4v-15l-2 -2h2q-2 -28 -0.5 -54t5.5 -54l3 -27v-2q0 -60 23 -116t45 -83.5t28 -27.5q2 0 2 -6q6 -2 37 -28t37 -26q22 -4 60 5t55 16 q12 3 20.5 6.5t17 9.5t12 8t11 11.5t8.5 11t9.5 14.5t9.5 15q1 3 4.5 6t3.5 6q4 3 8 10t8 10q23 30 29 97q4 10 4.5 27t3.5 24q7 131 -59 297l-12 20l-23 19q-38 19 -45 20l-14 4h-19l-20 -4l-17 -8l-10 -6l-6 -8l-6 -17l-2 -10l-4 -8l-2 -19l6 -20l4 -10l12 -23l8 -12 l2 -35l-41 31l-6 10l-8 18l-8 29l-2 10v7v18l8 18l4 11v2l8 10l15 16l41 29l20 6h19l10 -2l18 -4h4q4 -3 25 -10.5t24 -10.5l9 -4q3 -3 9 -6t9 -6q3 -9 12 -12q33 -49 29 -60l4 -2q33 -96 45 -194q20 -180 -53 -275q-102 -178 -336 -127q-57 29 -63 29q-2 2 -2 4l-103 78 q0 3 -2.5 5t-3.5 5q-17 25 -26.5 41t-12 22.5t-4.5 8.5q-2 0 -2 8q-4 4 -15.5 52t-11.5 53q0 2 1 5.5t0.5 6t-3.5 6.5q1 0 -2 10q0 3 -2 8t-2 9l-16 102v29v2q-1 1 -0.5 6z" />
<glyph unicode="7" horiz-adv-x="739" d="M17 1128q0 3 1.5 7t1.5 6q0 29 19 63q1 4 4.5 8t8.5 7.5t7 5.5q0 1 13.5 9t17.5 11t8.5 4l13.5 3t19 5l4 1q4 0 10 0.5t13 1t15 0t15 -2.5q3 0 15 1.5t26.5 1t32.5 -4.5h2q2 0 6 -1.5t7 -1.5t6 3h4l61 -6q61 -6 72 -6q4 -4 14 -4h2q35 0 86 4h31h4q20 0 36 -2t44.5 -10.5 t50.5 -33t33 -62.5q2 -5 0.5 -9.5t-7.5 -28t-9 -48.5q-1 -2 -3.5 -8t-4 -11t-1.5 -8l-49 -125l-2 -4l-4 -12q-1 -1 -6.5 -9t-20 -32.5t-36.5 -65.5q-3 -12 -7 -12q-1 -3 -2.5 -6.5t-5 -10t-8.5 -15t-14.5 -26t-21 -39t-31 -57.5t-42.5 -78q-4 -4 -8 -11.5t-15 -31t-26 -51.5 q0 -1 -3 -4t-3 -4q-3 -5 -10 -25t-10 -24q0 -4 -4.5 -11.5t-17 -28t-25.5 -46.5q0 -12 -5 -12q-2 -4 -22.5 -42t-26.5 -51q0 -2 -2 -2q0 -10 -4 -10l-31 -98l-4 -15q-4 -10 -10 -16l-6 -37q1 -4 -2 -32.5t4 -58.5t31 -58q0 -25 2 -31q-1 0 -2 1t-2 1h-2l-29 8q-10 0 -12 2 q-2 0 -4 2q-1 4 -5 5l-4 1q0 5 -4 5h-2q-1 1 -4 2t-6 4l-11 15q-11 14 -32.5 46t-38.5 64v18v43v12q0 31 25.5 106.5t27.5 90.5l4 12l48 99l8 28l10 11q2 13 10 24l8 12q8 12 21 33t27.5 46t29 57t23.5 61q8 19 16 27v6q0 2 2.5 5.5t11 15t20 29.5t33 55.5t46.5 86.5 q1 1 17 34.5t30 51.5l2 13q6 9 49 122l37 76q2 7 3.5 12t-5.5 8.5t-11.5 5t-14.5 2.5t-14.5 1h-10.5h-25q-7 -3 -10 0q-74 -11 -121 4q-83 0 -86 8h-4q-4 1 -7.5 1t-6.5 -1q-13 0 -19 2l-69 8l-82 -8l-11 -2l-24 -18l-15 -31v-37q0 -2 -1 -11t-0.5 -16.5t2.5 -19.5t8 -27.5 t16 -33.5l18 -13l15 -12q0 -4 -1 -21.5t-1 -21.5l-15 4l-14 6l-20 21l-33 51l-17 86v14q-3 3 -3 6z" />
<glyph unicode="8" horiz-adv-x="825" d="M16 228v8v30q0 26 13 99t24 96l21 57q2 2 2 6q1 3 33 56q11 19 28 43q34 42 94 102l39 35l60 45l4 4l8 8l6 6l4 4q-2 3 -9.5 12t-10.5 17q-87 81 -101 186q-2 14 -2 33v6v19v14l2 19l2 6q3 3 3 14q30 61 85.5 94t114.5 23l17 -2h12l37 -4q1 -1 2 -1t3 0.5t5 -0.5t6 -3h2 l6 -7h2q1 0 6 -1.5l10 -3l10 -3t8 -4t3 -4.5l39 -25q1 -1 3 -1.5t3.5 -1t1.5 -1.5q-4 -4 2 -4q4 -10 13 -20q10 -7 28 -62l7 -12q3 -6 6 -19.5t5 -24t3 -11.5q5 -11 -8 -58t-35 -94v-2v-2l-4 -4q-2 -2 -4 -2l-35 -49l-2 2q0 -2 -13 -15q-8 -8 -10 -14q-5 -8 -10 -8l-8 -10 h-4l-8 -13l-7 -2v-2l-10 -8q-2 -4 -10 -12q-16 -16 -16 -17l-9 -2l-6 -4l-8 -10q-7 -7 -16 -10q-1 0 -19 -14q-7 -5 -14 -15l-12 -8q1 -1 -13.5 -13t-29 -23.5t-13.5 -12.5q0 -2 -2 -2q-1 -1 -2 -3t-2 -3.5t-2 -1.5q-18 -11 -70.5 -75.5t-62.5 -103.5l-6 -12l-4 -6 q0 -5 -14.5 -92t-14.5 -92l6 -43q-2 -48 2 -60q7 -16 13.5 -28t11.5 -19.5t8.5 -11t7.5 -6.5l4 -4q0 -5 2 -7l4 -4q14 -14 52 -43.5t41 -29.5q38 -19 60.5 -24t29.5 -9q42 0 62 1.5t52 9t70 24.5q4 0 17 9.5t23.5 17t10.5 5.5q2 3 6 7h4v4q10 1 23 27l12 26q-6 0 -1 4l3 2 l2 2q0 1 1 4q16 31 42 162q10 44 -16 123q-1 8 -3 14.5t-5.5 15.5t-5.5 15q-36 70 -70.5 113.5t-89.5 87.5l-23 4h-24q-37 0 -51 -10l-15 -9l-16 -12l-14 -14l-9 -58l2 -12l9 -12l12 -10q24 -26 9 -32q-6 -3 -17 1l-19 6l-16 10l-4 6l-4 9l-11 16l-2 20l2 45l13 27l16 21 l17 12l8 6l18 6l6 2q4 4 23 13.5t24 9.5l11 2q6 2 20 2q2 -2 23 -2h4l4 -2l22 -8q0 -2 2 -2q3 -3 4 -3l13 -6l8 -6q0 -2 2 -2q22 -18 40.5 -37t43.5 -50t35 -42q38 -58 59.5 -130.5t9.5 -141.5q-11 -124 -65 -208t-143 -110q-99 -49 -150 -41q-10 3 -60 7.5t-61 7.5 q-63 27 -67 28q-54 24 -95 52t-64.5 58.5t-38 55.5t-19.5 55.5t-6 43.5t-1 35zM270 1110q0 -51 4 -66q18 -71 101 -165q1 -3 6.5 -6t9.5 -7q0 -2 2 -4l13 4q10 8 19 10.5t11 4.5l56 43l-9 -6l9 12l8 10l2 4q9 7 19.5 45t10.5 51l-10 80q0 13 -2 19l-2 2q0 11 -8 14 q2 0 -3.5 11.5t-11.5 23.5l-6 12q-33 24 -106 10q-8 0 -15 -0.5t-12.5 -1t-13 -4.5t-16.5 -12q-4 -3 -12.5 -13t-12.5 -14q-6 -9 -14 -17.5t-11 -15t-6 -20.5l2 -2q-2 0 -2 -2z" />
<glyph unicode="9" horiz-adv-x="737" d="M18 780l2 129l15 64l6 12q1 1 6 16l4 15l6 16q12 16 21 29.5t12.5 20.5l6 12t3.5 6.5t2 1.5q29 22 33 33l12 8l11 10q14 14 22 14l6 4l17 13l14 4q2 2 6 2q0 3 6 6q20 9 86 31q17 10 31 8q5 -3 9.5 -2.5t8.5 2t5 0.5q4 -3 11 -2t11 -2v2l2 -2h6q29 0 35 -6q79 -26 80 -27 q4 -4 10 -6h6q31 -31 49 -56.5t21.5 -34.5t5.5 -9q6 -6 12 -19.5t12 -30.5t7 -20h2q0 -3 1 -8t1 -8l33 -132v-4q4 0 3 -5q-1 -4 -1 -7q5 -10 14.5 -70.5t5.5 -64.5q7 -39 9 -39q1 -32 4 -66t3 -39.5t-3 -17.5q0 -3 2 -4t2 -4l-2 -137h-4q-16 -155 -23 -162q0 -4 -2 -7l-2 -3 q-60 -166 -66 -166q0 -4 -4 -4l-84 -111q-1 -1 -8.5 -4.5t-7.5 -9.5h-2q-5 -4 -13.5 -8t-11.5 -7l-92 -36q-7 -7 -12 -4q-6 -3 -23 -9q-2 0 -5.5 -1.5t-6.5 -0.5h-63q-28 5 -41 15q-5 -3 -34.5 23.5t-35.5 35.5l-16 16l-21 31q-13 23 -18 45v18v14.5v11.5v9v6.5v5t0.5 3 t1 2.5l1 2t1.5 2l18 22v5q11 0 17 6q12 4 16 2q0 -1 2 -2t2 -2q1 -4 4.5 -9t3.5 -6l4 -8q0 -2 2 -4l-8 -4l-8 -6q-1 -2 -3 -4q-3 -1 -3 -7q-3 -3 -5 -7.5t-5 -8.5v-20q0 -5 1 -10.5t1 -10.5q5 -19 19 -40t24 -21q4 -3 17.5 -10.5t17.5 -10.5h4q1 -1 5.5 0t8.5 -2l8 -2 q21 4 58.5 17.5t41.5 17.5q27 16 62 51l22 25q10 10 13 20l26 49q8 19 13.5 34.5t7.5 22t4 11.5t4 8l2 8q9 51 17.5 89.5t12 51.5t5.5 26t2 28v14v19v147v2q8 97 0 119v4q-8 24 -8 107v12q0 4 -2 5l-2 1l4 6q-9 14 -6 25v2q-5 5 -2 8q-27 137 -39 149q1 3 0 5.5t0 5.5 q-43 68 -43 80q-4 1 -20 15.5t-19 14.5v2q-1 0 -10 1t-13 5l-8 5q-2 2 -8 2q-3 2 -22.5 0t-42.5 -4.5t-31 -2.5q-20 -7 -21 -8l-108 -69q-3 -3 -6.5 -4.5t-6.5 -4.5l-43 -71l-6 -15l-18 -36q0 -3 -2.5 -7t-3.5 -6v-2l-9 -63l6 -144l11 -41l10 -30l14 -27l21 -33l57 -69 q27 -17 29 -17l8 -2l27 -8l26 6l29 10l31 27l4 14l4 33l2 33l-2 16v2l-10 25l-13 20l-16 23v2v4l8 6l8 6l19 -10l8 -8l2 -2l4 -4l12 -17l11 -20l2 -16l4 -23v-4l-4 -31l-2 -31l-5 -26l-14 -21l-16 -18l-21 -16l-24 -15l-27 -6h-24l-35 10l-39 25l-39 33l-2 2l-23 28l-18 31 l-19 31l-14 31l-12 36l-8 31l-7 37z" />
<glyph unicode=":" horiz-adv-x="251" d="M88 199v6v8q0 1 1 6t1 8v9v10q11 1 22.5 2.5t24.5 1.5h6q5 0 13 -8q11 -3 14 -13q6 -20 -4 -51l-10 -6q-18 -6 -37 -6q0 -2 -2 -2h-6h-2q-19 3 -19 16q0 15 -2 19zM92.5 359q-0.5 7 0.5 16.5t1 13.5v2q0 1 1 2t1 2q0 4 4.5 8t10.5 9t8 8h26h5q3 0 8.5 -4t9.5 -4 q6 -6 6 -11q6 -25 -4 -55v-2q-5 -1 -9 -3l-3 -1l-54 4q-8 0 -8 2q-3 6 -3.5 13z" />
<glyph unicode=";" horiz-adv-x="237" d="M76 199v8v8v4q0 1 1 4t1 4l2 2q0 1 1 2t1 5l10 6q2 2 23 2q2 2 16 2h2q1 0 3 1t3 1h4q5 0 9 -4h4l4 -11q0 -14 4 -18v-10v-6q0 -3 -1 -9l-1 -6v-8q0 -8 -2 -10q0 -4 -1 -6q-1 -1 -1 -2v-8q-5 -10 -8 -13v-6l-11 -4q0 -6 -8 -6l-4 -4q-2 2 -6 2q-2 2 -2 6v2q0 2 2 4 q2 0 2 8q5 3 8 11v12v4h-12h-6q-17 0 -21 4q-11 3 -14 12q-2 2 -2 17zM77 364.5q3 4.5 1 8.5q3 1 3 4t-1.5 7.5t-1.5 6.5v8q0 3 1.5 4.5t5 4t5.5 4.5q3 9 12 12h23h4h4h6q3 0 8 -3l5 -3q0 -2 2 -2h6q4 0 4 -10q4 -17 2 -23q3 -8 0 -16v-2q0 -1 1 -4.5t1 -4.5h-2q0 -8 -2 -8 v-4q-6 -1 -9 -2t-3.5 -1.5t-1.5 -0.5t-6.5 1t-8.5 0.5t-4 -3.5h-10h-4q-2 0 -2 2q-5 0 -21 4h-6q-10 0 -10 2q-4 14 -1 18.5z" />
<glyph unicode="&#x3c;" horiz-adv-x="485" d="M106 553v2q6 7 18 27.5t13 25.5l17 23l6 8l12 18l23 37q0 1 1 2t1 2q7 3 32 43t25 45q2 7 10 15q4 4 12 19t13 20q2 2 5 7.5t5.5 9t5.5 3.5h6q7 -4 32.5 -12.5t29.5 -11.5q3 -3 15 -11t21 -16t9 -12v-2v-4q0 -5 -4 -5q-1 0 -3 -2t-3 -2q-11 -4 -19 -12q-13 -22 -24 -35 q-12 -21 -33 -49q-3 -3 -4 -6t-4 -4l-54 -76q-2 -2 -4.5 -6.5t-5.5 -5.5q0 -4 -19.5 -27t-27.5 -31h2q3 -4 6.5 -7t9 -6.5t9.5 -6.5q8 -3 8 -10q3 -9 35.5 -35t35.5 -31q15 -5 31.5 -22t24.5 -31l4 -4l10 -10q5 0 2 -9q0 -3 -5 -7t-11 -9l-6 -4q-2 -5 -9 -8h-2q-3 3 -11 7 t-11 7l-49 45l-2 2q-9 5 -35 31q-2 0 -10 8q-13 13 -49.5 44t-43.5 34l-6 6q-11 11 -14 12l-18 17q-4 9 -3 10z" />
<glyph unicode="=" horiz-adv-x="915" d="M225 499q-16 62 4 74q13 10 65 10.5t90 -3t48 1.5h14q15 0 54 -2t58 -2.5t36 2.5q16 4 16 -16q0 -7 -6 -50q0 -3 1.5 -9l3 -12t2 -11.5t-2 -9t-8.5 -3.5q-4 0 -20 -1t-37.5 -1.5t-69.5 0.5l-41 2h-33q-66 6 -163 0q-2 -2 -11 30zM225 692q-16 62 4 74q13 10 65 10 t90 -3.5t48 1.5h14q15 0 54 -2t58 -2.5t36 2.5q16 4 16 -16q0 -6 -6 -49q0 -3 1.5 -9l3 -12t2 -11.5t-2 -9t-8.5 -3.5q-4 0 -20 -1t-37.5 -2t-69.5 0l-41 3h-33q-66 6 -163 0q-2 -2 -11 30z" />
<glyph unicode="&#x3e;" horiz-adv-x="557" d="M111 385v2v4q0 4 4 4q1 0 3 2t3 2q7 3 18 13q9 14 25 34q14 25 33 50q3 3 4 6t4 4l53 76q2 2 4.5 6.5t5.5 5.5q0 4 19.5 26.5t27.5 30.5h-2q-3 5 -24 21q-8 3 -8 10q-5 7 -37 33.5t-35 32.5q-15 5 -31 22t-24 31l-4 4l-11 10q-5 0 -2 8q0 3 5 7.5t12 9.5l6 4q3 5 8 8h2 q4 -3 12 -7t11 -7l49 -45l2 -2q9 -5 35 -31q2 0 10 -8q13 -13 49 -44t43 -34l6 -6q2 -2 4.5 -5.5t4.5 -5t5 -2.5l19 -16q3 -9 2 -10v-2q-26 -35 -31 -54l-16 -22l-6 -8l-13 -19l-22 -37q0 -1 -1 -2t-1 -2q-7 -3 -32.5 -43.5t-25.5 -44.5q-2 -6 -10 -14q-4 -4 -11.5 -19 t-12.5 -20q-2 -2 -5.5 -7.5t-6 -9t-5.5 -3.5h-6q-7 4 -32 12.5t-29 11.5q-3 3 -15 11t-21 16t-9 12z" />
<glyph unicode="?" horiz-adv-x="749" d="M50 852q-3 54 2 99.5t11 60.5q12 29 17 37l8 16q12 16 21 25q4 5 13 16t16 19t14 12q30 30 67 45q11 0 19 8q5 3 15 5t15 5q8 0 22 3t17 3q2 2 10 2h33q3 0 8.5 -1t8.5 -1q31 -3 59 -12q12 0 29 -10q2 -2 6 -2q38 -15 68.5 -34.5t50.5 -36t35 -40.5t22.5 -37.5 t13.5 -38.5t7 -33.5t3 -30.5q0 -3 0.5 -5t0.5 -4v-7l6 -45q9 -29 0 -63v-25l-6 -51q0 -3 -5 -8q-12 -27 -14 -43q-5 -25 -10 -35q-2 -6 -15 -24l-2 -3q-8 -8 -10 -14q0 -7 -8.5 -18t-20.5 -23l-14 -14q-1 -1 -11 -12t-20 -21t-16 -14q-41 -27 -127 -113q-13 -13 -42 -36 t-36 -29q-6 -6 -10.5 -17t-11.5 -14q-2 -2 -2 -4h-2q0 -2 2 -2q-3 -3 -6.5 -11t-6.5 -12q-3 -8 -8 -27l-2 -7v1v-8.5t-4 -9.5v-8q3 -6 5.5 -18.5t6.5 -20.5q2 -3 5 -8t5 -8.5t5 -4.5l8 -6l4 -4h6l8 -4q-8 -24 -18 -27q-3 -3 -6 0l-4 7q-4 0 -5 3q0 1 -1 1q-2 2 -14 8t-15 12 q-2 0 -2 2l-2 2l-4 2q-3 3 -5.5 7.5t-5.5 7.5v2q-10 28 -12.5 64.5t2.5 53.5q2 2 2 9q1 6 13 22l18 29l10 12q13 13 15 19q10 23 28 41q18 26 37 47q13 6 76.5 91t73.5 101q3 4 6 14t6 13q7 11 10 28q3 3 4 5.5t1 6t1 5.5q21 166 17 170l-19 96q-7 26 -20 41l-6 14l-7 9 q-1 0 -5 6t-5 6q-1 1 -21 16.5t-39 28.5t-34 20q-43 15 -70 15q-15 0 -43 -4l-51 -17l-6 -4q-2 -2 -4 -2q-4 -3 -13.5 -7t-13.5 -7q-9 -12 -27.5 -30t-27.5 -30q-1 -3 -7 -10.5t-7 -11.5q-4 -4 -4 -10q-8 -6 -12 -33t-7 -31q-10 -53 -2 -84l12 -47q2 -4 5.5 -16t6 -21.5 t5.5 -9.5l10 -27q33 -55 43 -61q9 -12 12 -12t-1 -7t-9 -15.5t-4 -10.5q1 -4 -5 3l-3 3l-2 2q0 1 -14 13.5t-15 15.5q-61 85 -61 106q-15 22 -18 76zM261.5 -40q6.5 39 17.5 42h4l8 6q5 5 8 2q5 0 13 2l7 2q6 2 23 -4q3 -1 7 -4t7 -4v-2l17 -20q2 0 10 -23v-12q0 -18 -6 -27 q-4 -4 -6 -4q-3 -7 -13 -10q-10 -7 -18 -10l-12 -1q-13 -1 -23 -2t-16 0l-6 5l-13 4q-6 3 -6 12q-9 9 -2.5 48z" />
<glyph unicode="@" horiz-adv-x="1294" d="M113 467l8 70v8l16 61l17 51l6 21l10 18l53 90l39 45q1 1 10.5 9t16 14.5t6.5 9.5l16 19l95 65h2q2 1 3.5 2t6 3t11 5t20 9.5t30.5 13.5q32 16 45 16q2 1 5 1.5t8 1.5t18.5 4t32.5 8q18 6 20 6q12 0 51 10h52q150 0 166 -10q8 0 12 -4l135 -53q3 0 8 -5.5t8 -5.5 q146 -146 146 -356v-45q0 -3 1 -4t1 -4l-19 -97l-26 -125l-21 -45q-21 -38 -48 -81t-70 -95t-72 -59q-7 -2 -26 -12t-32 -11l-8 -4q-32 -10 -71 -4q-4 3 -9.5 5t-13 5l-12.5 5l-21 18l-14 18q-8 12 -12 31.5t-11 30.5l-10 12q-8 11 -18 8q-31 -10 -90 -10q-13 -1 -23.5 1 t-14.5 4t-17 9t-17 9q-20 9 -59 39q-22 17 -32 32t-15 31t-9 23q-6 12 -10 32q-3 15 -1 42t-1 42q-2 27 -2.5 33t1.5 26t3 33q0 72 35 144q6 14 10 26t5 16t5 10.5t10 13.5t19 20q4 3 13.5 13t13.5 13q7 3 17 11.5t17 11.5q36 16 70 25q30 10 55 -9q12 -7 20.5 -11t20.5 -11 q4 -3 14.5 -12t18.5 -13l8 -4q4 4 4 6q10 18 21 43l6 11q14 16 27 24q24 19 63 29q14 6 42.5 4t53.5 -8q16 -10 19 -25q3 -12 -8 -20q-24 -14 -54 -58q-5 -7 -7.5 -11.5t-5 -10t-3 -8.5t-2.5 -12t-4 -15q-3 -8 -7 -26.5t-7 -26.5v-4q-6 -26 -8.5 -55.5t-4.5 -41.5l-10 -77 q-1 -10 -2.5 -19.5t-1.5 -23.5l-4 -117q-3 -55 8 -101q1 -2 5.5 -22.5t12.5 -30.5q3 -9 21 -16q3 -3 16 -6q4 0 9.5 -0.5t9 -1t8.5 0.5t10 5q97 85 139 198q3 3 5.5 11t5.5 12l6 16l25 130q8 49 10 77v66q0 149 -117 278q-51 36 -139 64l-54 10q-3 0 -6 1t-6 1h-4q-3 0 -7 1 t-7 1q-12 3 -99 6l-71 -6q-13 0 -15 -2l-102 -33l-41 -16q-5 5 -49 -27q-2 -2 -4 -3.5t-4 -2.5l-58 -39q-20 -15 -49 -41l-24 -31l-31 -36l-29 -50l-16 -34q-3 -3 -3.5 -6.5t-2.5 -12.5t-6 -20l-7 -15l-22 -110l8 -150l21 -73q13 -49 79 -164q0 -2 0.5 -3.5t3 -4l6 -6 t10 -10.5t13.5 -15l27 -27l28 -35l66 -49l117 -61l59 -17l1 -2q1 -2 5 -2l25 -6q14 0 22 -2h4q8 0 31 -2t31 -2h6h23l57 4l156 29l47 16l37 21q10 10 14 10t6.5 -1t5.5 -3t11 -7t18 -10q10 -10 -27 -28l-41 -27l-45 -20l-143 -25l-88 -8l-123 10l-94 25l-111 51 q-12 11 -34 23t-40 28l-51 41l-16 18l-62 78l-37 64q0 1 -3 7t-8.5 17.5t-8.5 22.5l-31 70q0 2 -22 114zM528 429.5q-4 -61.5 7 -110.5q1 -3 2 -17t3 -26t5 -16q7 -7 11 -20.5t11 -20.5q42 -31 84 -39q18 -5 21 -4q13 3 10 12q-4 10 0 39q4 7 1.5 52.5t-1.5 56.5 q4 13 4 32.5v24.5q7 28 8 35l6 39l5 51l4 39q0 56 8 92q4 23 3 29.5t-13 26.5q-1 2 -17 14q-31 25 -53 31q-10 0 -16 -9q-13 -17 -20 -46t-15 -44q-5 -8 -11 -27t-8 -24l-18 -65q-17 -44 -21 -105.5z" />
<glyph unicode="A" horiz-adv-x="974" d="M-35 -63q-3 31 6 57v4q3 13 6 16v4l9 21l2 2q0 1 1 3t1 3q1 2 2 4.5t1.5 3.5t0.5 2q10 25 22 41l19 29q3 3 5 7t5 7q0 3 6 9q19 19 58 36q4 1 9 2l7.5 1.5t3.5 0.5q2 0 14 -4l4 -4h5l-2 -4v-4q-2 -5 -5.5 -8t-7.5 -5.5t-7 -4t-8.5 -3.5t-8.5 -3q-29 -6 -47 -31 q-15 -18 -33 -58q-1 -1 -4 -10l-4 -6q-8 -13 -11 -29q0 -1 -1 -4t-1 -4v-6q0 -4 -2 -6q-4 -8 -4 -23q0 -3 -1 -7t-1 -7q-2 -11 -2 -21q0 -22 8 -44q4 -9 31 -46q17 -20 51 -26q21 -6 51 -6q25 0 31 -2h10q13 0 31 6l61 41q3 3 11.5 7t11.5 7l8 10l2 2l21 29q3 4 6 11.5 t6 11.5l4 6l21 47q7 16 10 37l12 55q1 6 14 37q3 15 11 41.5t12 52.5q7 16 14.5 62.5t14.5 99.5t8 61l6 33q1 3 1 9t1 9q0 3 4 23l4 37l2 10q0 3 1 5t1 5v11l-10 6l-4 2q-12 7 -47 20q-10 3 -22 3q-19 0 -42 -9l-8 -8q-2 -3 -7 -15t-9.5 -22.5t-7.5 -11.5l-9 -4q-6 0 -12 6 q-10 10 -4 20q2 0 2 2l4 6l8 11l15 24q2 5 4.5 8.5t6.5 7t6 5t7.5 4t6.5 3t9 2.5l7 3q16 4 22 4q24 0 52 -12q17 -5 24 -10l14 -7q3 0 5 -2q0 1 1 3.5t1 3.5l6 22q4 7 11 33.5t9 38.5q3 8 7.5 24.5t7.5 24.5q14 47 53 123q3 9 10 16l6 6q1 3 3 5.5t3 5.5q0 2 4 6q2 8 9 14 l4 6q29 41 53 56l14 12l6 6q1 0 3 2l8 6q16 8 39 31l28 20q1 1 58 42.5t63 47.5l6 7q8 8 21 8q4 0 7 -2.5t6 -7.5t5 -7l2 -2l-12 -53q0 -17 -6 -29q0 -5 -29 -77q-9 -28 -20 -74q-4 -28 -4 -35q-4 -31 -7 -35q-3 -12 -8 -76l-4 -51q-2 -2 -2 -10l-6 -57q0 -15 -2 -19 q0 -1 -1 -34t1 -33q2 -6 2 -31v-8v-25q0 -53 -2 -80q0 -4 1 -13.5t1 -14.5q2 -4 2 -19q4 -62 4 -88q2 -16 2 -49l2 -2q0 -1 5 -35.5t5 -46.5v-16v-4q3 -17 6.5 -54.5t6.5 -54.5l6 -47q0 -3 1 -8t1 -8l6 -23q3 -9 4 -10l2 -6l6 -25l15 -39l4 -12t4 -15l4 -4v-2q2 0 2 -2 q4 -4 4 -8q2 -6 8 -12q4 -4 4 -12q0 -2 1 -13t0 -17.5t-5 -6.5h-6q-2 1 -6.5 2.5l-9 3t-8.5 2.5q-11 3 -27.5 13.5t-28.5 20.5t-32 27.5t-27 22.5q-8 7 -14.5 20t-13 28t-9.5 21q-7 12 -16.5 42.5t-16.5 43.5q-3 5 -8 39q0 15 -14.5 92t-14.5 89v2q-6 39 -6 84q0 2 -6 71 q0 3 -1 8.5t-1 8.5q0 7 -8 10v2l-58 49l-6 4l-22 21l-12 14q-3 3 -17.5 10.5t-17.5 10.5l-8 6q-9 9 -15 12q0 1 -1 2t-1 2q-2 -2 -2 -6l-2 -10q-3 -13 -5 -42t-5 -42l-12 -66q0 -20 -8 -73.5t-21 -79.5q0 -3 -1 -7.5t-1 -7.5q-3 -11 -12.5 -44t-12.5 -50q0 -3 -1 -6t-1 -6 q-2 -8 -9.5 -26.5t-8.5 -31.5l-4 -16q-2 -2 -4 -8q0 -2 -1 -4t-2 -5.5t-2 -5.5q-5 -11 -10 -38v-2q-8 -23 -10 -27q-3 -3 2 -8l2 -2l-2 -4q-3 -3 -6 -10.5t-6 -10.5q-17 -30 -27 -37l-2 -2q-4 -8 -9.5 -15.5t-10.5 -11.5t-13 -10.5t-12 -9.5q-3 -1 -6 -4t-6 -4q-5 -6 -13 -8 q-3 -3 -7 -5.5t-7 -5.5q-24 -21 -65 -24q-27 -4 -37 -10q-12 -4 -15 -4h-4h-2q-43 4 -59 16q-1 0 -3 1t-3 1h-4q-33 14 -41 22l-4 5q-28 11 -46 47q-6 12 -6 24v4q-2 4 -2 21q0 9 -4 29zM526 604q0 -6 2 -8q15 -16 50 -42.5t40 -31.5q11 -11 17 -14q12 -12 16 -14 q11 -11 31 -27q2 0 4 -2v10q-2 2 -2 6v15q0 69 4 90l2 6l4 41v10q2 4 2 16q11 42 11 113l6 39l4 16q0 3 1 9.5t1 9.5l2 6l1 3q1 3 1 7l4 21v10l45 133l-29 -20q-30 -15 -57 -45l-16 -17l-11 -10q-38 -41 -53 -76q-12 -22 -20 -53q-3 -7 -7.5 -21.5t-7.5 -21.5 q-24 -68 -32 -100q-5 -12 -9 -39z" />
<glyph unicode="B" horiz-adv-x="782" d="M2 -244q-5 15 8 49q3 17 11 45t10 39q6 17 10 56l16 78q3 10 6.5 29.5t6.5 29.5t7.5 29.5t6.5 25.5q6 23 10 68q2 23 2 63q0 43 2 66q0 7 1 17.5t1 17.5v20q0 17 1 52t1 53q0 9 -1 28.5t-1 28.5v20q0 3 -1 10t-1 11q2 -2 2 51q0 18 1 36q0 37 -1 76q-1 59 -4 72v17 q-1 12 -3.5 25t-6.5 29.5t-6 27.5q-3 19 -13.5 56.5t-13.5 57.5l-6 15q0 3 -1 6t-1 6q0 8 8 8q7 0 23 -4l84 -35q5 -2 15 -9t11 -11q1 0 11 -10q17 28 43 47q8 9 26 12q21 7 74 12q12 0 23.5 2.5t23.5 1.5l4 -2q8 -5 22.5 -8t22.5 -8l13 -6q36 -22 51 -47q5 -8 14 -20 t15 -22t10 -20q15 -40 16 -47q0 -16 8 -35q0 -18 2 -24q0 -27 -6 -45q-2 -17 -10 -35q-1 -2 -8 -25q-3 -5 -7.5 -15t-7.5 -15l-14 -29q-8 -14 -31 -38.5t-28 -31.5q-6 -8 -17 -16.5t-14 -11.5l26 -2q27 -3 35 -7q8 -3 24 -9.5t25 -10.5q19 -8 60 -31q26 -9 35 -14 q17 -9 30 -31l21 -29q3 -1 4 -2t2.5 -3.5t3.5 -4.5l4 -6q10 -4 15.5 -10.5t9.5 -19t6 -15.5q9 -21 12 -47q4 -26 4 -52q0 -38 -9 -79q-3 -8 -3.5 -25.5t-3.5 -25.5q-7 -30 -25 -76q-13 -33 -26 -51q-35 -63 -97 -99q-43 -22 -94 -28l-55 -6q-23 0 -37 2q-8 3 -24.5 7 t-24.5 7l-53 18q-10 3 -13 13q0 2 -4 6q-20 28 -20 54q0 9 2 17q3 25 18 43q11 0 11 -8v-20q0 -11 -2 -15q-6 -34 24 -49q6 -2 10 -6q11 -14 27 -20q32 -14 61 -4q10 4 41 22q6 1 19 8l14 15l14 14q32 32 50 72q17 43 28 92q2 13 9 41t8.5 41t-0.5 41q-3 13 -7.5 35.5 t-7.5 35.5q-5 33 -39 103q-2 3 -10 17t-10.5 18t-8.5 13t-11.5 14t-12.5 9q-35 12 -37 11h-6q-46 0 -69 -6q-10 14 -5 24q3 3 8 10.5l7 10.5q14 14 35 51q3 3 8 23.5t8 25.5q6 19 9 57.5t1 63.5v18t-4 23l-16 49q-3 7 -10.5 30.5t-10.5 30.5q-7 18 -20 31l-6 10q-3 6 -9 12 t-13 11.5t-9 7.5l-4.5 4.5l-4 4t-4.5 3t-7 2t-11 0.5q-21 0 -33 -4q-15 -9 -51 -45l-2 -2q-3 -5 0 -11q1 -2 2 -3q3 -7 5 -19.5t5 -19.5q17 -66 17 -109q0 -3 6 -51q0 -9 7 -97t7 -101q4 -28 4 -35q0 -15 -2 -19q-4 -8 -4 -22q3 -7 0 -10q0 -158 -6 -189l-6 -45 q-6 -40 -10 -108q-1 -17 -6.5 -30t-8.5 -26q-1 -7 -5 -18.5t-5 -18.5l-18 -84q-1 -1 -4.5 -11.5t-3.5 -12.5q-8 -24 -30.5 -52t-23.5 -30q-3 -6 -37.5 -39t-37.5 -37l-17 -14q-3 -3 -14.5 -8t-14.5 -11q-6 -8 -18 -2z" />
<glyph unicode="C" horiz-adv-x="823" d="M25 358q0 34 4 43q0 1 1 4t1 7q-1 10 0 20t3 22.5t3 20.5l4 51q3 12 6 35t6 35q4 44 10 68q1 7 4.5 18t4.5 18q6 18 22 54q4 16 10 26q8 26 37 74q3 4 5.5 12.5t5.5 12.5l4 12t6.5 13.5t9.5 8.5l6 9q1 5 12 16q5 4 25 29l25 24q8 13 30 31t29 25q5 5 15.5 10.5t13.5 7.5 q10 8 21 14.5t24.5 14t21.5 12.5l47 20l23 7q33 7 67 7l23 -1q47 0 59 -4q13 -2 43 -19q44 -29 62 -59q20 -28 22 -45q13 -30 13 -49q2 -20 1.5 -38.5t-1.5 -37.5q0 -5 -1 -15.5t-1 -15.5q0 -28 -17 -70q-3 -3 -6 -16q0 -4 -4 -8q-4 -6 -13 -16.5t-10 -12.5q-10 -19 -30 -31 q-1 0 -3 -1t-3 -1q-11 -3 -32 -5t-32 -5q-3 0 -10.5 -1t-11.5 -1q-30 3 -52 19q-6 2 -10 6q-8 2 -12 18q-2 0 2 4q5 6 14.5 7t14.5 -5q2 -2 20 -8q20 -10 40 -10q24 0 48 14q23 10 37 21q13 13 16 28q20 43 23 80q0 14 1 39t1 37q0 41 -14 66q-17 33 -35 49l-21 18 q-12 11 -55 25q-8 1 -27 1t-28 1q-14 -4 -26 -9t-18.5 -8t-17.5 -12t-13 -10.5t-14.5 -14.5t-13.5 -14q-15 -21 -32 -31q-23 -20 -37 -53q-3 -4 -7.5 -13t-7.5 -13q-6 -12 -12 -25t-13 -29.5t-12 -27.5l-26 -54q-17 -52 -33 -88q-3 -7 -7 -23.5t-7 -23.5q-4 -5 -15 -31 q-3 -3 -6 -16q-10 -38 -20 -67q-5 -12 -8 -26t-3 -21t0.5 -26t0.5 -22q-1 -14 2 -36.5t4 -32.5q0 -31 6 -66q3 -11 7 -34t7 -35q1 -13 4.5 -33.5t3.5 -24.5l17 -61q1 -2 6.5 -19.5t11.5 -25.5q11 -19 29 -37q5 -5 10.5 -11.5t10 -11t10.5 -8.5q3 -3 9.5 -11t10.5 -11l35 -25 q6 -5 28.5 -9t32.5 -3l72 6q3 1 18 6.5t29.5 11.5t24.5 13q23 13 59 59q3 7 10 10q15 15 21 29q0 4 8 12q1 3 4 5t4 5l27 48q21 35 24 71q2 0 2 4q3 14 19 11q16 0 16 -15l-4 -24l-18 -56q-11 -25 -19 -30q-4 -10 -16 -27.5t-16 -24.5q-1 -3 -3.5 -5t-3.5 -5l-18 -20 q-49 -53 -74 -76q-34 -26 -67 -35q-19 -8 -55.5 -18.5t-53.5 -16.5q-6 -3 -13.5 -3.5t-17.5 0.5t-14 1q-83 3 -152 35q-4 1 -10 4l-8 4q-3 2 -22 21q-15 13 -35 41q-7 6 -23 34q-19 31 -35 68q-3 7 -11.5 31.5t-16.5 38.5l-19 63q-1 7 -5 19.5t-5 19.5q-2 10 -7 29.5t-8 36 t-3 32.5z" />
<glyph unicode="D" horiz-adv-x="811" d="M-8 -139q8 9 41 63l14 29q16 31 35 82q11 35 22 90l7 55q3 17 7 51.5t7 51.5q2 14 2 39q1 8 2.5 22t2.5 25.5t1 21.5q2 22 1.5 43.5t-1.5 42.5q0 17 -4 45q-3 12 -3 25.5t1.5 29.5t1.5 25q0 31 2 47q0 39 4 133q3 53 3 88q0 18 -1 31l-4 60l-6 40q-12 55 -27 76 q-9 17 -34 33q-3 3 -8.5 6t-8.5 6q13 16 27 13l28 -7q7 0 9 -2q7 -3 27.5 -7t25.5 -7l4 -2q3 -3 34.5 -22t39.5 -33q6 -10 13.5 -16.5t11.5 -12.5t7 -20q0 -3 1.5 -6.5t1.5 -6.5l14 21q4 4 10 12t14 16l27 23q7 7 23 10q19 0 32 8q26 14 62 11q3 0 53 -17q2 -2 27 -8l22 -12 l51 -43q40 -37 60 -76q4 -8 20 -55q3 -7 5.5 -21.5t5.5 -21.5l14 -37q17 -49 22 -68l4.5 -9t4.5 -11q6 -16 6 -51q0 -16 1 -43t1 -43v-39l-8 -72q0 -29 -2 -43q-4 -76 -9 -109q0 -24 -8 -43l-18 -45q-1 -2 -2 -4.5t-1.5 -3.5t-0.5 -2q-3 -9 -11 -23t-10 -20l-18 -41 q-5 -13 -10.5 -25.5t-14 -26t-13.5 -21.5t-16.5 -24t-15.5 -22q-21 -32 -70 -45q-19 -6 -79 -6h-17h-10q-25 0 -57 8q-15 4 -17 2q-57 0 -88 54q-19 28 -6 57l16 45q5 9 17.5 24t15.5 19q3 6 17 2q1 -2 4 -7.5t3 -8t-3 -8.5q-3 -3 -8 -10.5l-7 -10.5q-3 -3 -5 -8t-5 -8 q-12 -27 -14 -54q-3 -13 8 -24q16 -20 37 -23q36 -8 63 -8q48 4 68 29l43 45q4 5 12 16t12 17t9 15.5t8 18.5q12 35 14 56l19 86q21 121 22 131q3 17 6 51t6 51v66q-5 86 -8 106q0 11 -4 39q-19 75 -27 92q-23 54 -32 68q-10 24 -33 61q-29 45 -61 64q-19 17 -54 26 q-9 5 -19 1.5t-13.5 -5.5t-12 -10t-14.5 -12t-25 -23l-8 -10q0 -3 -11 -22t-11 -23v-92v-96q-1 -7 -1 -17q0 -20 3 -49v-29q0 -7 1 -20t0.5 -23t-3.5 -20q-5 -45 -5 -55q0 -5 -2 -14t-2 -13q0 -13 1 -36t1 -34v-4q-3 -8 -4 -17.5t-1 -20.5t-1 -17q0 -6 0.5 -43t-4.5 -43 q-2 -4 -2 -21q1 -9 -4 -55l-12 -61q-8 -44 -25 -90q-20 -65 -63 -117q-5 -7 -24.5 -21.5t-24.5 -21.5q-3 -4 -18 -12.5t-19 -12.5q-10 -10 -30.5 -20.5t-27.5 -16.5q-10 -8 -18 -4q-13 10 -4 19z" />
<glyph unicode="E" horiz-adv-x="802" d="M31 279q0 13 14 67l4 33l12 31q2 3 11.5 23.5t15.5 31.5q3 3 7.5 12.5t8.5 14.5l86 96q10 14 35 28q15 15 21 19l69 31q17 6 43 22l-12 6l-49 23q-58 27 -84 94q0 6 -2 8q-8 10 -14.5 30.5t-8.5 24.5q-6 18 -6 38q0 16 4 32l25 64q1 16 17.5 39.5t29.5 31.5 q7 5 19.5 16.5t19.5 16.5q43 31 47 33q9 3 26 11.5t29 12.5q24 15 47 15l46 4q10 4 25 4q18 0 42 -6q28 -12 39 -23q5 -5 13 -12t15 -14t13 -15q17 -17 20 -45q0 -3 2.5 -6t2.5 -6q-8 -9 -11 -16q-7 0 -10 -7q-1 3 -4 6.5t-4 6.5q0 23 -14 45q-15 19 -27 26q-2 2 -7.5 6 t-8.5 9q-4 5 -8.5 8t-10 4t-9.5 2t-11.5 1.5t-10.5 0.5q-21 3 -49 -8q-28 -16 -78 -84q-3 -4 -39 -68q-5 -16 -17 -44t-17 -44q-6 -20 -6 -43q0 -19 4 -41l4 -24q4 -8 11.5 -33.5t20.5 -38.5t41 -20q3 0 15 4q18 8 61 4q0 -3 1 -9.5t1 -9.5q0 -12 -10 -14l-16 -8 q-60 -41 -86 -92l-11 -13q-21 -14 -49 -65q-4 -12 -15 -29.5t-15 -27.5l-7 -5q-4 -5 -8.5 -14.5t-7.5 -13.5q-2 0 -2 -6q-2 -3 -23 -39q-9 -15 -16.5 -44t-13.5 -42q-11 -25 -11 -74q0 -11 -1.5 -33t-1.5 -34.5t4.5 -29t15.5 -30.5q12 -16 35 -43q10 -10 12 -16 q12 -21 41 -50l22 -20q15 -15 69 -33t95 -18q13 3 34 11.5t26 10.5l28 15q6 5 37 18q2 1 21 11t28 14q11 7 20 15.5t18.5 18l15.5 15.5q9 9 24 49q17 49 17 63q1 14 -14.5 47t-18.5 48q-1 10 -17 36l-12 23q2 2 12 2q9 9 21 0q2 -2 22 -14q3 -3 7.5 -12.5t7.5 -12.5 q6 -9 11.5 -29t6.5 -22q1 -4 2 -14t2 -13q1 -7 4.5 -24.5t3.5 -26.5q0 -18 -10 -35l-18 -47q-1 -4 -12 -18q-3 -9 -9 -15l-10 -20q-7 -7 -27 -35q-31 -39 -73 -53l-103 -31q-17 -3 -28 -10q-4 0 -22.5 -2.5t-22.5 -2t-23 2.5q-11 1 -24 1t-28 -0.5t-22 -0.5q-27 4 -37 12 q-75 36 -131 58q-8 3 -20 14t-16 14q-6 4 -19.5 16.5t-21.5 16.5q-20 20 -35 41l-15 20q-12 12 -12 25q-18 87 -18 195z" />
<glyph unicode="F" horiz-adv-x="743" d="M2 1102q0 2 2.5 12l3 12t3 11t4.5 12.5t5 11.5t6.5 13t8 12.5t10.5 15.5q14 14 16 15q9 6 30 21.5t24 18.5q24 19 116 43q6 3 16 5.5t15 5.5q49 12 106 13q8 0 17 -1q2 -2 10 -2q29 0 117 -18l104 -29q6 -4 41.5 -14t51.5 -17q35 -13 94 -24q25 -6 90 -19q14 -3 41.5 -6 t42.5 -6h4q35 0 125 31q40 17 43 20q5 5 16 28.5t11 30.5q3 12 3 25q0 36 -26 82q-5 6 -23 20q-32 25 -65 25q-6 0 -8 2q-17 0 -17 10q0 5 6.5 11t12.5 6q9 0 55 -4q11 -2 20 -5.5t17 -11.5t12 -12.5t13 -17.5t12 -17q6 -7 10 -16.5t7.5 -21t6.5 -17.5q3 -16 -2 -43 q-3 -8 -9 -34.5t-9 -33.5q-21 -43 -57.5 -68t-114.5 -59l-64 -22q-15 -4 -47 -4q-22 0 -51 2h-39q-3 1 -6.5 2.5t-6.5 2.5t-7 1q-12 4 -17 4q-61 14 -98 33q-22 4 -35 10q-21 5 -22 6l-12 3t-10.5 1.5l-12.5 -2.5l-37 -80q-20 -51 -25 -94q-1 -8 -4.5 -31.5t-3.5 -36.5v-22 v-21q-12 -88 -14 -125l-6 -100q0 -1 1 -5t1 -7q25 0 35 2q21 7 61 14q6 6 23 10q1 0 4 1.5t5 2t4.5 0.5t4.5 -2t4 -6q1 -1 4 -3q5 -7 2 -11q-2 -7 -12 -10q-6 -6 -8 -6q-88 -30 -123 -35q-9 0 -12 -12q0 -4 -1 -15t-1 -16q1 -18 -4 -50t-5 -46q0 -49 -6 -80v-4q3 -14 4 -26 t-0.5 -28t-2 -23t-4.5 -28.5t-5 -25.5q-9 -52 -31 -107q-16 -26 -30 -53.5t-23.5 -44t-24.5 -33.5q-6 -7 -10.5 -15.5t-8.5 -19.5t-7 -16q-53 -81 -96 -109q-3 -1 -8.5 -5t-8.5 -5q-9 -5 -37 -10t-30 2q1 3 1 8.5t1 9.5l1 3q1 3 1 7q51 99 55 111q8 16 21.5 48t17.5 40 q23 57 33 107q15 61 16 79q1 22 10 62.5t11 52.5q1 16 14 64q8 44 8 75q0 15 -2 27l-4 86q0 9 -8 12q-1 1 -6.5 4.5t-8.5 4.5l-43 16q-6 3 -12 3.5t-14 -0.5t-12 -1q-5 -1 -17 0.5t-14 -2.5q-16 -4 -25 -4q-18 0 -18 12q-4 11 12 14q39 13 70 13h12h35q4 0 16 -4l31 -9 q0 3 1 7.5t1 5.5l12 141q5 75 8 94l7 31q4 20 11.5 44t12.5 37t18.5 44t16.5 39q6 13 24.5 40.5t24.5 37.5l-12 10q-6 0 -8 2q-68 23 -168 35q-22 4 -44 4q-61 0 -124 -29q-45 -27 -58 -49q-24 -29 -24 -66q0 -11 2 -22q0 -1 1 -5t1 -5q7 -46 61 -58l21 -4q10 0 16 -6v-4 q-4 -23 -7.5 -25t-29.5 3q-28 3 -49 18q-21 12 -30 37l-17 39q-4 9 -4 47z" />
<glyph unicode="G" horiz-adv-x="798" d="M66 375v16q0 12 1 55.5t1 57.5q0 2 4 22q0 3 1 8.5t1 8.5q2 32 14 86q3 9 5 26t5 25q24 105 35 131q0 5 34 84t42 90l31 55q12 21 34 43q46 46 62 60q66 50 109 65t106 15q7 0 27 -4q21 -5 26 -9q9 -3 21 -12l14 -14q25 -29 33 -58q3 -9 5 -26.5t5 -26.5q6 -25 -23 -31 q-1 3 -2 6.5t-1.5 5.5t-0.5 3q-2 40 -37 100q-12 19 -43 31q-27 7 -43 4q-37 -3 -73 -23q-25 0 -80 -102q-1 -2 -11 -20t-14 -29q-27 -56 -39 -96.5t-21 -95t-15 -81.5l-5 -20q-5 -18 -12.5 -68t-9.5 -59q-14 -60 -16 -106q0 -27 -7 -76q-8 -36 -8 -78q1 -6 1 -28.5t3 -35.5 q5 -43 27 -81l16 -31l15 -23q7 -7 13 -22.5t13 -22.5l23 -18q22 -18 35 -25q7 -4 11.5 -8t6 -6t5.5 -4t13 -4q42 0 50 8q24 16 57 49l41 45q13 13 22 25t15 18q0 2 3 20t5.5 34.5t1.5 17.5q0 8 -5 103.5t-5 103.5v43q0 7 -8.5 111.5t-8.5 111.5v14q1 10 0.5 12.5t-2 8 t-2.5 10.5q-3 8 -12 8l-11 1h1q-6 1 -10 1q-52 0 -68 4q-12 3 -12 25q3 10 14 10q11 -3 58 0t61 0h16q31 0 68 -6q7 0 20 -9t13 -16q10 -52 10 -65q0 -5 6 -105.5t6 -105.5l-1 -19q-1 -19 -2 -48.5t-2.5 -65.5t-2.5 -72.5t-2 -67.5t-0.5 -52t2.5 -25q2 -7 -2 -33 q-8 -46 -21 -100q-3 -25 -12 -46l-16 -51q-3 -8 -10.5 -17.5t-14 -15.5t-17 -16t-14.5 -14l-6 -4l-8 -4q-3 -5 -7 -9t-7 -5.5t-9.5 -5t-9.5 -5.5q-6 -4 -43 -2.5t-45 12.5q18 22 23 31l4 4q0 8 8 19.5t10 15.5q1 2 9 13.5t12 19.5q12 28 14 41q0 5 3 12.5t3 9.5l12 55 q4 11 9 54v6q0 -1 -1 -3q-7 -13 -14 -20l-16 -14l-47 -51q-32 -32 -64 -45l-41 -17q-16 -4 -20 -4q-7 -3 -43 -8q-10 -3 -21 4l-59 29q-4 3 -13.5 6t-13.5 6q-49 29 -69 64q-26 33 -41 71q-7 16 -18.5 44t-18.5 44q-16 31 -16 82q0 43 -2 66z" />
<glyph unicode="H" horiz-adv-x="724" d="M-4 -133q3 4 4 8t1 8.5t1 7.5q1 2 4 9t4 12q3 6 5 12.5t3 11.5t2 7l19 65q8 42 20 82q23 63 23 160q0 9 4 37q0 34 2 57l4 80q8 41 8 88q0 19 4 47v53q0 55 2 82v76q0 12 5 47q0 17 3 105t3 104l4 55q0 17 -1 78t-1 78q0 37 -8 61q-1 6 -4.5 15t-4.5 12q-6 10 2 18 q3 7 13 0q3 -1 5 -3t5 -3q3 -3 26.5 -14t26.5 -14q4 0 4 -4q18 -18 42 -61.5t34 -72.5q14 -44 14 -75l7 -105v-47q0 -12 1 -88t1 -88q0 -34 -4 -43v-41q0 -29 -7 -45q-3 -4 -4 -9.5t-1 -13t-1 -12.5l-4 -35v-16q0 -13 12 -10q7 3 22.5 6t22.5 6l23 8q2 1 6.5 1.5t9.5 2 t9 4.5q18 8 41 11q9 3 27 6t26 6q24 3 41 12q8 5 8 15q3 22 6 58.5t6 59.5l17 80q8 24 8 51q3 14 11 38t11 36l17 47q8 35 59 70q3 6 10 14t19 19l12 12q4 6 12.5 14.5t17.5 15.5t11 9t2 4t2 2q11 3 12 2q3 -3 5 -10q0 -1 -1 -1.5t-1.5 -2t-0.5 -4.5q-11 -34 -22 -95 q-3 -13 -6 -38.5t-6 -38.5q-11 -42 -13 -66q-2 -14 -2 -47q0 -32 -8 -51q-9 -27 -12 -54q-1 -7 -4 -18t-4 -18l-4 -47q0 -3 -1 -8.5t-1 -8.5q0 -35 -3 -72q-4 -31 -2 -47q0 -7 1 -19.5t1 -19.5q0 -3 -1 -7t-1 -7q0 -53 -2 -80q0 -20 -2 -26q0 -11 -1 -65t-1 -66 q0 -9 6.5 -114t6.5 -118q0 -2 2.5 -8.5t1.5 -9.5q-4 -18 -4 -39q0 -26 6 -56q3 -6 4 -13t1 -15t1 -13l6 -63l4 -27q0 -4 2 -6t3 -4.5t0.5 -4.5t-1 -5.5t-0.5 -5.5q0 -12 -8 -15q-2 0 -4 1t-5 2t-5 2q-3 0 -6 8q-3 4 -9.5 9t-9.5 9q-1 3 -9.5 10.5t-8.5 10.5q-5 9 -29.5 36.5 t-30.5 42.5q-3 10 -11 29.5t-13 35t-6 30.5q-1 19 -7.5 58t-7.5 58q0 12 -7 147.5t-7 145.5q0 12 -1 30t-1 30v41v26q2 14 2 41v31q0 9 -6 6q-15 0 -17 -2l-12 -4q-9 -3 -33 -7.5t-39 -8.5q-7 -3 -17 -5.5t-17 -5.5q-5 0 -21 -4q-7 -3 -22.5 -7t-22.5 -7q-4 -1 -9 -2 l-7.5 -1.5t-3.5 -0.5q-21 -3 -21 -23q2 -2 1 -17.5t-1 -17.5q0 -4 -1 -15t-1 -19q1 -4 -2.5 -13t-3.5 -12t-1 -6t-1 -6q3 -20 -6 -41q-2 -2 -2 -8q1 -2 1 -9q-1 -21 -9 -83q-12 -84 -15 -99q-5 -35 -18 -72q-25 -69 -29 -75l-4 -6q-7 -8 -17.5 -28.5t-17.5 -29.5 q-6 -8 -36 -24.5t-32 -18.5t-17.5 -9t-20.5 -13q-3 -9 -11 -9l-6 -6q0 -7 -12 -4q-6 12 0 27z" />
<glyph unicode="I" horiz-adv-x="331" d="M6 -53q3 4 8.5 13.5t11 16.5t13.5 13q6 3 6 10q28 94 33 133q3 25 12 49q2 14 2 37q0 53 -2 80q0 26 -4 76q0 3 1.5 10t0.5 12q0 38 -2 56l-8 116v39q-2 1 -2 39q0 29 1 77q3 114 3 124q0 34 4 104q3 30 12 66q0 3 4 31q3 12 7.5 35.5t7.5 35.5q3 7 5.5 23t6.5 24 q6 14 21 30.5t36.5 36.5t28.5 28l20 12q44 24 82 31h21q-4 -4 -9 -12t-8 -11q-8 -8 -4 -12q0 -4 -2 -4q-6 -4 -10 -9t-5.5 -7.5t-4.5 -10.5t-4 -10q-10 -15 -23 -51q-3 -9 -5 -27t-5 -27v-18q0 -19 2 -29q4 -15 0 -61q-4 -62 -4 -92q2 0 1 -40l-1 -40q0 -8 -3 -74t-3 -74v-6 q6 -28 2 -53q-10 -117 -10 -262v-74q0 -13 -1 -37t-1 -37l-9 -69q-12 -63 -32 -101q-3 -3 -5.5 -9.5t-5.5 -10.5q-21 -40 -90 -78q-10 -5 -33 -18q-11 -8 -24 -11q-15 -6 -27 0q-16 7 -6 17z" />
<glyph unicode="J" horiz-adv-x="665" d="M12 -170q-2 15 -2 32q0 44 17 99q0 3 4 19q12 37 16 43q10 16 23 55q6 10 19 35t22 39l30 53q35 59 54 78q8 8 14 20q4 8 14.5 20t14.5 17l20 18q10 10 26.5 28t29 30t30.5 24l39 27q5 5 14 8q6 4 11 -12q0 -18 -15 -33q-5 -5 -59 -47q-24 -19 -29 -31q-36 -28 -57 -55 q-18 -16 -36 -47t-24 -39q-13 -19 -43 -68q-8 -17 -24 -44t-23 -40q-8 -15 -30 -84q-9 -20 -11 -36q0 -1 -1 -15t-5 -20q0 -12 -1 -35t-1 -35q0 -26 8 -45l4 -12q7 -23 10.5 -32.5t11.5 -25.5t18 -26.5t24 -18.5q2 0 11 4t11 -2q1 0 6.5 4t8.5 5q10 10 18 12q9 2 29 18 q27 24 43 56q20 37 39 67q6 10 26 56q1 4 5.5 10.5t5.5 9.5q3 8 7.5 20.5t8 22.5t6.5 20l17 33l20 58l25 65v6q9 36 12 74l16 80q3 40 9 61q0 42 2 60q0 20 1 53.5t1 50.5q-4 102 -4 160q0 63 2 94v39q1 14 1 28q0 87 -22 173q-3 23 -18 57q-11 28 -28.5 88t-29.5 88 q-7 16 -20 39q0 6 -6 12q4 4 7 10.5t7 10.5q20 7 31 -2q22 -16 45 -19q92 -26 114 -59q1 -3 4.5 -7t4.5 -7q13 -10 10 -25q0 -3 1 -6t1 -6q3 -10 11 -46.5t14 -49.5q19 -95 24 -134q0 -54 2 -107q1 -18 1 -31q0 -27 -3 -38q0 -11 -1 -33.5t-1 -35.5q-3 -10 -4 -22.5t-1 -27 t-1 -22.5v-74q-1 -13 0 -40t0 -40q-5 -70 -8 -88q-3 -57 -11 -102q-3 -15 -4 -45t-4 -45q-7 -56 -8 -60q-4 -51 -12 -77l-8 -23q-4 -9 -31 -104q-3 -11 -15.5 -30.5t-15.5 -31.5l-24 -41q-8 -14 -19.5 -28.5t-20 -23.5t-24 -25t-22.5 -23l-54 -43q-8 -8 -36 -20.5t-33 -16.5 q-18 -15 -45 -18q-19 0 -47 -7h-2q-7 -2 -14 -2q-23 0 -44 21q-33 28 -57 74q-3 5 -6 16t-6 16q-3 11 -5.5 29.5t-5.5 30.5v12z" />
<glyph unicode="K" horiz-adv-x="847" d="M-12 -207q0 26 8 39q6 9 10 27q3 9 10 21t9 18q21 66 22 71q0 4 1 11t1 10l1 2q1 2 1 6q0 12 2 16l4 23q3 12 8.5 54t8.5 54q0 17 4 45q0 4 2 12.5t2 12.5q2 4 2 18l12 160v10q0 4 1 13.5t1 13.5q0 3 5.5 57.5t5.5 57.5t1 9t1 9q0 4 2 37t2 37q4 23 8 90.5t4 83.5v8 q-2 2 -2 8q2 14 2 37v6q0 1 1 27.5t2.5 55.5t1.5 56t-1 29v17q0 25 -2 39l-2 6q-4 55 -18 82q0 1 -2 4t-3 6l-12 35l-4 12q-2 2 -2 10q-3 6 -6 18t-6 17q-4 4 -4 6l-4 4q-8 11 -8 16t10 15l2 2h2q18 0 26 -8q4 -4 8 -4q7 0 9 -2q3 -1 15 -2t22 -3t14 -5l6 -7q29 -9 55 -26.5 t31 -38.5q1 -3 7 -26.5t11 -41.5t7 -20q4 -28 4 -35v-2q4 -7 4 -33v-18q2 -18 2 -51v-33q0 -4 -1 -12.5t-1 -12.5v-4q-2 -4 -2 -18v-11v-82q-2 -14 -2 -36v-4l6 6q17 14 31 22l8 6q10 8 24 22l21 21l20 23q1 2 15 16q6 6 12 16t12.5 24.5t7.5 17.5q3 3 5.5 9t5.5 9 q3 4 8 19.5t8 19.5q3 5 16 36.5t21 41.5q13 16 16 26l19 27q20 25 26 31l47 45q20 20 50 33l6 4q13 17 33 14l4 -2v-4q0 -2 -2 -2v-4q0 -1 -3.5 -6.5t-3.5 -6.5q-3 -8 -22 -24q-56 -41 -68 -57l-8 -9l-8 -10l-8 -6l-6 -8l-7 -6q0 -3 -4 -7l-12 -12q-6 -6 -35 -67 q-1 -3 -3 -6q-1 -4 -1 -5q-5 -5 -8 -14l-27 -53q-3 -5 -9 -19.5t-9 -19.5q-4 -5 -14.5 -21.5t-14.5 -21.5q-6 -14 -38.5 -53t-39.5 -39q-28 -20 -43 -35l-14 -14q-2 -3 -4 -5q2 -2 12 -2q35 -3 62 -24l16 -12q6 -6 29 -19q9 -3 14 -8q6 -2 10 -6q13 -6 19 -19q2 -2 4 -5 t3.5 -4.5t4.5 -2.5l45 -43q3 -3 7 -9t7 -9q11 -11 19 -29q2 -6 10 -14q2 -3 4 -9q0 -2 2 -4l2 -2q2 -6 6 -10l2 -2q3 -3 3 -6q17 -51 47 -189l4 -16v-12q2 -2 2 -6q0 -5 12 -59t12 -58l4 -27q0 -3 1.5 -8t1.5 -8l2 -6q2 -8 5 -24.5t6 -28.5t7 -23q0 -1 1 -4t1 -6 q4 -10 6 -13q3 -3 5 -9.5t5 -10.5l7 -12l16 -25q7 -14 20 -27q1 -3 2.5 -4.5t3.5 -2t3 -1.5l6 -6q4 0 4 -4q12 -9 14 -16q5 -5 2 -15q-8 -10 -24 -10q-20 0 -52 14q-8 3 -22 13q-2 2 -6 2q-1 1 -20.5 7.5t-24.5 14.5q-3 3 -21 15.5t-22 15.5l-17 12q-9 9 -34 49 q-1 3 -4.5 7.5t-4.5 7.5l-4 12v2q-4 18 -10 33q-9 15 -12 37q-2 2 -2 12q0 1 -1 4t-1 6q-3 5 -5.5 15.5t-5.5 15.5l-4 12q-2 6 -8 51q0 9 -4 37q0 3 -1 10.5t-1 10.5l-6 26q-4 16 -4 19q-3 5 -5.5 15.5t-5.5 15.5q-6 25 -17.5 82.5t-20.5 89.5q-33 85 -50 102l-26 29 q-9 12 -10 12l-7 6q-10 10 -22 14q-4 4 -4 7h-2q-2 2 -4 2q-2 -4 -2 -21v-12q-5 -40 -5 -60q0 -4 -1 -8l-1 -4v-20v-19q0 -3 -1 -5t-1 -5l-2 -2v-4l-2 -2q0 -17 -2 -23q0 -18 -2 -24q0 -4 -6 -44.5t-6 -45.5v-11v-2q-2 -2 -2 -6q-4 -9 -9 -89t-5 -99q0 -3 -2.5 -6.5 t-2.5 -6.5q0 -34 -8 -55q-2 -2 -2 -12v-2q-2 -4 -2 -19l-12 -47q0 -5 -3 -12.5t-3 -9.5l-1 -3q0 -3 -2 -15t-5 -33l-7 -17l-6 -12q-3 -17 -29.5 -56t-44.5 -57q-4 -4 -15.5 -11.5t-14.5 -10.5q-22 -25 -70 -39h-4l-10 4z" />
<glyph unicode="L" horiz-adv-x="806" d="M33 -102q0 8 2 12q2 12 14 39q1 2 2 4.5t1.5 3.5t0.5 2l6 14l19 62q3 22 18 72.5t15 76.5q0 5 -1 14.5t-1 14.5q0 4 1 11.5t1 11.5q0 8 7 75t7 78q0 20 5 172.5t5 204.5q-3 14 2 25v4q-2 9 2 36v11v6l2 2q0 4 4.5 21t15.5 49t25 65l19 31l6 4q0 1 1 2t1 2q3 3 6 10t6 10 q1 3 10 9t11 8l4 8q1 3 4 6t4 6l18 29q20 20 31.5 27.5t38 20.5t55.5 30l11 8q2 0 4 2l4 4q12 12 26 12h3q1 0 2 1.5t2 1.5l12 4q10 0 12 -2q6 0 12 -17v-2q-9 -25 -30 -31l-2 -2q-24 -20 -37 -39q-15 -15 -31 -43q-17 -12 -55 -100l-4 -18q-11 -22 -11 -47q0 -14 -6 -29 q-2 -2 -3 -4t-2 -7.5t-1.5 -12t-2.5 -20t-5 -28.5v-2q-1 -3 -2.5 -8t-2.5 -9t-1 -7l-6 -41q-6 -24 -6 -47q0 -3 4 -78t4 -123q0 -15 -5 -74.5t-8 -56.5q-1 -14 -9.5 -54t-8.5 -57q-3 -40 -20 -78q-36 -84 -45.5 -102.5t-63.5 -110.5q7 3 22 13t25 14l4 2q11 4 56.5 9t62.5 5 h18h17h12h19q3 0 11.5 -2t12.5 -2q8 0 22 -3t17 -3q4 0 9.5 -2t10.5 -4.5l7 -3.5l14 -4q87 -47 98 -51q93 -40 117 -45q22 -2 28.5 -1.5t16.5 3.5t19 4q6 0 13.5 4.5t21 16t16.5 13.5q1 0 4 3q2 2 4 2l2 2h2h4q10 0 12 -2q6 0 13 -11q2 -8 -6 -16q-7 -9 -17.5 -31t-15.5 -26 l-10 -7q-16 -16 -39 -26q-6 -6 -23 -10q-1 0 -4 -2.5t-4 -2.5h-4q-2 -2 -10 -2q-16 -4 -19 -4q-24 -6 -45 -6q-14 0 -68 23q-16 4 -24 4q-2 2 -12 2l-50 18q-11 5 -27 12t-28.5 12t-30.5 9q-2 1 -6.5 3.5t-7.5 2.5q-8 0 -17.5 3t-21.5 8.5t-18 7.5t-26 7t-27 6.5t-23 4.5 t-25.5 3t-23 -1t-25.5 -4q-16 -4 -20 -4l-23 -6q-5 -2 -20 -6.5t-23 -8.5l-28 -14h-9h-14q-12 6 -12 21z" />
<glyph unicode="M" horiz-adv-x="868" d="M-37 -47q-9 9 4 22q13 20 13 29q0 13 6 25q5 8 9.5 23t6.5 20q3 11 7 31.5t7 31.5l7 45q0 44 2 103v36q0 35 6 62v6v16v11q4 8 4 22q0 35 2 53q0 35 4 113q0 6 2.5 66t5 115.5t2.5 50.5v43v18v12v15q0 30 -6 67q-2 2 -2 12v13q-2 12 -8 24q-5 4 -10 21l-5 8q0 4 -4 8 q-10 7 -10 17q0 7 10 14q0 2 2 2v4h2q5 8 17 8q1 0 4 -1t4 -1q4 -1 18 -5t23.5 -8.5t13.5 -10.5l4 -7l21 -24q17 -20 29 -39q4 -4 4 -6q19 -35 26 -57q10 -29 13 -58v-6q0 -3 1 -5t1 -3q2 -2 2 -10q-2 -8 -2 -31q4 -25 -2 -39l-4 -94v-6q0 2 4 6l18 39q4 7 13.5 19.5 t13.5 19.5q3 3 8 13.5t8 14.5q4 5 17 30.5t24 48.5t10 22l6 8q3 7 13 10l2 2q16 16 32 25q2 2 15 2q9 0 54.5 -6.5t49.5 -10.5q22 -9 31 -39q11 -25 16 -86v-18q8 7 9 12q3 1 5 3t3 4t2 3l26 33q4 4 28 53t24 52l18 22q3 1 10 21l9 10q16 22 34 35q1 1 17.5 3.5t21.5 2.5 q1 0 2 -1t2 -1q30 -10 47 -27q27 -32 31 -78q0 -20 2 -26v-19v-16q2 -6 2 -31v-26v-37v-11q0 -29 -8 -65q0 -3 -2 -8t-2 -8l-12 -62q-1 -8 -5.5 -24.5t-5.5 -22.5q-8 -31 -8 -74q0 -30 -4 -84l-2 -14q0 -9 -6 -51q0 -9 -2 -120t-2 -116l-4 -49q0 -13 -4 -59q0 -5 -1 -15.5 t-1 -15.5q-2 -6 -2 -27q-5 -15 -5 -28v-66q0 -8 3 -22.5t4 -18.5q2 -2 2 -8q-2 -2 -2 -6q2 -2 2 -12q0 -4 1 -12.5t1 -12.5v-18q0 -1 -1 -4.5t-1 -4.5q0 -6 -2 -9t-6.5 -5t-6.5 -4h-2q-2 -2 -6 -2t-17.5 13t-19.5 20q-1 3 -11 7t-11 7q-24 33 -27 39q-9 21 -12 49q0 3 -1 5 t-1 5q-3 7 -8 45v7q-5 35 -5 43q-2 14 -2 38v66q-2 14 -2 45v6v39q0 16 4.5 120t4.5 120v4q3 37 10 63q4 14 16 82q6 9 6 17q15 44 25 178q0 3 1 7t1 7q0 1 1 23.5t5 33.5q0 3 2 11.5t2 16.5t-4 15l-4 19v6q-6 22 -27 43q-3 -6 -8 -6q-31 -70 -82 -135l-6 -4q-8 -14 -22 -31 v-2q-2 0 -2 -2v-4l-5 -8l-6 -13q-2 -2 -2 -10l-4 -10l-8 -66q0 -16 -2 -22v-17v-12q-1 -5 -1 -15t-1 -18.5t-4 -15.5q-4 -4 -4 -8q0 -1 -3 -12t-3 -17q-5 -19 -9 -55q0 -5 -1 -14t-1 -13q0 -1 -2 -3t-2 -3q0 -12 -2 -18q0 -5 -4 -9q0 -1 -1 -2t-1 -2q-9 -29 -61 -65l-17 -17 l-16 -12q-9 -12 -25 -2l-2 2v2v6q-4 22 2 37q2 0 2 8q0 4 2 4q0 13 6 19l7 39l4 63q0 21 2 29q0 17 2 31q0 16 2 22q3 13 8 66q2 18 2 57q-2 30 -2 54q0 35 4 55q2 14 -2 55q0 3 -1 8.5t-1 9.5q0 6 -2 8v13q-1 3 -10 26q-2 0 -4 -2l-6 -4q-25 -20 -31 -26q-11 -11 -46 -78 t-44 -90q-11 -26 -54 -88v-15q0 -31 -2 -47q0 -7 -2 -18.5t-2 -18.5q-2 -6 -2 -22q-2 -2 -2 -8v-9v-2v-43q0 -4 -1 -13t-1 -13v-13q0 -3 -1 -8t-1 -8v-33v-14v-18q-11 -65 -41 -160q-4 -18 -10 -29l-12 -31l-7 -12l-8 -24l-26 -48l-9 -16q-10 -19 -32 -29q-2 -2 -2 -4h-2 q-3 -3 -17.5 -11t-17.5 -11q-4 -3 -5 -5t-1 -3l-4 -5l-5 3q-14 6 -14 16z" />
<glyph unicode="N" horiz-adv-x="782" d="M-213 41q0 4 4 20q0 3 1 7l1 4q0 9 15.5 29t19.5 20q9 -3 18 6q3 0 7 4q0 2 2 4l12 -8q-12 -28 -17 -33q-4 -4 -4 -6l-8 -18q0 2 -6 -4l-4 -19q-3 -23 -2 -24q-2 -7 2 -33q0 -15 2 -19q0 -15 12 -47q2 -7 21 -18l4 -6q28 -25 55 -25q3 0 7.5 -1t7.5 -1q31 -4 43 0 q2 0 4 2q2 0 4 2l6 4l39 19q11 4 14 14q29 23 35 61l6 25q2 2 8 27q0 4 6.5 62.5t6.5 84.5q0 4 1 12.5t1 12.5q0 176 6 346v217q0 3 1.5 33.5t2.5 57.5t0 26v26q-1 7 -1 20.5t-1 20.5q0 1 -1 3t-1 3v2q-7 5 -26 23t-32 27q0 2 -4 2q-1 0 -3 1t-3 1h-2q-9 3 -10 4 q-10 10 -14 18q1 2 1 10.5t1 15t4 7.5l2 2h6q3 1 12 8t12 8h52h6q18 0 20 -2h2q49 -10 78 -22q6 -2 17 -17q4 -6 27.5 -33.5t27.5 -31.5l26 -37l64 -135q1 -2 16 -36t29.5 -66t17.5 -35q0 -2 19 -33t36.5 -66.5t14.5 -48.5q1 -4 6 -13.5t8 -15.5q0 -3 2.5 -10.5t5 -16 t3.5 -11.5v-2q0 -1 7.5 -18t8.5 -23q1 -4 32 -69t34 -81q4 -18 12 -35q4 -10 8 -36.5t12 -41.5l11 -12v4l-2 19l4 63q-2 6 -2 31q-4 15 -2 18v8v7q0 7 -1.5 79.5t-1.5 77.5q0 4 5 39v2q5 11 0 43v238q0 37 -2 55v39v18q0 15 9.5 121t12.5 111q0 14 2 16v8l2 33q0 4 14 42.5 t27.5 74.5t13.5 33l5 8l6 6q3 6 10.5 14.5t9.5 10.5l10 12q4 4 7 4l12 10q8 8 14 11q4 0 6 2q18 7 35 10q4 0 4 2h4q28 -4 31 -6q2 -2 7 -5t8 -5.5t3 -6.5v-2q1 -3 -6 -6t-18.5 -5t-22.5 -1l-8 -4l-18 -10q-15 -12 -31 -15q-21 -14 -31 -32q-25 -36 -43 -95q-6 -22 -10 -61 q0 -12 -15.5 -124.5t-15.5 -113.5v-26q-2 -18 -2 -62v-30l2 -29q0 -2 1 -113.5t1 -113.5v-50q-3 -12 -4 -25.5t-1 -30t-1 -25.5l4 -138q0 -16 1 -42.5t1 -41.5v-18q0 -10 -2 -12v-4q2 -10 3 -26t2.5 -27.5t5.5 -14.5l14 -10l10 -11l12 -10l5 -4l2 -2v-4q0 -14 -11 -18 q-1 0 -4 -3v-2q-12 -4 -21.5 -5t-49.5 9t-105 35q-5 4 -12 12t-8 9q-21 26 -23 31q-1 2 -29 67l-6 19l-12 24q-3 7 -8 23.5t-8 23.5q-4 4 -36 74.5t-32 75.5q-13 32 -16 45l-19 45q-3 4 -24.5 60.5t-30.5 74.5q-1 5 -16 39l-33 74q-9 27 -27 71q-52 73 -61 95q0 2 -4 6v-2 q-3 -13 0 -23v-84q-5 -13 -2 -29l1 -9q1 -9 -1 -9l-5 -215v-35q0 -4 -2.5 -73t-2.5 -119q0 -6 -1 -12q0 -46 4 -97l-4 -51l-6 -74q-3 -68 -16 -110q-2 -14 -15 -50q-12 -50 -55 -71q-3 -3 -9 -7.5t-9 -7.5q-38 -16 -76 -16q-3 0 -9 1t-9 1q-27 0 -33 2q-20 3 -29 12 q-6 3 -12 7.5t-21 17t-32 25.5q-3 3 -3 6l-6 8l-4 12q0 17 -6 47q-2 4 -2 19v16q1 8 -0.5 19t-1.5 16z" />
<glyph unicode="O" horiz-adv-x="792" d="M33 465v86q5 105 8 125q3 34 10 61l4 25l6 18q16 51 29 72q3 4 4 14.5t4 14.5q6 10 19 41l26 55q7 17 21 31q4 4 14 16t18.5 19.5t18.5 11.5q3 3 10.5 5t10.5 5q18 11 53.5 23.5t42.5 15.5h14q29 -2 41 -21q6 -9 -2 -14q-13 -7 -44.5 -55t-43.5 -72l-18 -31 q-3 -7 -10.5 -19.5t-10.5 -19.5q-1 -4 -4 -13t-4 -17q-2 -9 -12 -30t-11 -34q-3 -8 -7 -24.5t-7 -24.5q-3 -7 -6 -31.5t-6 -31.5q-1 -7 -4 -18.5t-4 -18.5q-3 -35 -3 -70q-2 -4 -2 -16q-4 -7 -1 -52.5t3 -52.5q0 -23 3 -47l14 -108l6 -23l6 -27q0 -7 6 -16q6 -10 11 -51 q3 -41 20 -88q2 -7 8.5 -48t14.5 -50q4 -5 15 -19t16 -19t15.5 -11t22.5 -7q8 0 28.5 -2t22.5 -2q41 0 72 31q15 21 21 33q36 89 38 94q6 19 15 28q4 28 18 87q3 38 10 65q3 11 7.5 32t7.5 32l6 32q8 37 10.5 106t3.5 85q1 12 1 25t-0.5 29.5t-0.5 27.5q0 20 4 82q0 5 1 17 t1 17q0 1 2 55.5t-2 55.5q-2 15 -2.5 53.5t-7.5 60.5t-26 40q-3 2 -9 7t-9.5 7t-10.5 4t-17 2q-4 0 -7 -1l-3 -1q-29 -6 -47 -37q-21 -34 -24 -76q0 -40 16 -61l6 -10q0 -1 4 -21l-14 -6q-23 32 -27 43q-11 21 -8 60q0 10 4 30q6 51 35 80q5 3 10.5 11t7.5 10q35 27 72 36 q8 3 15.5 4.5t13 2t15 -1.5t13 -3t15 -5t14.5 -5q9 -4 33 -28q12 -7 26 -25q14 -14 17 -31q0 -2 6 -26q4 -14 7 -30t6 -35t5 -30q0 -4 3.5 -24t3.5 -31q4 -86 4 -127v-61q0 -37 -9 -72q-1 -12 -1 -29.5t-1 -29.5l-6 -68q0 -7 -1 -20.5t-1 -20.5q0 -1 -2 -5t-3 -7 q-3 -12 -5.5 -32t-5.5 -32q-4 -24 -23 -92q-1 -4 -7 -23t-11 -28q-9 -27 -35 -74l-31 -51q-37 -53 -77 -88q-21 -21 -25 -27q-16 -25 -37 -28q-3 -1 -6 -4t-6 -4q-8 -5 -16.5 -7.5t-14 -3.5t-16 -1.5t-15.5 -0.5h-11q-32 -1 -76 9q-52 12 -95 40q-45 29 -63 64 q-2 4 -18.5 34t-24.5 48q-21 33 -37 82l-4 18q0 19 -2 25q-3 15 -8 42.5t-7 37.5q-6 21 -6 51l-6 28q-9 25 -6 54q0 8 -1 25t-1 26z" />
<glyph unicode="P" horiz-adv-x="780" d="M14 -215h2q4 0 4 2q11 3 11 4q6 3 6 8l2 4q6 13 10 35l4 29q3 7 8 47q0 8 3 20t4 17q0 2 4 18q0 11 2 13v8l4 24q3 12 5 34.5t5 33.5q4 20 15.5 128.5t11.5 129.5v47q-2 18 -1.5 36.5t1.5 35.5v4q0 24 4 86q0 23 2 29q0 4 1 14t1 18v25q0 19 2 27v24q0 29 2 45v19l-4 12 v24q-2 14 -2 43v21v10v2q-6 10 -6 43v17q-12 99 -27 155q0 11 -2 13v8l-2 2q-1 5 -8 26q-9 31 -25 56q-6 9 2 20q3 6 10 6q5 0 7 -2l16 -4q36 -26 49 -33q3 -3 19.5 -7t19.5 -7q2 -2 2 -4q36 -40 43 -61h2q0 1 1 3t1 3q4 4 8 12q3 4 5.5 11.5t5.5 10.5q2 2 2 5q17 28 67 65 q28 12 43 12l11 5.5t13.5 6t15 3.5t16.5 -2q12 0 14 -2h2h4q2 0 4 2q2 1 5 2l4.5 1.5t2.5 0.5q4 0 7 -1t4 -1h2h10l16 -4q26 -7 52 -19l49 -20q32 -14 57 -39q1 -3 4 -5t4 -5q7 -4 11 -11l2 -2q16 -13 22 -28q32 -76 36 -170q0 -60 -11 -125q-2 -2 -2 -17q-2 -4 -2 -20 q-4 -33 -9 -41l-6 -27q-3 -19 -12 -41q-3 -3 -6 -16q-3 -3 -5 -9.5t-5 -9.5q-3 -6 -7 -11t-10.5 -10.5t-9.5 -8.5l-29 -23q-3 -2 -18 -16t-35.5 -26t-44.5 -15q-1 0 -4 -1t-4 -1q-4 0 -6 -2q-14 -2 -43 -2h-9q-28 4 -45 7.5t-23 6t-16.5 9t-17.5 10.5l-2 2q-22 18 -35 34 q-7 6 -8 11q0 1 -1 2t-1 2t-1 3t-1 3t-1 3t-1 3q-13 15 0 45q2 0 4 2h6h4q10 0 10 -14q6 -49 41 -70q4 -2 27 -10q8 -3 26 -7t27 -7h17q19 0 47 4l4 2q16 3 24 16q10 7 13 19l6 14q20 58 22 65q4 16 2.5 45.5t1.5 42.5l17 113q3 24 3 47q0 48 -13 90q-12 41 -33 68 q-15 21 -37 43h-2q-8 8 -15.5 23t-15.5 22q-4 4 -6 4q-25 25 -49 31q-3 0 -10.5 1t-10.5 1q-23 0 -51 -12q-3 -1 -6 -3t-4 -2q-5 -3 -16 -7t-15 -7q-4 -4 -10.5 -10t-10.5 -10t-8.5 -9t-7.5 -10q-4 -4 -4 -8l-4 -8q-14 -32 -14 -51q0 -9 -2 -11t-2 -6q-3 -21 0 -39l2 -2 q5 -46 4 -59q-3 -15 -3 -41q0 -16 1 -35q2 -31 2 -92q2 -6 2 -31v-20v-117q0 -35 -2 -51v-39v-25q0 -1 1 -4t1 -4q2 -29 2 -56.5t-2 -53.5q-2 -14 -2 -39v-4q0 -46 -25 -250l-4 -23q-5 -39 -8 -47q-9 -43 -33 -100t-51 -84l-2 -4q-38 -38 -45 -43q-12 -4 -21 -13l-6 -6 q-3 -3 -6.5 -4t-7.5 -1t-6 -1q-2 -2 -6 -2q-11 0 -11 8q-4 16 -4 23q0 6 -2 8v2z" />
<glyph unicode="Q" horiz-adv-x="837" d="M41 608q3 66 12 127l17 70q7 19 19.5 57.5t19.5 57.5q9 23 43 77q12 20 61 78q12 17 37 31q4 5 26 27q3 1 6.5 4t6.5 4q19 9 48 28.5t40 26.5q37 21 65 21h7q19 -5 57 -5l7 -1q7 -1 11 -5l54 -26q28 -22 34 -25q12 -5 29 -22q5 -5 12 -13t13 -14t12 -10q8 -8 14 -11 l10 -10q8 -10 11 -20q35 -75 49 -113q4 -13 16.5 -43t16.5 -47q3 -22 14 -60.5t14 -54.5q11 -45 11 -65v-6q0 -8 1 -26t1 -30q1 -15 1 -29q0 -39 -6 -77l-20 -105q-1 -2 -4 -8.5t-4 -11.5l-49 -135l-6 -14t-6 -12.5t-7.5 -13.5t-7 -12t-8.5 -12.5t-8 -11.5t-9.5 -12.5 t-9 -11t-9.5 -12t-9 -11.5q-5 -9 -33 -37q-10 -14 -20 -21q-9 -6 -3 -20l23 -41l27 -41l51 -78q25 -38 78 -47q14 -2 37 -2q26 0 36 8q1 1 3 1.5t5 1t5 1.5q8 0 12 -4q2 -6 -2 -18q-21 -21 -35 -23l-53 -6q-8 0 -10 2q-7 0 -23 4q-12 1 -22 6t-23 15t-20 14q-3 0 -9 6 q-7 12 -18 32t-18 32q-6 6 -33 49q-13 20 -25 45q-1 2 -8 15.5t-12 19.5q-1 3 -4.5 4t-4.5 4q-59 -41 -92 -49q-15 -4 -61 -8h-39q-3 0 -7 -1t-7 -1q-4 6 -9 9.5t-14.5 6t-13.5 4.5q-7 5 -21 10q-6 0 -17 34.5t-11 51.5q-5 16 2 23q2 2 2 8q-2 13 12 31q1 3 4 5t4 5 q2 5 5.5 9t6 5.5t8 4.5t7.5 4q32 14 45 8h4q20 1 29 2.5t25 -6.5t23.5 -12.5t24.5 -16.5q40 -21 99 -76q8 6 18 21q7 8 11.5 24.5t11.5 24.5q5 10 8.5 28.5t7.5 26.5q10 37 14 60q3 16 5.5 32t5.5 31q6 34 10 88v23q4 27 4 70q0 29 -2 65q-3 14 -8 98q-13 101 -21 139 q-3 12 -7 37t-7 37q-1 3 -6.5 20.5t-10.5 26.5q-3 10 -6.5 42t-11.5 50q-2 6 -6 21t-8 24l-25 39l-12 11q-7 8 -15 19.5t-12 14.5t-12.5 6.5t-22.5 4.5q-3 0 -23.5 -3.5t-23.5 -3.5q-1 -1 -11 -3t-11 -3q-44 -44 -70 -88l-10 -20q-22 -50 -31 -62q-4 -4 -8 -16 q-3 -5 -7.5 -13t-6.5 -12l-23 -55q0 -4 -2 -6q-3 -17 -17 -47.5t-18 -42.5l-20 -78q-3 -9 -5 -28t-5 -27q-4 -21 -5 -58t-4 -55q0 -3 -1 -6t-1 -6q-4 -15 -4 -49q0 -23 2 -54q4 -46 4 -67q2 -14 2 -39q2 -8 2 -27q1 -11 13 -96q3 -22 12 -43q3 -7 5 -21.5t5 -21.5 q1 -5 2.5 -11t2 -9t2 -6.5t4 -7.5t6.5 -9q8 -19 14 -27q6 -14 0 -26q-3 -8 -10 -4l-17 6q-38 18 -59 53q-4 5 -18 21t-21.5 27.5t-11.5 23.5q-5 21 -24 59.5t-25 56.5q-17 87 -17 123q-3 52 -10 82q-4 26 -4 67q0 28 2 62zM319 133q-12 -31 7 -53q9 -12 12 -21q9 -22 31 -28 q45 -11 65 -11h6q10 5 23 5q44 8 92 43l-4 4q-44 44 -105 80q-30 19 -53 16q-22 0 -28 -2q-36 -3 -46 -33z" />
<glyph unicode="R" horiz-adv-x="765" d="M-29 999l6 27q6 23 27 61q4 4 4 7q4 4 4 8q4 4 6 10q9 21 21 37q35 42 48 56t37.5 32.5t61.5 36.5q1 0 13.5 7.5t28.5 15t30 10.5l25 4q6 2 26 2q9 0 28 1t28 1h6q33 0 114 -21q5 0 7 -2q85 -26 98 -39q5 -3 16.5 -10t14.5 -8q6 -6 12 -8q3 -2 8.5 -8.5t7.5 -8.5 q1 -3 2 -4t3.5 -2.5t4.5 -3.5l7 -4q36 -36 43 -57l12 -35q3 -4 5 -12.5t5 -12.5q3 -9 8 -51v-22q2 -14 2 -48v-10v-2l-2 -2v-6q-3 -49 -26 -100l-11 -21l-4 -8q-3 -3 -6 -10.5t-6 -10.5l-16 -24q-12 -19 -43 -55q-15 -15 -17 -19l-22 -16q-39 -21 -60 -27l-28 -12l-13 -6 l-8 -4l-12 -7h-2q-1 0 -2 -1t-2 -1q-2 0 -33 -8q21 -9 49 -37l19 -14l8 -8q31 -31 39 -49l12 -19l6 -12q2 -2 2 -6v-2l4 -8l6 -23q1 -4 7 -10l4 -12l2 -2l20 -60q2 -4 2 -18q0 -3 1 -5.5t1 -5.5q0 -4 2 -6q0 -6 4 -22q7 -32 15 -45l4 -12t4 -15q8 -17 10 -35q3 -4 5 -12 t5 -12v-4q3 -13 7 -17l2 -6q9 -15 32 -72q2 -4 9 -12q0 -2 2 -2q3 -5 8 -8q15 -21 37 -43l14 -12l8 -7q2 0 6 -4l7 -4q1 -3 2 -4t3.5 -2.5t4.5 -3.5h2l2 -2q4 -8 16 -10q2 -1 4.5 -2t3.5 -1.5t2 -0.5q11 -4 11 -7q0 -12 -8 -20l-17 -8q-2 -2 -14 -2q-95 0 -111 22 q-2 2 -24 15q-34 19 -47 32q-2 2 -20 30.5t-21 31.5q-4 7 -13.5 18.5t-13.5 18.5q-3 4 -6 12.5t-6 11.5q-1 2 -8 14t-18 31t-19 37q-16 37 -25 74l-12 37q-6 15 -9.5 29.5t-5.5 31t-4 25.5q-5 22 -17.5 65t-19.5 76q-3 21 -12 33q-20 31 -33 39q-10 8 -43 8q0 -2 -2 -4v-10 q0 -23 -2 -29v-8q0 -69 -4 -78q0 -6 -3 -103.5t-3 -103.5q-18 -181 -41 -237q-5 -16 -16.5 -62.5t-24.5 -75.5q-2 -7 -12 -20l-6 -12l-6 -13q-1 -4 -7 -10q-41 -53 -69 -70q-7 -6 -21 -15.5t-18 -14.5q-3 -1 -4.5 -2.5t-2 -3.5t-1.5 -3q-12 -4 -21 -4q-6 0 -8 2q-12 9 -4 23 q1 3 4 7t4 7q0 4 4 8v3l4 4q16 10 25 36q5 10 10.5 32.5t7.5 27.5l2 12q3 7 6.5 23t6.5 24q4 12 8 58l6 32l6 23q4 8 5 22t1 15q0 3 7.5 72t7.5 71v4q6 21 6 213q8 36 8 111q0 17 1 48t1 46q0 28 -4 82v6q0 29 -2 43q0 7 -2 20.5t-2 20.5q0 13 -1 37t-1 37q0 7 1 20.5 t1 20.5q0 10 4 14v29q2 6 2 30q6 78 18 99q3 3 19 24t20 25q6 4 21 18.5t28 22.5l15 10q13 1 17 -9.5t-3 -21.5q-7 -28 -8 -36v-13v-24q-2 -23 -2 -45t2 -43q0 -8 3 -22t3 -17q4 -28 4 -35v-7t0.5 -17.5t1 -29t0.5 -47.5v-67v-14v-4q0 -17 2 -21q3 -1 4 -2.5t0 -3t-4 -2.5 v-6q0 -3 2 -8.5t2 -8.5v-14v-2v-14q-3 -4 -3 -7.5t1.5 -8t1.5 -7.5q2 -2 2 -12h4h7h4q14 2 16 2l4 1q4 1 10 1l9 2q1 0 19 1t26 5q16 0 39 10q20 8 32 17l13 10l36 27q-1 0 5 6q2 0 2 2q32 47 41 80l6 22l22 96l6 58q0 23 2 33q0 49 -18 118q-2 2 -2 11l-2 2v2v2 q-3 4 -10 18q-2 7 -13 21q0 2 -2 4v2q0 1 -1 2t-1 2l-6 6l-4 4q-5 7 -24 22t-29 19q-1 0 -6 3t-6 3q-16 8 -34.5 13.5t-38.5 9t-37 5.5t-36.5 2.5t-31 0.5h-26.5h-14q-4 0 -8.5 -1t-10 -2.5t-9.5 -2.5q-33 -12 -66 -33q-3 -1 -9 -6t-9 -6q-70 -48 -107 -107q-3 -3 -7 -11 t-7 -11q-25 -36 -33 -82q-2 -9 -12 -19q-6 -6 -6 -10h-8h-2q-3 0 -3 2q-1 3 -3.5 6t-2.5 6z" />
<glyph unicode="S" horiz-adv-x="804" d="M6 242v18q0 33 17 86q4 18 8 23q4 16 10 22l8 20t10 22t9 20q3 3 5 8t5 8t5 9.5t5 10.5l14 13h2q3 1 5.5 3t5.5 3l6 4l12 4q16 0 19 -18v-4q5 -23 -9 -37l-6 -6q-3 -3 -5 -6q-2 -4 -5 -5q-32 -32 -39 -59l-6 -23l-10 -30l-6 -23q-1 -5 -6.5 -27.5t-4.5 -25t2 -27.5 q3 -4 5 -17.5t4 -31t2 -20.5q2 -6 6 -19.5t8 -21.5q0 -5 4 -9q10 -18 35 -53q34 -39 98 -76q21 -13 80 -26l16 -4q24 -6 43 -6q6 0 17 -0.5t17.5 -0.5t16.5 1t19 4q8 0 21 10q13 8 18 8q49 25 98 96l37 91q27 81 28 125q0 19 -3 38v2q1 23 -12.5 62.5t-14.5 44.5 q-1 4 -4.5 8.5t-3.5 5.5q-16 93 -109 234q-9 14 -77 139q-2 4 -12.5 23t-16.5 32q-26 94 -29 146q-2 12 2 34l4 19q10 58 38.5 103.5t47 60.5t56.5 41q5 4 8 6q45 22 96 22q15 0 21 -2q3 0 7.5 -1t8.5 -1q28 -4 60.5 -30t50.5 -56q11 -24 11 -48q0 -16 -5 -32q0 -21 -21 -69 l-2 -4q-3 -6 -6.5 -10t-7.5 -6.5t-6 -4.5t-9 -2q-14 0 -20 14q-6 18 4 35q6 7 8 11q1 3 3 5t3 5q0 1 5 6h-3q10 23 10 45q0 26 -14 51l-12 12q-11 13 -16 17l-29 12q-2 2 -10 2q-25 -1 -60 -31.5t-57 -64.5q-2 -4 -6.5 -15t-8.5 -20t-7 -10v-2l-7 -15q0 -3 -3.5 -16.5 t-4.5 -38.5q0 -12 2 -18q0 -3 1 -6.5t1 -6.5q8 -40 80 -163q32 -51 127 -185q21 -28 48.5 -91.5t33.5 -84.5l14 -41q19 -66 19 -125q0 -53 -15 -100q0 -6 -6 -18l-6 -19l-47 -100l-6 -6q-25 -36 -36.5 -51t-44 -44t-73.5 -51q-22 -10 -72 -21.5t-65 -11.5h-35h-4 q-2 -2 -8 -2t-8 2h-8q-44 4 -64 9l-14 4q-1 0 -3 1t-3 1l-13 4q-6 1 -14.5 4t-11.5 4q-13 2 -37 12q-7 6 -14 9l-15 6q-4 4 -6 4q-36 20 -68 49q-8 7 -14.5 14.5t-14.5 19t-12 17.5t-13.5 23t-12.5 22q-8 14 -14 35.5t-8.5 38.5t-6 43t-4.5 33z" />
<glyph unicode="T" horiz-adv-x="634" d="M-10 987q0 20 8 33q12 25 41 47l2 2q6 6 14 10q54 23 86 23h25q54 0 262 -29q15 -4 55.5 -8.5t85.5 -15.5q15 -2 47 -11l60 -16q13 -3 57.5 -10t44.5 -6q10 -1 20 -1q36 0 79 11q24 6 56 21q8 4 38 18q27 19 30 53q6 27 -10 49q-9 12 -33 29q-34 27 -38 39v2l2 1 q3 2 10 5q2 2 10 2h6q3 -1 5 -3t5 -3q17 -4 23 -10q26 -20 55 -70q2 -2 2 -8v-2q1 -9 1 -18q0 -34 -13 -56q-30 -50 -61 -59l-29 -11q-9 -5 -66.5 -15.5t-74.5 -10.5l-15 2h-16l-105 16q-6 0 -24.5 5.5t-40.5 8.5q-3 0 -12 2.5t-13 2.5h-6v-60v-28v-11v-22q0 -92 -19 -363 l-1 -12q0 -23 -2 -29q-2 -8 -7.5 -74.5t-10 -128t-7.5 -61.5q-2 -6 -2 -24q-4 -28 -4 -31q-1 -12 -23 -96q-9 -34 -43 -129q-3 -7 -4 -13.5t-4 -13.5q0 -3 -16 -26t-38.5 -49t-35.5 -32q-7 -3 -17.5 -9t-17.5 -9q-17 -8 -30 -25q-11 18 -11 25q-3 6 0 14t12.5 26t16.5 34 l2.5 7.5t2.5 8.5t1 8q3 8 8 41q0 5 4 25v4q4 19 27.5 100.5t26.5 124.5l4 43q1 16 7 60.5t7 60.5q6 69 6 74v30q2 40 13 111v12q2 4 2 17q0 237 10 278q2 2 1 31t-1 31q0 4 -1 7l-1 3v37q-1 9 -1 26t-1 21v12q-12 1 -31 7.5t-27 7.5q-20 4 -24 4q-5 1 -16 0t-15 0q-2 2 -8 2 q-36 8 -160 8l-22 -6q-45 -12 -56 -23q-9 -9 -17.5 -30t-8.5 -27q3 -10 10 -25q4 -7 10 -24q4 -4 4 -8q21 -21 45 -21q17 0 29 6q1 0 4 1t4 1q2 1 4.5 2t3.5 1.5t2 0.5q2 2 11 2q4 0 16 -4q6 -3 6 -10l-8 -8q-2 0 -6 -4q-7 0 -10 -6q-4 -6 -8.5 -9.5t-11.5 -7l-9 -4.5h-2 q-20 -4 -21 -4q-2 0 -18 4l-12 6q-10 4 -15 8q-17 9 -36 35l-9 6q-4 6 -16 37q-7 34 -8 37z" />
<glyph unicode="U" horiz-adv-x="755" d="M0 1108q0 6 6 12q13 13 23 13q3 0 6 -3q1 0 2 -0.5t3.5 -1.5t4.5 -2l29 -10q43 -15 51 -29q3 -3 16 -9t17 -9q17 -7 30 -20q2 -2 3 -4t2 -6t2 -8.5t3 -15t5 -20.5v-8q1 -2 10 -106q0 -8 1 -29t0.5 -36.5t-3.5 -31.5q0 -9 -5 -66t-5 -59v-22q-2 -15 -2 -31t2 -33 q0 -18 2 -26q0 -4 1 -13.5t1 -13.5v-33v-24q0 -17 2 -21v-18v-2q2 -23 2 -66v-16v-25q4 -49 8 -63v-25q1 -6 1 -19.5t1 -22.5t4 -13q0 -4 1 -6q1 -1 1 -2l17 -33q14 -25 32 -43q9 -15 39 -22q14 -3 17 -9l8 -4q28 -4 29 -4h2q17 0 46 25.5t44 46.5q3 3 7 11t7 11l8 11 q2 2 2 4l2 2v2q0 4 7 8q3 3 8.5 16t7.5 17q3 11 8 16q0 4 2 6v2q14 27 14 76q0 12 -2 16q0 3 -1 8.5t-1 8.5q0 4 -4 24t-2 33q-4 12 -4 56q0 56 3.5 227t8.5 194q0 4 1 13.5t1 13.5q0 7 1.5 18.5t1.5 18.5q0 3 1 7t1 7q0 9 10.5 48.5t17.5 43.5l6 15q1 2 17 24q10 11 14 21 q4 6 14 11t23 9.5t18 7.5q3 3 9.5 6.5t9.5 6.5q6 6 12 6q4 0 8 -4t4 -6q5 -5 5 -7t2 -4l2 -2l-2 -4q-9 -14 -13 -51v-10v-10q-1 -8 -1 -21.5t-1 -25t-4 -21.5q-14 -74 -14 -118v-11q2 -4 2 -59.5t-1 -122.5t-1 -68q0 -7 -2 -52t-2 -63q-2 -23 -2 -57q0 -16 2 -20v-19 q0 -13 2.5 -34t3.5 -27q4 -20 4 -27v-12v-6q2 -2 2 -9v-6q2 -4 2 -14v-12q2 -4 2 -17q0 -9 4 -37l6 -32q4 -20 4 -25q2 -4 2 -16v-11l7 -55q4 -30 12 -49l4 -20q0 -13 2 -15v-2q0 -4 2 -4q10 -31 8 -37v-2l-2 -2l-12 -4q-9 0 -12 6q-14 3 -27 19q-3 5 -13.5 14t-13.5 12 q-7 8 -28 25.5t-33.5 32.5t-15.5 30q0 1 -1 3t-1 3l-3 2v3q-19 42 -28 92q-1 7 -4 17.5t-4 17.5v6q-2 -2 -2 -4l-19 -37l-6 -13q-2 -4 -6.5 -15t-9.5 -17l-13 -15q-2 0 -4 -2q-4 -4 -6 -4q0 -2 -2 -2q-32 -32 -51 -47.5t-53 -27.5q-27 -10 -60 -10q-8 0 -16 1q-36 9 -62 23 q-3 1 -7 4t-7 4l-12 6q-16 9 -25 25l-14 22q-5 7 -24 26t-25 29q-9 15 -27 66q0 2 -4 14q-3 5 -5 14.5t-5 14.5q-11 43 -11 92q0 3 -1 9.5t-1 9.5v10q0 4 -1 13t-1 13q0 42 -2 60q-6 55 -6 106q0 86 2 133q0 11 4 39q0 4 1 12.5t1 12.5v6q0 6 2 45t2 47v72q0 42 -12 80 q-13 39 -39 73q-1 3 -4 5.5t-4 5.5v2z" />
<glyph unicode="V" horiz-adv-x="737" d="M-104 1038q1 12 16.5 19.5t28.5 7.5q7 0 33.5 -3t33.5 -3l6 -2q48 -4 76 -19q39 -20 66 -65l16 -23q3 -9 10 -16l31 -45l2 -4q32 -50 41 -78q16 -39 35 -107q7 -26 10 -63q6 -22 18 -61t15 -50q51 -180 55 -194q3 -7 6 -22.5t6 -22.5q2 -6 4 -17t8.5 -40t18.5 -70l6 -35 l13 -74q2 -16 10 -47q0 1 1 3t1 3q13 40 18 58q14 53 39 131l6 30q3 7 5.5 20.5t5.5 20.5q0 3 4 15q23 69 49 204q3 8 5 23.5t5 22.5q6 33 52.5 212t58.5 214v4q0 1 1 2t1 2q4 28 16 47q6 6 10 22l4 6q0 2 13.5 32t13.5 32q4 6 10 25l17 32l6 13l4 12l16 33q7 18 15 26 q27 39 34 45l29 31l17 8l22 6l21 9q4 2 16 2q1 2 8 1t8 -1q20 -4 25 -4l18 -9v-8q-5 -22 -69 -22q-45 -3 -72 -43q-39 -53 -70 -113q-7 -13 -27.5 -61t-25.5 -58q-3 -5 -7 -15.5t-7 -15.5l-2 -2q0 -10 -11 -36q-2 -2 -6 -17q-3 -5 -15 -55q-38 -155 -93 -369v-2l-6 -20 q-4 -7 -21 -99.5t-26 -105.5q-3 -8 -6.5 -26t-6.5 -27l-6 -23l-6 -29l-35 -108l-16 -62q-6 -12 -10 -32q0 -1 -1.5 -3t-1.5 -3q-6 -18 -6 -27q-4 -19 -14 -37l-2 -8q-1 -7 -11 -24t-12 -19q-4 -4 -11 -12.5t-11 -12.5t-13 -7t-20 -1q-35 6 -41 31q-3 8 -6 25.5t-6 25.5 q-4 34 -10 49q0 3 -1 7.5t-1 7.5q0 8 -2 10q-2 17 -11 37l-12 36q-14 46 -23 105q-2 15 -22 111q-7 49 -29 127q-47 156 -73 231q-1 3 -4.5 12t-4.5 15l-6 18q-7 19 -8 27l-12 36q-1 3 -4.5 13t-11 27.5t-21.5 45.5l-19 39q-14 22 -24 33q0 2 -4 6l-25 29l-22 16 q-15 15 -47 35q-3 3 -11 6q-3 1 -6 4.5t-6 4.5q-20 12 -20 34z" />
<glyph unicode="W" horiz-adv-x="954" d="M-10 1319q12 7 30 4q9 -3 31.5 -7.5t38 -10.5t25.5 -17q5 -7 22.5 -13t22.5 -13q45 -42 61 -72q25 -41 33 -64q8 -14 17.5 -39.5t11.5 -29.5q18 -62 24 -76q5 -15 10 -42.5t7 -35.5q2 -6 2 -29q1 -5 2.5 -14.5t2.5 -17.5t1 -15v-73q0 -47 -2 -70q0 -4 -1 -12.5t-1 -12.5 q-1 -17 -1 -32q0 -25 3 -43q4 -2 2 -30t-2 -30q-4 -70 -4 -106v-30.5v-42.5v-41.5v-29.5q1 -9 2.5 -14.5t1 -8.5t-3.5 -15l20 29l8 9q13 16 17 23q7 11 16 29t19 32q3 3 8 11.5t8 11.5l35 53q2 2 4 2q7 16 22 37q17 17 25 49q3 7 7 22.5t7 22.5q1 3 9.5 4t9.5 4h10q2 0 2 -6 v-26q-4 -12 -5.5 -26t-1.5 -23.5t0.5 -26t0.5 -23.5q0 -4 -2 -13t-2 -13q-1 -13 1.5 -35t2.5 -31q0 -12 2 -25t7 -29t9 -27t12.5 -31t12.5 -28.5t14.5 -31.5t13.5 -28q33 -88 44 -99q7 -7 17 -26.5t17 -26.5q0 5 1 11.5t1 8.5q0 8 -2 26t-2 26v49q-6 117 -6 133q0 12 3 81 t3 81q0 10 3.5 28.5t4.5 22.5q0 26 15 84q4 17 5 50t5 50q4 28 4 31v4q3 4 4 9.5t1 12t1 9.5l8 28q6 12 10 23.5t8 26.5t7 26q4 10 7.5 17t10.5 17t11 17q3 5 6 14t6 13q7 15 26.5 38t26.5 38q6 8 18 26t22 27t28 16q0 1 1 2.5t1 2.5q21 7 22 8q14 5 15 8q4 2 14 2 q0 -16 -3 -30.5t-11.5 -39t-9.5 -28.5l-19 -54q-7 -22 -19 -73t-22 -78q-4 -12 -6 -36.5t-6 -37.5q-5 -18 -10.5 -54.5t-6.5 -41.5l-16 -90q0 -19 -2 -25q-3 -12 -6 -35t-6 -36q0 -131 -8 -152q0 -3 -2.5 -10t-2.5 -10v-37q0 -109 -6 -150q-4 -34 -2 -51q3 -34 -2 -55 q-2 -21 -2.5 -25t2 -25.5t2.5 -25.5q0 -2 0.5 -6.5t0 -7.5t-1 -7t-3 -7t-6.5 -5q-8 -8 -16 -2q-5 5 -20 15.5t-21 19.5q-15 29 -84 98q-7 7 -34 56.5t-30 54.5q-4 5 -8.5 15.5t-7.5 14.5q-10 12 -18 26.5t-17 37.5t-12 29l-29 80q-7 11 -12 38q-4 9 -4 28.5v23.5 q-2 14 -2 43l-13 -15q-11 -19 -45 -67q-13 -15 -27.5 -41.5t-27.5 -42.5q-10 -13 -38.5 -51.5t-43.5 -57.5l-31 -45l-6.5 -13t-7.5 -14t-8.5 -12t-11.5 -12q-10 -7 -33 -39q-6 -8 -17 -16l-8 6v4q4 9 4.5 27t3.5 28q9 18 13 55q0 45 2 68q0 12 2 31t2 31q0 7 1 25t0.5 31 t-3.5 25l-17 113q-2 23 -2 62v92q4 46 4 57q3 18 0 33q-5 95 -8 117q-1 11 -5 29t-5 30l-16 98q-4 30 -2 45q0 28 -11 74q-28 119 -67 168q-6 8 -14 16t-18 17t-15 14q-3 2 -12.5 9t-14.5 12q-13 3 -10 16z" />
<glyph unicode="X" horiz-adv-x="886" d="M33 1171q3 9 8 9q14 3 22 0q9 -3 28 -7t34.5 -10t26.5 -16q2 0 6 -4q48 -14 78 -31l45 -33l26 -24q4 -4 51 -68.5t56 -73.5q7 -9 19.5 -27.5t19.5 -27.5q14 -21 32.5 -63.5t28.5 -59.5q4 -12 10 -20q11 14 27 43q17 49 31 65q3 3 6 12t6 13q38 69 51 106q17 44 53 86 l21 29q14 27 65 74q3 3 7 4.5t7 2t9 0.5t10 1q-1 -3 -1 -8t-1 -6q-4 -4 -11.5 -16.5t-15.5 -18.5q-6 -4 -11.5 -10t-12.5 -14t-12 -13l-19 -23q-7 -7 -13 -16.5t-14 -23.5l-12 -21q-13 -16 -16 -25l-14 -24q-4 -18 -18 -43.5t-15 -28.5q-17 -37 -39 -80q0 -1 -1 -3t-1 -3 q-4 -11 -13.5 -31t-13.5 -32q-5 -13 -6.5 -22t-5.5 -19q-1 -4 2 -29l45 -192q6 -26 10 -76q2 -15 6 -55t9 -62q3 -16 7 -33t9 -38t8 -33q6 -14 11.5 -35t10.5 -47.5t7 -36.5q4 -15 10 -29.5t15 -33t14 -29.5q13 -42 33 -76q14 -37 32 -70q0 -1 21 -37q8 -19 43 -39 q25 -14 -8 -26q-2 -2 -9.5 -2t-11.5 4q-6 4 -25.5 11t-27.5 15q-12 11 -35.5 30.5t-36.5 31.5q-37 35 -74 88q-2 3 -10.5 16t-15.5 25t-10 18q-5 16 -14.5 38.5t-14.5 37.5q-14 37 -34 106.5t-30 98.5q-6 22 -10 44.5t-7.5 60.5t-4.5 46q-3 14 -11 52t-10 49l-8 -10 q-7 -12 -14 -34t-14 -34l-29 -66l-4 -12q-18 -37 -40.5 -99.5t-27.5 -74.5q-1 -3 -11 -23t-15 -34q-2 -5 -6.5 -16.5t-9.5 -20.5t-11 -16q0 -6 -2.5 -12.5t-7 -14t-6.5 -12.5q-27 -58 -84 -115q-2 -1 -11 -10l-10 -11q-21 15 -6 33l41 51q2 3 23.5 34.5t31.5 47.5l41 92 q11 26 32.5 79.5t33.5 78.5q16 47 22 60q4 7 8 18t7 16q5 13 17.5 44.5t23 57.5t16.5 44v26q-18 55 -25 72q-30 89 -55 133l-33 68q-13 22 -21.5 48t-15.5 40q-3 6 -6.5 12t-7.5 12l-6 9q-20 28 -35 43q-73 112 -92 131q-7 8 -13 12.5t-16.5 10t-17.5 9.5q-1 1 -11 9t-17 13 t-11 5q-10 7 -8 14z" />
<glyph unicode="Y" horiz-adv-x="727" d="M6.5 1353q3.5 6 13.5 5q76 -4 101 -19q31 -17 43 -34q11 -11 33.5 -26.5t37.5 -30.5t21 -36q3 -8 3 -17t-1.5 -20.5t-1.5 -17.5t-1 -21.5t-0.5 -27t3.5 -21.5q4 -15 5 -33t0.5 -29t-2 -34t-1.5 -33q-2 -24 -2 -47q0 -53 10 -102q1 -8 2 -67.5t17 -82.5q6 -9 18.5 -16.5 t18.5 -13.5q4 -4 10 -4q17 0 61 14q16 7 27.5 16.5t16 16t20.5 28.5q4 6 14 29q4 5 0.5 28t-2.5 29q5 21 5 57q0 18 -1 40q-3 18 0 39q2 33 2 102v6l15 62l6 36q12 36 20 52l25 49q2 6 14 22q11 18 88 80q14 13 43 31.5t39 26.5q9 9 16 2q9 -9 5 -19v-14l-7 -12 q-26 -26 -39 -70q-3 -11 -12 -34t-12 -36q-3 -8 -5 -25.5t-5 -25.5l-6 -55v-23q0 -3 -2 -12t-3 -16q0 -1 -1 -4.5t-1 -4.5q2 -23 2 -59q-4 -105 -8 -133q-4 -29 -4 -131q0 -23 -3 -64t-3 -47v-88q0 -24 -1 -72t-1 -73q2 0 2 -2h-2q0 -3 -1 -5.5t-1 -5.5q-3 -16 -4 -45.5 t-4 -44.5q-6 -47 -9 -59q0 -12 -7 -36.5t-16 -51t-11 -33.5l-9 -22l-4 -13q-3 -4 -9 -29.5t-9 -29.5q-7 -7 -10 -16q-4 -12 -4 -13q-3 -14 -31 -59q-25 -70 -51 -107q-17 -28 -54 -57q-22 -22 -90 -57q-7 -3 -17 -9.5t-17 -9.5q-12 -5 -56 -20q-5 -2 -25.5 0t-27.5 6 q-62 21 -90 72q-27 52 -35 106q-2 12 -2 27q0 31 10 73q9 38 39 88v3q6 10 19 34.5t22 38.5l31 54q35 59 53 77q7 7 14 21q4 8 14.5 20t14.5 17l21 18q10 10 26.5 28t29 30t30.5 24l39 27q5 5 14 8q5 5 9 -9l1 -3q0 -4 -0.5 -7t-2.5 -6t-3 -4l-5 -5l-5 -5q-22 -23 -54 -47 q-22 -18 -28 -31q-10 -8 -18.5 -18.5t-19 -25t-15.5 -21.5q-11 -9 -21 -21t-16.5 -20t-17 -23t-15.5 -22q-9 -13 -20.5 -34.5t-16.5 -29.5q-2 -5 -31 -51l-6 -14q-2 -4 -15.5 -27t-17.5 -31l-18 -47q-8 -23 -8 -47q0 -37 18 -76q10 -29 12 -31q7 -12 11.5 -22.5t13.5 -22.5 q3 -3 12.5 -8t12.5 -8t15 -7t13 -7q13 -11 29 -7.5t26.5 9.5t26.5 20q6 4 16 19t13 18t4 8t4 8l6 5q7 11 11.5 33t11.5 34q6 11 20 43q2 12 13 23q3 3 8 22q4 4 5 13t1 10l8 28l16 58l21 57l18 66v6q10 43 13 74l12 79l4 37h-2v4q0 11 2 13q3 14 4 29t1 34t1 29q3 15 3.5 49 t4.5 53v35v41q-3 22 -9 20l-3 -2q-15 -19 -20 -22l-13 -10q-21 -21 -59 -35q-3 -3 -21 -7.5t-26 -9.5q-6 -3 -12 0q-31 13 -41 19q-36 22 -56 39q-37 29 -61 65q-5 8 -13.5 24.5t-13.5 24.5q-5 6 -8.5 13t-5.5 13t-5 16t-5 16q-7 20 -11 67q-1 13 3.5 38.5t3.5 37.5 q-3 13 1 36.5t1 37.5q-1 5 0 18.5t0 20.5q-1 6 -2 12.5t-2 11t-1 7.5q0 4 1 13.5t0.5 16.5t-3.5 13q-3 8 -5.5 25.5t-6.5 27.5q-22 68 -31 82l-38 53l-15 18q-5 8 -1.5 14z" />
<glyph unicode="Z" horiz-adv-x="778" d="M-6 -78q4 11 14 19q8 7 25 21.5t29 26t22 25.5q14 28 61 107q42 60 60 104q39 67 59 137q11 46 23 76q6 17 16.5 52.5t18.5 54.5q7 17 17 49.5t17 48.5q3 11 13.5 42.5t15.5 49.5q6 16 18 49.5t19 51.5q5 11 12.5 30t14 33.5t12.5 28.5q7 14 10 18q22 29 33 55 q-7 -1 -17.5 -1t-17.5 -1q-11 0 -56 7.5t-46 7.5q-29 5 -41 10q-57 23 -76 27q-31 10 -54 10q-10 0 -18 -2q-20 -2 -59 -12l-31 -17q-14 -5 -25.5 -22t-7.5 -33q6 -21 -16 -33q-15 11 -16 14t2 17q4 14 18 57q15 36 70 64q9 5 20.5 6.5t19 1.5t21 -2t19.5 -2q8 0 23 -3 t17 -3q4 -1 33.5 -9.5t44.5 -13.5q9 -3 27.5 -8t26.5 -8q42 -15 74 -15h7q11 1 35 0t37 0q5 1 15.5 1t17.5 1q14 3 40 5.5t40 5.5l55 18q8 1 29 10q11 5 16.5 0.5t1.5 -14.5q-1 0 -5.5 -7t-10.5 -15.5t-8 -10.5q-29 -33 -39 -63l-17 -33q-23 -29 -37 -55q-7 -9 -17 -29 t-17 -29q-6 -9 -14 -29.5t-9 -23.5l-41 -92q-3 -10 -6 -28.5t-6 -28.5q-2 -9 -9.5 -47t-13.5 -58q-11 -41 -28 -72q-26 -53 -47 -112q-3 -7 -10.5 -19.5t-10.5 -19.5q0 -1 -11 -23.5t-16 -36.5q-3 -13 -10 -22q-2 -2 -4 -8q-2 -4 -6.5 -18.5t-9.5 -22.5q-1 -3 -23 -41 q-9 -14 -41 -72q-2 -3 -7 -14.5t-6 -14t-5.5 -10.5t-6.5 -11t-6.5 -9t-9.5 -10.5t-12 -10.5l-6 -8q9 3 21 3q22 0 55 -11q32 -8 47 -12.5t28.5 -9.5t21.5 -8.5t32 -14.5t53 -23l88 -43q42 -18 80 -18q18 0 35 4l67 12q1 1 10 4q51 0 101 37q12 7 28 -2q-18 -51 -77 -78 q-23 -12 -86 -24q-44 -6 -57.5 -5.5t-57.5 9.5q-13 5 -38.5 13t-37.5 13q-10 5 -43 24.5t-55 27.5q-44 14 -62 23.5t-51 17.5q-42 14 -69 14q-11 -1 -31.5 1t-32.5 1h-141q-19 0 -23 -2q-12 -6 -18 8z" />
<glyph unicode="[" horiz-adv-x="663" d="M170 -33q0 8 2 26t2 27q0 8 1 26t1 30q-4 7 0 110l4 95q0 16 5 115.5t5 107.5q0 9 -2 28.5t-2 28.5t-1 28.5t-1 28.5q0 8 -2 27t-2 27q4 12 9 197t14 194q0 12 1 29.5t1 25.5q3 65 -6 111l-11 82q0 7 9 2q3 -2 5 -3t6 -2t7 -1q27 -3 40.5 -3t29 2.5t18.5 2.5q46 0 103 8 q12 3 49 -1t53 -1q10 -4 16 -20t6 -29q0 -2 -11.5 -2.5l-34.5 -1.5t-44 -5q-2 0 -31 -1t-49 -5v-4q-5 -25 -2.5 -54.5t8 -67.5t5.5 -42q0 -10 -5.5 -230t-5.5 -224v-62q0 -29 -6 -53q0 -19 -5.5 -71.5t-10 -96t-2.5 -49.5q-6 -27 -10 -93.5t-4 -90.5q0 -5 1.5 -14.5t1.5 -17 t-3 -13.5q0 -5 1.5 -15.5t1.5 -18.5t-3 -14q58 3 77 3q28 0 45 4q86 17 86 3q0 -2 -2 -8q-2 -5 -2 -8q-3 -49 -22 -49q-17 5 -58 0.5t-43 -4.5q-33 -6 -67 -8q-20 0 -37 -1t-33 -1q-20 0 -36 -3t-31 -3q-3 1 -8.5 3t-8 3.5t-6 3.5t-5 5t-1.5 7z" />
<glyph unicode="\" horiz-adv-x="997" d="M12 1079v6q0 18 13 48h2v2q6 7 11 13t7 9t4 5.5t3 3.5t3 1l27 9q17 6 33 6h4q19 -2 34.5 -2.5t22 -0.5t12.5 -3q1 0 2.5 -1t3.5 -2t5 -2q4 -1 43 -14l20 -10q16 -2 35 -21l10 -8l21 -12q3 -5 8 -8q15 -19 24 -31t11.5 -16.5t4 -8t4.5 -7t11 -11.5q39 -84 53 -104 q0 -4 5 -9v-2l26 -43q33 -66 33 -71q6 -9 6 -19l8 -31q9 -25 16.5 -47.5t13.5 -38t10.5 -28.5t8 -21.5t6 -15.5t4 -10.5t2 -6t1 -4t0.5 -2.5l2 -10l6 -14q4 -16 4 -19q7 -22 14 -42t10 -29l6 -18t5 -17q18 -42 31.5 -75t18 -46t8.5 -21.5t7 -13.5q3 -4 5 -9.5t5 -13l5 -12.5 q11 -25 19.5 -47.5t12.5 -35t7 -21.5t4 -11.5t2 -0.5v-2l18 -29q3 -7 10.5 -19.5t10.5 -19.5q2 -2 4 -8q7 -20 8 -21q16 -39 31 -77.5t21.5 -56t8.5 -19.5q31 -72 33 -74q8 -17 41 -41q4 -4 8 -4l13 -4q2 0 4 -2q0 -2 2 -2l4 -12l-10 -11l-7 -2q-17 -3 -29 -7t-17 -5.5 t-7 -1.5h-10h-2h-4h-41q-4 0 -6 2q-26 12 -51 36.5t-27 33.5q-18 27 -23 43q-35 84 -64.5 154.5t-44.5 106.5t-26 62t-14.5 34t-3.5 9l-2 2l-6 13l-23 59l-14 29q-11 15 -13 20q-92 238 -96 242q-65 198 -65 209l-7 12q0 4 -1 6q-1 1 -1 2q-27 69 -30 72q-7 7 -11 15 t-6.5 18t-5.5 16l-24 35l-23 43l-18 6q-4 2 -11 2l-16 4h-4q-10 2 -24 4.5t-20 4t-15 4.5t-19 8l-43 12q-34 6 -48 17.5t-26 41.5zM50 1104.5q0 -1.5 0.5 -2t0.5 -1.5v-1v-6v-2q2 -18 25 -35q12 -12 24 -15l41 -14q62 -8 75 -16h1l16 -4l-8 16q-20 30 -24 43q-8 11 -25 41 q-4 6 -12.5 11.5t-11.5 8.5l-15 13q-45 8 -55 0q-6 -5 -11 -9.5t-8.5 -8t-6 -6.5t-3.5 -5l-2 -4t-1 -3.5z" />
<glyph unicode="]" horiz-adv-x="624" d="M92 -8q0 2 11.5 2t34.5 1t44 5q2 0 31 1t49 5v4q5 25 3 54.5t-7.5 67.5t-5.5 42q0 10 5 230.5t5 224.5v61q0 29 6 53q0 19 5.5 71.5t10.5 96.5t3 50q4 30 9 101t5 83q0 5 -1.5 14.5t-1.5 17t3 13.5q0 5 -1.5 15t-1.5 18t3 14q-39 -2 -78 -2q-28 0 -45 -4q-86 -17 -86 -4 q0 2 2 8q2 5 2 8q3 49 23 49q17 -4 57.5 0t42.5 4q41 7 68 9q18 1 35 1t34 1q15 1 33 3.5t35 2.5q2 -1 8 -3.5t8.5 -3.5t6 -3.5t5 -5.5t1.5 -7q0 -8 -2 -26t-2 -27q0 -8 -1.5 -25.5t-1.5 -29.5q4 -25 0 -111l-4 -94q0 -16 -5 -115.5t-5 -107.5q0 -9 2 -29t2 -29t1 -28.5 t1 -28.5q0 -8 2 -26.5t2 -26.5q-4 -12 -8.5 -197t-13.5 -194q0 -12 -1 -30t-1 -26q-3 -65 6 -110l10 -82q0 -8 -8 -3q-3 2 -5 3.5t-6 2.5t-7 1q-27 3 -41 3t-29.5 -2.5t-18.5 -2.5q-45 0 -102 -8q-12 -3 -49 1t-53 1q-10 4 -16.5 20.5t-6.5 28.5z" />
<glyph unicode="^" horiz-adv-x="851" d="M324 1286q1 3 13 3t15 3q1 0 2 0.5t3.5 1.5t4.5 2l5 2l12 2q1 0 5 3t7 4q1 1 4.5 2t5.5 2q5 3 10 8l8.5 8.5t13 16t16.5 20.5q6 3 11 24.5t7 24.5v2q3 3 7 11.5t7 11.5q2 4 6.5 2.5t6.5 -0.5q8 6 16 -2q4 -4 6 -11v-6l8 -20l8 -17l9 -22q5 -14 32 -41q15 -9 35 -6 q9 0 2 -29q-1 -4 2 -9.5t2 -8.5q-6 -13 -14 -13q-9 -3 -18 0q-17 0 -21 2q-10 6 -35 31q-3 3 -6 8.5t-6 8.5t-6 9t-6 9t-4 6t-4 6l-5 8q-2 1 -8 3h-4q-3 -7 -6 -7q-1 -2 -4 -7t-4 -11q0 -3 -9 -9t-10 -9q-3 -9 -43 -33q-5 -4 -23 -7t-22 -6q-2 1 -12.5 6t-16.5 10.5t-3 12.5 z" />
<glyph unicode="_" horiz-adv-x="1089" d="M135.5 -335q-1.5 5 4.5 10t20 10q18 3 62.5 1.5t91 -1t46.5 5.5q34 1 71 2t58 1.5t40.5 0.5t29.5 -1t14 -3h27q29 0 108.5 -2t119.5 -2.5t71 2.5q29 4 31.5 -10t-8.5 -44q-2 -3 2.5 -9.5t8.5 -12t-0.5 -10t-21.5 -4.5h-256h-82h-69q-142 6 -332 0q-39 0 -12 49 q-3 0 -8.5 2.5t-10 6t-6 8.5z" />
<glyph unicode="`" horiz-adv-x="380" d="M135 1376l4 19q0 12 14.5 30t26.5 25q4 1 5 0.5t4.5 -7.5t5.5 -9q1 -2 6 -9q4 -12 8 -16q1 -3 5 -9t5 -9l11 -22t10 -23q5 -10 10 -15q-1 -4 10 -23t12 -26q2 -5 -1.5 -10.5t-8 -9t-12 -8t-8.5 -5.5q-11 -4 -15 0q-7 7 -10 15l-27 24q-36 36 -38 39q-3 3 -4.5 7t-4.5 7 q-4 12 -4 17q-4 12 -4 18z" />
<glyph unicode="a" horiz-adv-x="788" d="M118.5 428q-0.5 6 1.5 26t3 33q0 74 35 146q6 14 10 25.5t5 15.5t5 10.5t9.5 12.5t19.5 20q4 3 13 14t13 14q7 3 18.5 11.5t18.5 11.5q39 17 68 25q34 9 57 -9q12 -7 20.5 -11t20.5 -11q4 -3 14.5 -12t18.5 -13l8 -4q4 4 4 6q10 18 21 43l6 11q16 15 29 26q21 17 61 27 q15 6 44.5 4t51.5 -8q18 -9 21 -23t-8 -22q-24 -14 -54 -58q-10 -15 -22 -57q-3 -8 -7.5 -27.5t-7.5 -27.5v-4q-8 -27 -10 -57.5t-4 -39.5l-10 -77q-1 -10 -2.5 -19.5t-1.5 -23.5l-4 -117q-1 -12 -1 -24q0 -43 9 -77q2 -6 4 -17.5t5 -21t9 -16.5q11 -11 23 -16q3 -3 16 -6 q4 0 9.5 -0.5t9 -1t8.5 0.5t10 5q44 39 66.5 68t42.5 68.5t34 61.5q3 9 12.5 32t14.5 36q7 25 18 50.5t27.5 60t22.5 47.5l32 -15q-3 -12 -8.5 -25.5t-13 -30t-10.5 -24.5q-23 -75 -68 -153q-66 -125 -77 -142t-68 -81q-10 -24 -39 -31q-6 -2 -26.5 -12t-33.5 -11l-8 -4 q-16 -8 -37 -8q-15 0 -32 4l-37 14l-21 19l-14 18q-8 10 -12.5 30.5t-10.5 31.5l-10 12q-8 11 -18 8q-31 -10 -93 -10q-12 -1 -21 1t-14.5 4.5t-16.5 8l-19 9.5q-17 7 -60 41q-22 18 -32 32t-14.5 30.5t-8.5 23.5q-6 12 -10 32q-3 13 -1 40.5t-1 43.5q-2 27 -2.5 33z M266 430q-1 -18 -2 -35q0 -41 8 -76q1 -3 2.5 -17.5t3.5 -27t5 -16.5q7 -7 11 -20.5t11 -20.5q42 -31 84 -39q18 -5 21 -4q14 3 10 14q-4 9 0 37q4 8 1.5 53.5t-1.5 55.5q4 13 4 34v25q7 28 8 35l6 39l4 51l4 41q0 51 9 92q4 24 3 29t-14 25q-2 3 -16 14q-17 17 -25 22 t-28 11q-11 0 -17 -9q-14 -17 -21.5 -46.5t-14.5 -43.5q-4 -8 -9.5 -27.5t-7.5 -25.5l-18 -65q-17 -43 -21 -105z" />
<glyph unicode="b" horiz-adv-x="671" d="M-35 -268q9 14 12 28q0 12 13 25q16 19 22 49q3 12 6.5 31t6.5 31q4 31 6 34q9 24 22 111l13 74l4 47q3 13 6 39t6 39l4 32q3 20 7 61.5t7 61.5q7 40 7 78q0 13 -1 25q0 14 -2.5 40t-3.5 37v-2q0 4 -1 9t-2.5 11t-2.5 9q-2 14 -2 41v2v8q0 15 -2 21q-9 14 -2 31v6 q-1 11 -4 29t-4 30q-1 17 -1 32q0 61 13 95q2 4 2 18q5 97 8 117l7 76l4 76q2 8 4.5 25t6 29.5t9.5 23.5q13 35 51 65l2 2l8 1q7 1 11 5q3 10 10 13l53 43q4 3 14 6t15 6q8 5 18 2q25 -9 35 -12.5t20.5 -9.5t12.5 -8.5t12.5 -14t20.5 -21.5q12 -19 14 -36q10 -30 10 -58 l-6 -59q0 -8 -2.5 -20.5t-3.5 -16.5q-2 -8 -4.5 -21t-5 -23t-6.5 -18q-3 -3 -4 -6t-1 -6.5t-1 -5.5q-3 -10 -8 -34.5t-11 -37.5t-13.5 -43t-17.5 -47q-5 -9 -11 -23.5t-12 -25t-14 -18.5q-4 -4 -7.5 -8.5t-7 -10t-5.5 -8.5q-22 -22 -37 -43q-4 -4 -4 -12q0 -29 2 -43l6 -51 q0 -3 -1 -7.5t-1 -7.5q-4 -12 -4 -16l4 -103q0 -2 2 -4q2 1 13 7t16 12q4 8 16 16t15 12q3 3 10.5 5.5t11.5 5.5q18 4 27 10q11 8 26 10q16 7 35 7q31 0 66 -19q28 -20 43 -35q17 -15 37 -51q1 -2 2 -5l1.5 -4.5t0.5 -2.5l6 -107q0 -4 1 -27t1 -26q0 -2 2 -2q36 29 90 125 l35 57q6 14 14.5 28.5t19.5 31l15 22.5q6 3 14 14q-1 -2 -2 -5l-1.5 -4.5t-0.5 -2.5q-1 -10 0.5 -20.5t1.5 -20.5q-6 -12 -11.5 -19t-7.5 -12t-5 -22q-4 -12 -42.5 -70.5t-39.5 -60.5q-4 -5 -16 -23t-25 -33t-31 -30q-8 -8 -8 -17v-77q0 -29 -21 -76l-30 -54q-1 -3 -29 -47 q-20 -27 -82 -73q-20 -12 -43 -12q-17 0 -35 6q-12 5 -30 16t-29 2l-2 2q4 9 0 37q-4 10 -4 21q0 20 14 44q9 11 25.5 34t25.5 34q13 23 27 37q2 3 16 14q12 8 15 19q4 36 4 53q0 34 -4 112q0 26 -6 50q-12 61 -21 86q-3 5 -7 15t-7 15q-9 21 -31 9q-19 -8 -35 -31 q-26 -26 -41 -31q-3 -19 -3 -41q0 -13 1 -28q0 -17 -2 -19q-8 -24 -12 -90q-2 -21 -6 -73t-8 -83q-10 -101 -29 -188q-3 -15 -7 -46t-7 -46q-12 -46 -23 -60q-13 -18 -35 -34l-72 -52q-13 -13 -40 -20q-19 -7 -50 8q-17 8 -8 29zM248 897q4 -45 8 -61q0 -3 1 -7.5t1 -7.5 q6 4 10.5 8t10 11.5t6.5 9.5q3 4 10.5 16.5t13.5 18.5q16 20 31 71l8 17q20 71 27 100q13 54 20 70l4 12q0 3 4 19q7 22 7 49q0 31 -9 67q-23 44 -39.5 59t-39.5 13q-24 -10 -27 -19l-16 -43q-17 -45 -19 -83q-1 -9 -1 -25.5t-1 -30.5t-4 -26q0 -7 -1 -20.5t-1 -20.5 q0 -37 -4 -115v-23v-59zM322 10q0 -18 20 -12q30 15 43 33l6 12l19 59q4 27 0 37q-6 -6 -16 -15t-13 -13l-47 -68q-12 -20 -12 -33z" />
<glyph unicode="c" horiz-adv-x="626" d="M59 510q0 112 7 119q1 4 1 9.5t1 8.5q6 21 28 72q8 11 25.5 30t19.5 21q8 5 18.5 18t12.5 15q14 19 23 24l84 56q1 0 3 1t3 1q42 6 59 6q19 3 47 0q68 -12 101 -31q48 -42 49 -43q10 -16 14 -41q6 -18 6 -36q0 -23 -10 -46q-2 -6 -3.5 -8t-2.5 -3t-5.5 -4l-7.5 -5 q-16 -21 -24 -23q-23 -6 -43 4.5t-25 28.5q-4 8 -6 25q0 9 -1 31.5t-1 31.5q-1 9 -12 32t-17 30q-10 10 -18.5 14t-21.5 5t-19 3q-27 3 -51 -18q-11 -11 -25 -43l-12 -37q-2 -7 -8.5 -37t-11.5 -45q-9 -34 -9 -74q-4 -21 -4 -43.5t4 -46.5q0 -37 15 -84q9 -42 26 -66 q25 -48 58 -81q16 -21 81 -35q35 -8 64 -8q25 0 45 6q50 17 66 28q8 10 41 55t51 64q18 30 33.5 60t37 75t29.5 60q3 17 21 48.5t22 45.5h6q4 -1 13.5 1.5t13.5 -1.5q-5 -15 -24 -53.5t-23 -55.5q-3 -15 -7.5 -22.5t-7.5 -18.5q-7 -27 -39 -77t-40 -74q-20 -28 -39.5 -56 t-28.5 -41t-17 -24t-14 -16q-15 -15 -51 -37q-6 -2 -10 -6q-4 -3 -12 -9.5t-15.5 -11t-17.5 -8.5l-55 -20l-127 -9q-11 0 -13 2q-3 6 -14 11t-14 8q-1 2 -15 6q-4 2 -15 4.5t-17 6t-11 9.5q-2 2 -4 2q-17 8 -32 20t-33 30t-27 26q-1 2 -6 15l-15 24q-13 39 -22 55 q-18 53 -21 68t-3 45t-1 37z" />
<glyph unicode="d" horiz-adv-x="671" d="M66 375.5q2 28.5 2 34.5v26q0 7 2 23.5t2 23.5q4 14 5.5 70.5t10.5 75.5v2q2 0 2 2q6 17 14 33.5t18 35t15 29.5q19 34 45 60q5 5 10.5 10t8 7.5t6 5.5t7 4.5t9 3t13.5 3.5q8 1 19.5 5t12.5 4q9 3 34 -0.5t30 -2.5h6q41 0 70.5 -19t31.5 -19q-1 10 -1 23q1 35 7 88 q8 72 9 95l-37 23q-6 4 -11 9t-8.5 9t-8.5 11t-7 10.5t-7 12t-7 11.5q-6 27 -29 64q-3 5 -7 19t-7 20q-2 0 -2 2v4q-6 4 -13.5 20t-7.5 21q0 7 -8 59q-1 12 -1 24q0 53 15 94q18 50 37 69q16 32 55 47l35 12q36 3 56 -8q9 -6 20 -6q12 -3 26.5 -15.5t22.5 -15.5q-2 -9 2 -18 q13 -18 15 -29q13 -63 20 -109q1 -11 4 -38t6.5 -44.5t9.5 -35.5q1 -6 1 -14.5t-0.5 -19.5t-0.5 -16q0 -88 -4 -114v-72q0 -76 -2 -115q-3 -82 -12 -165q0 -13 -1 -37t-1 -35q0 -26 -4 -31q-3 -12 -3.5 -25t0.5 -31.5t1 -27.5q0 -86 2 -127v-143q0 -47 4 -58q3 -27 12 -57 q2 -2 2 -6q1 -14 5 -29.5t7 -23.5t12.5 -27t10.5 -22q0 -1 1 -4q3 -10 5 -10t4 5q8 20 29.5 53.5t22.5 36.5q13 34 14 46l10 24q3 14 12 37t13 35q8 26 35.5 125.5t35.5 126.5q3 18 17 46t18 42h6q12 -2 31 -8q-4 -15 -18.5 -46t-18.5 -49q-3 -14 -24.5 -86.5t-24.5 -83.5 q-22 -80 -47 -151l-29 -80q-5 -20 -28.5 -59t-28.5 -56q-2 -5 -25 -43q-10 -24 -36 -32q-5 -1 -5 -1.5t-8 -1.5q-2 -1 -6.5 -4.5t-9.5 -3.5h-2h-2q-2 1 -6.5 1.5t-9.5 2t-9 4.5l-12 9q-2 -2 -6 -2l-31 30q-3 2 -17.5 38t-19.5 42q-6 9 -10 27q-6 18 -13.5 51.5t-9.5 40.5 q-6 21 -6 45q-2 6 -2 27q-10 -7 -25 -23t-27 -26.5t-22 -10.5q-26 0 -45 -8h-16q-15 0 -27 4q-23 0 -43 10q-4 4 -14.5 8.5t-13.5 6.5q-20 3 -39 22q-20 14 -60 70q-22 22 -24 45v2q-10 16 -13 32t-1 44.5zM246 426q-1 -11 -1 -22q0 -68 36 -148q11 -27 61 -47q14 -5 27 -5 q27 0 49 21q10 6 12 9t0 14q0 11 -2 34.5t-2 36.5v21q0 23 10 53q0 2 0.5 8.5t0.5 12.5t-1 10v47v2q0 2 2 4q0 5 1 17.5t1 19.5t2 23t2 24v12q-4 5 -4 29v152q-20 39 -88 39q-4 0 -14 -5q-3 -2 -7 -4.5t-6.5 -3.5t-4.5 -4t-3 -8q-6 -11 -11.5 -24t-11.5 -27.5t-9 -22.5 q-15 -56 -17 -63q-13 -51 -14 -60q0 -7 -2 -25t-2 -26q-4 -62 -4 -94zM332 1358q-6 -22 -6 -43q0 -25 8 -49v-13q17 -51 18 -53q34 -61 39 -72l19 -43q9 -32 47 -51q0 27 4 39q0 21 1 57.5t1 55.5q4 15 4 65q0 28 -4 37q0 28 -10 66q-14 25 -17 49q-2 5 -4 11.5t-3.5 10 t-4.5 7.5q-1 5 -3 9t-5 7.5t-4.5 5.5t-6 5l-6 4t-6.5 3.5t-6 3.5q-5 2 -6 2.5t-6 -2t-6 -2.5q-19 -34 -23 -45q-1 -17 -14 -65z" />
<glyph unicode="e" horiz-adv-x="544" d="M41 385q2 31 2 88q0 46 14 107q6 18 14 37.5t17 41t14 33.5q4 10 9.5 18.5t13 17.5t10.5 13q6 5 17 19q3 6 13 12.5t13 9.5l15 13q65 49 108 59q24 4 47 4q54 0 105 -24q28 -18 43.5 -46t11.5 -59q-3 -47 -19 -90q-15 -35 -22 -45q-17 -24 -53 -62t-62 -59 q-31 -31 -57 -47q-44 -41 -72 -55l-20 -9q5 -11 4 -23.5t6 -23.5q3 -3 4 -9t4 -9q12 -36 48.5 -69.5t70.5 -37.5q11 -1 21 -1q33 0 59 10q33 13 59.5 37.5t28.5 25.5q16 12 32.5 31.5t23.5 30.5t22.5 38.5t17.5 30.5q10 21 32 52.5t32 56.5q5 12 24.5 50t20.5 56l6 2 q4 0 12.5 2.5t13.5 1.5q-3 -15 -10.5 -34.5t-21 -50.5t-15.5 -35q-18 -40 -57 -107l-55 -96q0 -9 -58 -71q-55 -59 -68 -58h-1q-4 -2 -28 -18t-41.5 -25.5t-27.5 -12.5q-7 -1 -20 -1t-20 -1l-62 5q-1 0 -3 -1.5t-3 -1.5q-41 11 -64 21q-12 4 -36 16l-21 13q-48 52 -67 106 l-2 6q-3 7 -7 8q-16 29 -16 109zM190 481v-11q0 -25 7 -56q41 18 49 24q30 23 119 94q8 7 24 28.5t29 31.5q11 11 28 45q21 35 29 70l2 20q3 35 -14 55q-11 15 -27.5 24.5t-25.5 11.5t-33 7l-31 -24l-6 -4q-4 -5 -13 -16t-13.5 -17t-10 -15t-8.5 -18q-8 -20 -36 -66t-38 -71 q-27 -52 -31 -113z" />
<glyph unicode="f" horiz-adv-x="550" d="M70 422q1 54 6 92q0 7 1 70.5t1 83.5q0 65 6 120l6 72q0 27 16 111t35 141q4 29 37 73t53 64q10 12 32 29.5t39 29.5t17 13q20 4 29 4q1 0 31 -6q29 -29 37 -47l6 -8q12 -17 17 -40.5t4.5 -41t-2 -45t-1.5 -37.5q0 -62 -10 -107q1 -4 -2 -27.5t-14 -77t-29 -116.5 q-23 -81 -72 -158q-11 -15 -32 -47.5t-33 -48.5q0 -2 -2 -4v-2l-12 -14t-10 -12t-7 -8.5t-4.5 -5.5t-1.5 -1q4 -6 12 -10q80 -41 96 -47q4 -2 21 -2h22h18.5h14t13 1t10 2t11.5 2.5t11 4.5q19 7 31 14t17.5 12t18 19t23.5 25q13 13 53.5 85t55.5 87v-43 q-12 -44 -46.5 -106.5t-53.5 -76.5l-82 -49q-29 -8 -41 -10.5t-17 -3t-19 0.5t-30 1q-55 0 -143 51h-2q7 -10 21 -25t24 -25l10 -9q7 -11 64.5 -101.5t66.5 -109.5q7 -12 23.5 -45t23.5 -45q6 -10 10.5 -22.5t8 -27t6.5 -22.5q26 -98 29 -105q5 -15 11 -41t7 -30 q0 -59 6 -84q-1 -9 0 -27t0 -26q0 -25 -16.5 -94t-28.5 -81q-1 -1 -3.5 -4t-4.5 -4.5t-6 -4t-8.5 -3.5t-11 -0.5t-13.5 2.5q-6 2 -62 21l-86 39q-18 7 -31.5 18.5t-37 40t-25.5 31.5q-16 25 -28 58t-23.5 74t-19.5 62l-19 74q0 8 -7 74t-7 84q-4 13 -4 39v32q0 5 -1 15 t-1 14q0 26 -1 112q-1 56 -1 100v40zM205 276q0 -17 4 -63q0 -15 4 -51q0 -23 5 -103t9 -114l9 -70q7 -76 18 -109.5t45 -93.5q5 -12 23 -30q25 -31 62 -58q31 -25 54 -25q3 0 6 1q33 96 33 175q0 20 -2 40q-2 2 -2 8v8q0 31 -12 70q-4 11 -16 57.5t-11 46.5q-5 13 -16.5 49 t-20.5 54q-5 10 -23 44.5t-26 47.5q-6 10 -26 46t-28.5 50t-27 41t-37.5 51q-3 6 -22 25v-6q0 -11 -1 -45t-1 -46zM209 524q2 1 24 27v2q39 52 56 92q3 6 17.5 36t18.5 39.5t12.5 31t13 38.5t7.5 35q11 65 24 121t13 58q11 77 11 94q0 11 2 26.5t0.5 28t-7.5 31.5 q-1 7 -3.5 19t-4 19.5t-5 17t-9.5 17.5l-8 7q-21 -9 -27 -15l-20 -24q-15 -15 -37.5 -54.5t-26.5 -74.5q-16 -50 -28.5 -140.5t-12.5 -132.5q0 -10 -4 -115t-4 -137z" />
<glyph unicode="g" horiz-adv-x="712" d="M68 410v10q-4 40 -4 82t4 86q3 17 10 35q7 27 22 53l39 63l29 43q37 50 96 70q42 14 62 12q44 0 65 -8q5 -1 53 -18q12 -5 41 -23q5 13 9.5 29.5t9.5 29.5q24 71 74 115q46 39 90 49q8 4 40.5 2.5t32.5 -6.5q4 -11 -6 -14q-9 -1 -16 -5.5t-10 -8t-8.5 -13.5t-6.5 -12 q-39 -65 -65 -182q-3 -8 -3 -25.5t-1 -21.5q-3 -62 -11 -113q-1 -14 -5 -39.5t-5 -38.5q-3 -17 -8 -98q-4 -28 -4 -43q-1 -14 -1 -40t-1 -46.5t-4 -38.5q-4 -29 -4 -82.5v-65.5q-1 -7 -1 -16q0 -21 5 -53q5 7 16 18.5t16 18.5q5 0 5 4q12 15 33.5 34t25.5 27l6 6 q90 145 121 209q7 15 27.5 48t29.5 65q4 17 18.5 45t18.5 43h6q9 -1 29 -8q-4 -16 -15.5 -46.5t-15.5 -47.5q-3 -16 -18.5 -40.5t-18.5 -31.5q-12 -25 -37 -64.5t-38 -64.5l-33 -64q-9 -13 -27.5 -40t-29 -42.5t-28 -35t-34.5 -33.5q-21 -29 -31 -35q-21 -26 -26 -35 q-4 -12 -4 -14q0 -110 -9 -205q0 -31 -2 -47q0 -14 -0.5 -37.5t-1 -36t-3 -33t-7.5 -41.5q-6 -18 -11.5 -51.5t-8.5 -46.5q-10 -38 -43 -84q-1 -1 -7.5 -9.5t-7.5 -10.5t-6.5 -9t-8 -9.5t-7.5 -8t-8.5 -8t-8.5 -7t-10 -7t-10 -5.5q-13 -10 -31 -14q-54 -16 -97 -16h-13 l-23 26q-22 29 -55 101q-6 17 -6 49q0 17 2 39q1 28 16 78.5t29 81.5q52 110 92 186q19 42 65 96q31 40 31 66v6v2q0 18 0.5 28.5t1.5 24.5t2 29q0 13 -4 41q-7 -2 -23.5 -20t-29.5 -21q-10 -3 -28.5 -6t-28.5 -6h-25q-63 15 -74 20q-23 10 -37 29q-12 11 -69 73 q-27 31 -29 56q0 2 -6 20q-5 12 -8 26.5t-3.5 23.5t-1.5 28t-1 25zM196 478q2 -26 3.5 -37t6.5 -37t7 -37q3 -11 7 -32t7 -32t8.5 -21.5t15 -23.5t13.5 -20q16 -28 68 -72q8 -8 18 -4q25 8 35 13.5t35 25.5l14 16q0 15 6 41.5t6 42.5q0 7 -1 18t-1 15l9 110q9 64 12 127 q1 30 6 99t6 104q-18 25 -67 35q-18 4 -32 4q-26 0 -40 -12q-8 -8 -55 -68q-7 -7 -19.5 -37.5t-19.5 -38.5q-9 -14 -18.5 -41.5t-14.5 -37.5q-11 -24 -14 -62q-3 -12 -1 -38zM244 -502q-2 -11 -2 -22q0 -33 16 -70q21 -48 35 -57q16 -7 33 10q5 5 15 14.5t18 17.5t14 15 q8 8 11.5 35t6.5 33q3 12 5 33.5t5 33.5q2 14 6 52.5t9 60.5l10 270q-2 -3 -5.5 -9t-6.5 -9q-3 -5 -7.5 -15.5t-7.5 -15.5q-31 -59 -82 -139q-22 -35 -32 -64q-41 -125 -41 -174z" />
<glyph unicode="h" horiz-adv-x="669" d="M-272 -180q-2 2 4 12v6q1 0 2 1t2 1q13 -4 29 -4q20 0 45 6q24 6 26 6q66 26 72 29q51 26 65 47q32 35 58 88q8 10 12 27q8 17 11 43.5t7 38.5q8 19 5 53l4 90v45q0 17 2 89.5t2 88.5q2 23 2 58q6 33 10 98q14 166 14 248q0 7 -1 24.5t-0.5 30t3.5 23.5q4 26 7.5 68 t5.5 61q14 63 14 82q-1 14 10.5 42t12.5 38q3 9 15 33.5t15 33.5q5 7 14.5 22t17 25.5t15.5 18.5q10 13 39 16l41 -6q23 0 33 -17q3 -3 8.5 -5t9.5 -5q3 -3 8.5 -6t8.5 -6q8 -9 35 -47q29 -49 29 -94q0 -14 -3 -27q-3 -14 -5 -40.5t-5 -41.5q-4 -14 -12 -35.5t-8 -23.5 q-12 -46 -58 -103q-36 -56 -55 -75q-29 -32 -57 -52v-39t4 -49q-1 -6 2 -33t-2 -51q2 -13 -4 -32q9 1 24 16q29 32 70 35q40 0 49 4q4 4 21 1t20 -3q21 -3 33 0q4 1 8 1q27 -1 63 -23q40 -26 49 -52q8 -34 8 -64q0 -19 -3 -36q-3 -27 -9.5 -121.5t-9.5 -120.5l-20 -121 q-3 -7 -4.5 -17.5t-4.5 -17.5l9 -22q1 -4 14 -4t23 4q34 34 61 86q3 7 31.5 61.5t34.5 83.5q8 32 20 72.5t16 56.5q3 16 23.5 59t23.5 60h7q13 -3 22 -8q-3 -12 -20.5 -57.5t-20.5 -65.5q-8 -37 -14 -55q-8 -30 -24 -75t-23 -69l-49 -92q-24 -59 -56 -104l-24 -39 q-14 -24 -37 -31q-33 -14 -57 -6q-12 0 -25 8q-39 13 -47 21q-7 7 -10 16q-10 30 -13 64q-2 16 2 49v57q-2 11 -2 31t2 49q0 39 7.5 114.5t15.5 106.5q0 17 2 23q2 27 2 82q-1 30 -24.5 46t-53.5 11q-16 3 -24 -2q-35 0 -54 -29l-16 -20q-3 0 -9.5 -49.5t-12 -110.5 t-5.5 -90q1 -15 1 -29q0 -51 -9 -94q-2 -14 -3.5 -40.5t-4.5 -47.5t-10 -39q-17 -49 -31 -72q-40 -69 -98 -121q-12 -12 -47 -34q-5 -5 -14.5 -10t-12.5 -7q-33 -26 -100 -61q-13 -6 -58 -6q-2 0 -11 1.5t-15 0.5q-38 0 -74 32q-12 3 -12 13zM233.5 954.5q-0.5 -7.5 2 -40 t2.5 -40.5l1 -1q1 -1 1 -5q6 2 10 6q23 23 33 37q31 34 53 82q12 29 16 35l39 86q17 49 19 74q2 12 2 23q0 71 -70 132l-4 -4q-21 -21 -30.5 -42t-18.5 -56q-3 -12 -16.5 -56t-22.5 -83q-10 -40 -14 -107q-2 -33 -2.5 -40.5z" />
<glyph unicode="i" horiz-adv-x="348" d="M0 725q3 7 7 11t10.5 5.5t10 2t12 0t9.5 -0.5q18 0 47 -10q5 -3 16.5 -5t18.5 -5q19 -5 28.5 -13.5t21 -30.5t16.5 -30q27 -40 27 -107q0 -21 -3 -44q-2 -25 -1.5 -55t2 -89t1.5 -84q0 -47 4 -157v-13q1 -3 4.5 -5t4.5 -5l12 -18q32 -3 47 18q4 7 12.5 21t14 22.5 t11.5 21t9 21.5l16 49l4 25q12 47 34.5 101.5t35.5 97.5q4 17 16.5 48t16.5 46h4q12 -2 31 -8q-15 -60 -33 -101q-19 -41 -28.5 -68.5t-19.5 -60.5t-22 -67l-28 -84q-6 -22 -26.5 -60.5t-25.5 -50.5q-9 -22 -22 -43q-10 -24 -39 -33q-5 -1 -12 -2q-2 -1 -6.5 -4.5 t-10.5 -3.5h-2h-2l-22 8l-21 6l-16 6q-13 9 -25.5 26.5t-23.5 25.5q-29 29 -29 59l-8 43v10q0 21 2 71q2 30 2 55q0 28 -2 50q0 94 -12 242q-4 50 -17 72q-7 12 -17.5 32t-17.5 31l-12 19zM74 913q4 14 12.5 27t20 28t16.5 23q8 14 20 8q2 -1 11 -4.5t12 -5t10 -6t10 -8 t6.5 -10t4.5 -13.5q2 -2 2 -6q1 -1 1 -4t1 -6q-2 -7 -3.5 -36.5t-9.5 -45.5q-3 -3 -7 -9t-7 -9q-15 -9 -22 -7q-13 5 -33.5 15t-28.5 14q-28 15 -16 55z" />
<glyph unicode="j" horiz-adv-x="393" d="M-231 -686q1 23 19.5 65.5t21.5 55.5q6 21 14.5 43t19 47.5t15.5 40.5q10 26 30.5 54t30.5 50q18 49 49 105q3 7 11.5 18.5t11.5 18.5l43 69q6 11 23.5 32t29.5 42q0 20 5 103t5 100q0 11 -1.5 39.5t-1.5 43t0.5 37.5t2.5 43t6 39q3 12 4.5 36t4.5 36q3 27 7 81t7 81 l8 53q4 20 4 31q0 19 10 54.5t11 41.5q18 72 71 152q22 32 58 57q39 31 63 45q4 4 12 4h9l4 -71l-31 -62q-30 -58 -30 -98q0 -7 1 -13v-47q0 -44 -18 -172q-3 -15 -7 -46.5t-7 -47.5q-3 -17 -5.5 -50.5t-5.5 -51.5l-8 -82q-5 -36 -4 -45l-8 -39q-6 -42 -6 -45q-2 -6 -2 -19 v-34q2 2 2 4q12 15 33.5 34t25.5 27l6 6q90 145 121 209q8 16 28.5 49t29.5 64q4 17 18 45t18 43h7q7 -1 28 -8q-4 -17 -15.5 -47.5t-15.5 -47.5q-3 -16 -18 -40t-18 -31q-12 -24 -38 -64.5t-38 -64.5l-33 -64q-9 -13 -27.5 -40t-29 -42.5t-28 -35t-34.5 -33.5 q-1 -1 -11 -14.5t-15 -18.5l-9 -68q-5 -70 -8 -88l-6 -80q-9 -63 -9 -97q0 -14 1 -23v-8q0 -40 -16 -121l-25 -109q-11 -56 -47 -111q-8 -14 -23.5 -37t-21.5 -32l-19 -19l-18 -12q-11 -11 -26 -22t-23.5 -16.5t-30.5 -18t-27 -15.5q-18 -11 -86 -24h-6q-55 0 -67 51 q-6 26 -6 94v31zM-186 -737l4 -29q0 -17 14.5 -26.5t32.5 -4.5q29 7 40 15t29 32q28 43 46 76q30 59 43 101q6 29 18 65q12 42 22 107q0 8 3 21.5t4 17.5q5 44 8 53q3 17 3 51t3 51q0 4 1 12.5t1 12.5l4 67q-56 -73 -59 -78q-12 -20 -14 -26.5t-13 -26.5q-28 -48 -47 -96 q-3 -7 -9 -17.5t-9 -17.5q-7 -18 -17.5 -33.5t-17.5 -31.5q-5 -11 -14.5 -30.5t-16 -35.5t-10.5 -31q-3 -11 -12.5 -44t-12.5 -52q-2 -14 -16 -47t-8 -55zM234.5 1159.5q-2.5 9.5 1.5 14.5q9 42 45 51q4 0 6 2q1 0 7.5 3t8 3t7 1t8 0.5t7.5 -2.5t9 -5q19 -14 28 -37 q2 -4 7 -10v-21q-6 -38 -45 -47l-35 -16q-19 -6 -27 8q-2 3 -8 11t-7 10t-6 11t-4.5 11.5t-2 12z" />
<glyph unicode="k" horiz-adv-x="690" d="M-274 -215q6 20 8 27h16q2 -2 6 -2q3 -3 4 -3q9 -6 20 -6q17 0 40 15h-2q4 3 11 5t11 5q10 0 20 2.5t22 7t20 6.5q12 2 18 8q6 8 19.5 13.5t17.5 9.5q4 5 14.5 17t14.5 20q8 8 21 24.5t18 22.5q3 4 6 11.5t6 11.5q3 12 10 30t10 29q15 59 27 117l16 98q3 13 4.5 37.5 t4.5 36.5q6 34 10 69t7.5 91t4.5 69q3 10 4 21t1 24t1 21v36q-4 4 0 11q4 24 5.5 53t0.5 52.5t0 53.5v15q0 11 -1 33.5t-1 35.5q0 7 -1 18.5t-1 18.5q5 100 8 121q1 7 1.5 25.5t1.5 34.5t4 26q19 98 28 111q7 50 64 96q6 4 16.5 15.5t18.5 15.5q15 11 53 16h12q40 -2 72 -45 q21 -24 33 -51q9 -27 13 -61q2 -16 2 -33q0 -22 -2 -46q-6 -45 -26 -77q-43 -91 -88 -150q-7 -10 -17 -20t-22 -20.5t-18 -16.5l-14 -14q-5 -5 -5 -13q-2 -14 -2 -41v-8v4q0 -20 -1 -62.5t-1 -64.5q0 -4 2 -6q22 28 33 53q13 22 39 49q20 20 66 52q24 18 53.5 19.5 t54.5 -15.5l23 -13q6 -5 9.5 -11.5t5 -11t4 -15t3.5 -15.5q2 -11 1 -24q0 -40 -17 -90q-17 -39 -39 -64q-9 -12 -52.5 -38t-52.5 -38q8 0 22.5 -5.5t20.5 -6.5q6 -2 19 -8q83 -59 86 -139q12 -136 12 -172q0 -12 2 -30.5t0.5 -44.5t-8.5 -79v-15.5v-22.5t0.5 -24t2.5 -25.5 t6 -21.5t9 -16q16 -4 38.5 31t41.5 86l21 53l8 27q46 177 51 190q8 26 20.5 84.5t20.5 85.5q3 20 25.5 72t25.5 61h4q12 -2 31 -8q-3 -11 -24.5 -64.5t-24.5 -72.5q-2 -7 -17.5 -61.5t-23.5 -92.5q-11 -34 -55 -209l-31 -88q-9 -38 -25 -69t-32.5 -47t-33 -28t-26.5 -12 t-14 1q-13 0 -29 4q-4 2 -10 2q-51 30 -74 92q-8 19 -12 46t-4 46t1 52t1 44q1 15 -2 42.5t-2 43.5q0 7 -1 19.5t-1 19.5q0 55 -2 86q0 1 -0.5 9t-0.5 9.5t-1 8.5t-1.5 9.5t-1.5 8.5t-2.5 8.5t-3 7.5t-4 8.5t-5.5 7.5t-7 7q-15 15 -21 20.5t-18.5 11.5t-29.5 9 q-16 3 -25.5 2.5t-20 -2.5t-12.5 -2l-4 -70l-8 -79v-21q2 -13 2 -29q0 -32 -8 -79q-4 -47 -8 -62q-10 -56 -31 -100q-14 -35 -66 -99q-6 -7 -21.5 -27t-25.5 -30q-29 -38 -63 -55q-8 -4 -18.5 -14.5t-16.5 -14.5q-3 -3 -10.5 -7t-10.5 -7q-46 -27 -79 -37q-18 -6 -36 -6 q-15 0 -32 4q-27 6 -53 6q-15 0 -43 16q-10 10 -8 23zM266 524q32 6 58 25l49 37q11 10 35 28.5t36 30.5q7 6 41 45q23 33 23 70v8q-4 28 -4 33q-13 8 -21 8q-9 1 -17 1q-36 0 -54 -15q-13 -8 -34 -24.5t-30 -22.5q-2 -8 -8 -13q-3 -7 -10.5 -18.5t-10.5 -18.5l-43 -73 q-8 -14 -8 -27q0 -12 -1 -36t-1 -38zM279 922q2 2 4 2q43 43 57 65l16 17q24 34 29 45q21 49 33 90q3 8 6.5 17.5t5 13.5t2.5 12.5t0.5 18.5t-2.5 26l-16 59q-10 40 -45 60q-7 -7 -7 -9q-4 -8 -15.5 -25.5t-16.5 -25.5q-9 -13 -23 -62.5t-14 -56.5q-4 -28 -4 -41 q-1 -12 0 -43t0 -43q-4 -80 -10 -120z" />
<glyph unicode="l" horiz-adv-x="456" d="M76 459q0 11 1 34t1 35q5 57 8 70q1 7 1 18.5t1 18.5q4 28 4 43q1 4 1 11t1 11q0 1 1 2.5t1 2.5q-3 12 -3.5 15.5t2.5 15t3 14.5q4 32 4 34q-3 24 0 45q5 44 9 63t6.5 23.5t8.5 29.5t15 73q2 8 9 32t12 46q13 64 51.5 115t95.5 69q19 6 60 10q12 0 22 -10q12 -9 25.5 -39 t15.5 -43q1 -6 10 -41.5t9 -54.5q0 -76 -31 -144q-12 -40 -47 -129q-34 -93 -56 -120q-3 -5 -20.5 -40t-34 -63.5t-26.5 -38.5q-5 -5 -5 -10q-1 -4 -1 -30t-3 -35l-6 -189q0 -32 -2 -54t-2 -52v-9q-1 -22 3 -58q4 -43 5 -52q0 -3 1 -6.5t2.5 -8.5t2.5 -8l11 -28 q11 -21 37.5 -35.5t56.5 -14.5q44 11 92 99q6 10 10 19t8 20t15.5 41.5t27.5 68.5q14 30 30.5 95t19.5 75q3 15 11 40t18.5 54.5t13.5 38.5h4q11 -2 30 -8q-37 -114 -41 -137q-2 -8 -21.5 -62t-27.5 -92l-67 -176q-17 -42 -37.5 -71.5t-44 -44.5t-34.5 -20t-32 -11 q-26 -8 -51 -8q-34 0 -65 16q-53 28 -78 94q-6 20 -10.5 47t-7 47.5t-7 57.5t-6.5 57l-4.5 18t0 6.5t0.5 12.5zM233 633q63 110 93 176q5 11 21 42.5t22 53.5q8 32 18.5 60t16 41.5t9.5 32t4 43.5t-5 65q0 5 -3 14.5t-3 14.5q-1 7 -11.5 19t-17.5 17q-33 -15 -55 -53 q-42 -64 -48 -141l-18 -170l-6 -55l-12 -76z" />
<glyph unicode="m" horiz-adv-x="948" d="M16 47q3 4 5.5 13t5.5 12q12 18 20 38.5t15.5 50t11.5 40.5q19 55 22 118q0 3 3 17t3 22q1 5 12 83q12 79 18 137q4 40 4 60q0 10 -1 15l-4 135q-9 60 -33 113l-16 35q-2 4 -2 7.5t1.5 6t2.5 4t4 4t4 3.5q7 -1 14 -3t12 -3.5t12 -5.5t10.5 -5.5t11 -7t10 -7t11.5 -8 t11 -8.5q4 -3 21.5 -12.5t25.5 -17.5q17 -12 23 -21q23 -38 31 -74q8 -41 8 -102v-16q3 2 7 10.5t7 9.5l37 37q6 5 19 20t20 19q8 3 37 20q7 4 47 9l29 4q28 3 47 -19l30 -47h2q20 14 35 35q2 2 7 10.5t8 9.5q13 18 42 39.5t38 30.5q4 4 8 4q45 11 71 11q10 0 18 -2 q20 -4 38 -17q9 -9 16 -23q23 -69 23 -118q0 -16 -2 -29q-5 -20 -5 -46v-18q0 -20 1 -46q1 -38 1 -48q-2 -12 -4 -19t-2.5 -9t-1 -8.5t-0.5 -20.5q-5 -109 -8 -135q-3 -24 -7 -73t-7 -73q-3 -19 -10.5 -53.5t-10.5 -54.5q-5 -36 -5 -67t5 -58q5 -49 8 -57q3 -2 5 -4 q-2 -2 -2 -7q2 -4 6.5 -16t7.5 -18q24 0 29 4q34 34 61 86q3 6 17.5 40t24 58.5t13.5 46.5q4 15 21.5 86.5t25.5 101.5q3 15 32 116t32 118l16 33l15 2q16 -3 4 -43q-53 -176 -64 -238q-8 -37 -14 -55q-26 -140 -53 -203l-43 -92q-24 -59 -56 -104l-24 -39q-1 -3 -3 -5.5 t-3 -5.5q-9 -12 -31 -20q-33 -14 -57 -6q-12 0 -25 8q-12 4 -47 39q-7 7 -10 16q-3 10 -17.5 36.5t-15.5 39.5q-6 27 -6 55q0 15 -2 17q-2 12 -2 27q0 40 12 100q3 12 6 37t6 38l19 187q3 34 12 69l6 86l1 13l1 12q-1 12 -1 36t-0.5 39t-3 35.5t-5.5 37.5q-12 55 -23 73 q-4 6 -6.5 9.5t-4.5 7t-4.5 4t-4 2t-5.5 -0.5t-5.5 -2.5t-8.5 -4t-10 -5.5q-20 -13 -43 -32q-1 0 -2 -2t-2 -2q-7 -2 -10.5 -6t-4 -10t-1 -9.5t1.5 -11.5t2 -10q5 -27 9.5 -68t6.5 -53q4 -15 8 -62q2 -20 2 -21.5t-4 -8t-6 -21.5q-6 -57 -26 -98q-24 -58 -72 -103 q-33 -33 -88 -39q-6 0 -15.5 -3.5t-13.5 -4.5q-12 10 -13 14.5t7 16.5q22 35 29 51q3 7 6 24t6 25v11t4 14q4 14 5 28.5t1.5 35.5t1.5 30q0 11 4 39q3 11 6.5 31t6.5 32q4 52 3.5 58.5t-5.5 60.5q-4 31 -15 49t-21 18.5t-30 -11.5q-7 -4 -21 -19t-28 -31.5t-17 -19.5 l-18 -23l-6.5 -6.5t-3 -5t-1 -3.5t0 -3t0.5 -4q-1 -20 -4 -41t-4 -41q0 -8 0 -7q-1 0 -1 5l-1 -2q-3 -19 -5.5 -58.5t-5.5 -58.5q-7 -78 -39 -178q-28 -81 -88 -113q-3 -3 -7 -5t-7 -5q-11 -10 -24.5 -18.5t-32 -18.5t-25.5 -14q-7 -2 -20 -12q-17 7 -11 22z" />
<glyph unicode="n" horiz-adv-x="657" d="M-45 -135q6 18 8 20q4 5 16.5 21.5t16 21.5t12.5 18.5t13 21t10 20t10 24.5q7 19 11.5 42t7 39.5t4.5 44.5t2.5 40t1 44.5t0.5 39.5q1 12 2 52t2 51q4 22 4 124q11 63 11 112q0 26 -3 48q-1 10 -21 68q-18 39 -26 53q0 3 -2.5 5t-3.5 5q-16 21 -2 35q18 0 26 -2 q31 -8 90 -27q23 -17 25 -20q3 -13 19.5 -29.5t19.5 -23.5q20 -50 22 -76q0 -8 1 -26t1 -27q3 -5 5 -13q14 14 20 23q13 18 35.5 57t44 67t47.5 44q6 3 14 0q13 -3 61.5 -9.5t61.5 -9.5q14 -4 19 -16q34 -47 34 -111q0 -15 -2 -32q0 -23 -6 -47q-2 -6 -8 -52l-12 -82 q0 -3 -6 -51v-57l8 -72q3 -41 39 -69q16 7 30 24q24 28 44 76q3 4 8 20.5t8 20.5q8 14 39 82q4 5 14 29q13 23 30 64.5t34 64.5q3 3 5 7t5 7q0 -6 4.5 -19.5t3.5 -21.5q-2 -12 -18 -39q-2 -4 -7 -13.5t-8 -13.5q-46 -94 -98 -223q-19 -50 -47 -82q-4 -4 -15 -19.5t-23 -25 t-28 -12.5q-7 1 -26 1t-34.5 1.5t-25.5 5.5q-4 2 -15.5 6.5t-19 8t-16.5 8.5t-14 10q-39 49 -39 80l2 127q0 5 6 58.5t6 57.5q0 31 6 76q3 20 7.5 60.5t7.5 60.5q10 38 -8 61q-11 18 -31 9q-12 0 -28.5 -24t-29.5 -51t-14 -28l-29 -43q4 -3 -34 -41q-2 -16 -5.5 -28 t-5.5 -22.5t-2 -31.5q-16 -213 -17 -307q-5 -19 -10.5 -50.5t-12.5 -56t-21 -46.5q-5 -10 -12 -17q-58 -63 -66 -71q-12 -12 -29 -19q-12 -5 -33.5 -6t-33.5 -6q-20 -8 -37 2z" />
<glyph unicode="o" horiz-adv-x="782" d="M84 414q-3 11 -3 28q1 24 7 64q10 66 23 100q11 41 18 62q12 27 35 57q7 8 18.5 23.5t18.5 23.5q23 33 41 49l41 25q33 20 84 20q5 0 15 2t15 2h7q31 0 57 -26q28 -21 -27 -29l-28 -4q-5 -3 -15.5 -9.5t-15.5 -10.5l-12.5 -10t-13.5 -13t-11 -16q-9 -9 -21 -25 q-35 -57 -49 -113q-3 -14 -12 -37t-12 -55v-55q4 -108 20 -172q7 -28 31 -68q12 -21 21.5 -34t18 -17t15 -5t15 6t13.5 12.5t15.5 19t16.5 20.5q9 9 24 35q10 12 9.5 18t-11.5 17l-33 47q-22 36 -30 72l-19 78q-5 19 -5 42q0 17 3 37q0 41 4 64q6 51 37 100q13 20 58 32 q23 6 45 6q19 0 36 -5l29 -20q49 -27 64 -76q4 -14 9.5 -28.5t8 -22.5t5 -20.5t3.5 -29.5l-6 -24q-15 -102 -41 -160q-4 -10 -39 -78l-8 -18q5 2 20 5.5t23 8.5q12 8 31 23.5t32 23.5q18 11 31 23t33 34.5t25 28.5q4 4 8.5 10.5t10.5 15t9 13.5q37 53 49 53q5 0 5 -11 q0 -7 -1 -15q-13 -38 -38 -70q-5 -7 -14.5 -14t-14.5 -14q-6 -6 -23.5 -28.5t-33.5 -31.5l-25 -20q-11 -8 -31 -25.5t-35 -25.5q-46 -24 -73 -24q-6 0 -11 1q-8 0 -14 -6q-23 -18 -65 -60q-5 -3 -27.5 -20t-36.5 -25q-18 -8 -24 -10.5t-9.5 -3.5t-14.5 -1.5t-24 -2.5 q-11 -1 -21 -1q-41 0 -65 13l-26 19q-33 28 -47 45q-27 45 -33 69q-7 23 -19.5 71t-19.5 71zM380 590q0 -6 -1 -12q0 -22 4 -54q1 -4 3 -20.5t2.5 -21.5t2.5 -19t3.5 -20t4.5 -18.5t6 -20t7.5 -17.5t10 -18.5t11.5 -16.5q3 -5 12.5 -15.5t14.5 -17.5q5 12 14.5 30t13.5 26 q10 21 13 37q20 73 20 159v23q0 7 -16.5 34.5t-18.5 33.5q-20 44 -63 69q-2 -2 -5.5 -4.5t-5.5 -4.5t-3 -5q-7 -16 -19 -62q-9 -40 -11 -65z" />
<glyph unicode="p" horiz-adv-x="657" d="M-209 -670q2 5 4 13q21 0 55 30q46 36 66 56q46 52 68 106q1 3 13 27.5t15.5 38.5t14 65t22.5 131q1 6 1 29.5t3 36.5q15 59 15 168q0 96 2 143q0 15 1 31t2.5 36t2.5 31q6 31 10 93q0 20 -2 51q0 38 -2 61q0 8 -3 25t-3 20q-2 0 -2 -2q-1 5 -1 15t-1 18.5t-4 15.5 q4 11 2 13q-2 14 -1.5 62t-7.5 61q-3 6 -22 40q-21 45 -57 74l3.5 7t3.5 6.5t4.5 3.5t8.5 2q3 0 8.5 3.5t9.5 4.5q18 4 34 4q52 0 91 -39l29 -29q20 -28 25 -41l30 -120l5 1q5 1 6 5l30 28q9 9 42.5 30.5t47.5 25.5q21 6 41 6q50 0 99 -35q30 -17 39 -37q3 -6 32 -139 q8 -23 11 -60l6 -73q0 -2 2 -2q18 9 35 27t20 20q10 6 23 18t27 26t20 19q20 20 65 123q7 4 15 14l-4 -12q-1 -10 0.5 -20.5t1.5 -20.5q-3 -6 -11.5 -36t-31.5 -62q-14 -19 -51 -52t-48 -38q-12 -7 -17 -10.5t-7 -5.5l-9.5 -9.5t-19.5 -17.5q-8 -8 -8 -17v-16v-18v-12.5 t-1 -4.5t-1.5 -1t-2 -4.5t-3.5 -12.5q-9 -37 -41 -92l-33 -50q-17 -29 -86 -69q-23 -16 -50 -16q-13 0 -28 4l-39 4q-24 5 -33.5 13.5t-13.5 31.5q-2 26 8 57q16 55 43 80l18.5 18.5t22.5 20.5l8 6q9 15 20.5 24.5t33.5 22.5q18 11 18 58v14q0 1 1 20t2 37.5t-1 42t-8 39.5 q-4 8 -9 25.5t-9 25.5q-19 44 -35 60q-15 15 -34 15.5t-30 -5t-16 -10.5l-41 -39q-10 -17 -10 -27q1 -17 -1.5 -39t-2.5 -35l4 -106v-7t0.5 -3t1 -1.5t1 -4t1.5 -9.5q0 -2 1 -43t-1 -43l-15 -129q-3 -15 -3 -40t-1 -31l-16 -127q-4 -49 -10 -78q-8 -43 -11.5 -71t-11.5 -71 q-3 -10 -29 -92l-8 -32q-11 -56 -47 -111q-39 -62 -86 -94q-27 -21 -59 -35l-37 -19q-45 -19 -72 -26q-5 -4 -28 -4q-25 0 -19 22zM293 111q-7 -29 14 -41q15 9 23 -4q22 6 41 22t28 31l7 37q10 23 12 59.5t4 48.5l-27 -16l-63 -70q-20 -19 -27.5 -30.5t-11.5 -36.5z" />
<glyph unicode="q" horiz-adv-x="737" d="M70 469v51v25q0 33 10 49q0 3 2 9t2 9q3 16 14 27l15 29v6q0 4 2 4q0 2 4 6q6 6 6 10q3 3 5 7.5t5 5.5q3 4 24.5 25t30.5 34h5q5 3 14 9t17 10.5t16 7.5q12 3 34.5 7t34.5 7q26 3 43 -8q38 -14 49 -25q5 -3 10.5 -8t10 -7.5t10.5 -2.5q1 0 3 -3t5.5 -6t6.5 -4 q0 8 2.5 23.5t3.5 19.5q5 14 10 52q0 19 8 32q37 37 45 48q14 32 29 38q17 11 24 17q9 8 30.5 19t29.5 18q4 3 8 8t8 8q3 0 6 6q12 3 21 0q16 -9 8 -22q-57 -72 -61 -82q-10 -74 -29 -142q-10 -72 -10 -120q-5 -69 -7 -76v-103v-77q0 -14 -2.5 -40.5t-3.5 -37.5 q-6 -16 -9 -48.5t-5 -41.5q-4 -9 -4 -43l15.5 15.5t14.5 14t10 10.5t7 11l10 2q17 34 57 101.5t62 109.5q8 17 28 48t29 62q3 17 17.5 45.5t17.5 43.5h6l27 -9q-3 -15 -14.5 -45t-14.5 -47q-5 -18 -19.5 -43t-17.5 -31q-12 -26 -37 -66.5t-36 -60.5l-33 -65 q-9 -13 -27.5 -40.5t-29.5 -42.5t-28.5 -35t-35.5 -34q-13 -13 -14 -16q0 -11 -4 -23l24 -34q45 -81 53 -99q52 -134 74 -188q33 -122 33 -160q0 -67 -10 -90q-37 -75 -53 -96q-6 -10 -21 -25q-45 0 -94 21q-9 0 -23 14q-31 18 -61 76q-26 46 -33 84q-2 13 -5.5 48t-8.5 52 q-6 27 -7.5 49t0 52t1.5 42v48v122q-2 3 -4 9q-3 3 -3 6q7 12 7 26v5q0 16 2 43t2 43v90q-8 -4 -23.5 -26.5t-19.5 -25.5q-43 -34 -72 -40q-29 -7 -58 -7q-9 0 -19 1q-38 3 -66 24q-42 26 -58 82q-13 39 -22 57q-3 13 -1 36t-1 34q-4 21 -4 92zM232 334q3 -72 18 -94 q1 -3 3 -7.5t3 -6.5l2.5 -5t3 -4.5l3.5 -3.5t5 -3t6 -1q6 -2 13 -6t8.5 -4t11.5 2q58 29 72 41l12 16l21 25q-3 22 1.5 55t4.5 47q0 7 -2 23t-2 26q0 16 2 42.5t2 39.5q0 11 3 35.5t3 38.5q0 5 2 17.5t2 24t-4 21.5q0 4 2 12t2 13q0 6 4 10q6 16 -8 33q-9 5 -24 20t-21 19 q-6 2 -15 2q-19 0 -47 -12q-8 -6 -27 -46t-24 -59q-6 -13 -10.5 -40.5t-7.5 -37.5q-4 -12 -4 -30q0 -22 -4.5 -59t-5.5 -50q-4 -16 -4 -56v-38zM537 -238q6 -27 10 -114q3 -10 3.5 -32t4.5 -34q1 -6 3.5 -34t10.5 -37q3 -4 16.5 -21t22.5 -25q13 -22 27 -14q15 15 33 59 q15 35 15 74q0 8 -1 17q0 71 -29 172q-1 3 -24 65q-57 118 -70 139q0 18 -12 33q0 1 -1 8t-5 13z" />
<glyph unicode="r" horiz-adv-x="645" d="M84 838l6 18l39 43l4 4q5 2 33 11.5t43 13.5q30 8 49 -27q3 -6 10.5 -20.5t11.5 -26t5 -23.5v-5q0 -16 -4 -64q0 -3 -2.5 -18t-2 -18t2.5 -17q13 1 25 1q86 0 179 -65l13 -10q22 -24 26 -51q3 -19 3 -46q0 -12 -1 -26q-1 -11 -5 -53.5t-6.5 -70t-7.5 -59t-11 -44.5 l-9 -74q-3 -17 -11 -54.5t-9.5 -51.5t-1.5 -45.5t6 -69.5q9 -21 22.5 -19t22.5 17q40 63 47 86q12 32 14 47l7 26q5 20 24 72q8 43 64 236q4 17 16 48t16 48h5q11 -1 30 -8q-4 -18 -16 -51.5t-16 -51.5q-3 -14 -21.5 -77t-21.5 -76q-15 -60 -46 -154l-28 -82 q-20 -78 -51 -112q-5 -11 -16.5 -23t-22.5 -16q-14 -3 -27 -3q-49 0 -78 40q-11 11 -25.5 45.5t-19.5 56.5l-20 88q-2 16 -2 45q3 98 18 199l25 65l14 121q0 10 -1 21t-2.5 24t-2.5 21q-6 19 -37.5 33t-54.5 14q-17 0 -23 -13q-38 -68 -47 -108q0 -3 -3.5 -9t-4.5 -8 q-25 -66 -41 -66h-2q-12 4 -8 35q0 6 2 11l24 57l37 84q3 18 -12 21q-76 15 -111 86q-14 26 -14 54q0 12 2 24zM120 850q-6 -14 -6 -27q0 -18 11 -35q34 -70 104 -79q12 9 9 32v17q-5 81 -7 90q0 14 -14 37q-15 15 -43 4q-40 -7 -54 -39z" />
<glyph unicode="s" horiz-adv-x="473" d="M31 42.5q-1 29.5 4 45.5q22 49 49 70q12 10 36 26t38 27q7 3 21.5 12.5t21.5 12.5v2q3 4 24 12t21 16q4 12 4 27q0 5 -1.5 8t-3.5 4t-4.5 4t-4.5 8q-3 9 -9.5 20.5t-9.5 20.5l-78 101q-6 17 -43 51t-43 51v8q0 1 -3 7t-3 10q-14 31 -14 92q0 2 1 6t1 10q6 34 37 76 q25 25 32 29q9 0 17 8q18 7 76 18q32 0 60 -19t40 -50q0 -8 3 -32t3 -28l-4 -18q0 -5 -7 -26t-11 -21q-20 5 -28.5 12t-4.5 19l1 4q1 4 2.5 10.5t2.5 14.5t0.5 18t-2.5 20q-8 37 -16 43q-8 8 -43 2q-26 -11 -35 -20q-1 0 -11 -17q-4 -4 -6 -8.5t-4 -11.5t-4 -12v-21 q2 -4 4 -12.5t5.5 -15.5t9.5 -13q14 -18 63.5 -57.5t65.5 -55.5q47 -52 106 -131q20 -28 29 -49q21 35 53.5 80.5t48.5 71.5q23 37 35.5 67.5t13.5 32.5q3 6 43 19l-61 -138q-29 -49 -61 -93.5t-44 -70.5q-20 -30 -8 -59q2 -22 2 -40q0 -33 -6 -54q-8 -53 -33 -105 q-11 -22 -58.5 -67t-64.5 -53q-52 -18 -63 -21q-30 -2 -48.5 -2t-27.5 2q-18 0 -33 12q-49 18 -67 62q-5 19 -6 48.5zM69.5 67.5q0.5 -8.5 2.5 -21.5t2 -15q4 -13 16 -17t25 4q99 62 110 95q9 24 15 60t8 40q-11 -9 -67 -39.5t-62 -34.5q-10 -6 -47 -55q-3 -8 -2.5 -16.5z " />
<glyph unicode="t" horiz-adv-x="530" d="M-58.5 1022q2.5 6 7.5 8q8 3 17.5 4t20.5 1t17 1q19 3 102 8q12 3 15 15q3 18 12 45t12 53q12 32 54 98l4 7q5 20 29.5 44t29.5 31q3 4 21.5 17t19.5 16q10 10 21 10q6 2 10 -5t0 -13q-2 -2 -9.5 -14.5t-17 -31t-12.5 -30.5l-19 -92q-14 -64 -22 -152q3 0 8 -1t8 -1 q12 4 54 4q16 -3 49 -1t51 -1h53q10 2 22.5 -1.5t12.5 -12.5q-2 -5 -5.5 -7.5t-6.5 -3.5t-7.5 -2t-7.5 -3q-21 -9 -71 -9q-17 0 -37 1h-39q-12 0 -33 -1.5t-33 -1.5q-2 0 -6 -0.5t-4.5 -0.5t-3 -0.5t-2.5 -1.5t-1 -2t-1.5 -4t-1 -5.5t-0.5 -7.5q0 -18 -10.5 -107.5 t-10.5 -109.5q-3 -33 -6 -99.5t-6 -99.5q-4 -70 -10 -112v-27q0 -34 -3.5 -81.5t1.5 -59.5q1 -4 3.5 -16.5t2.5 -20.5q8 -79 18 -129q3 -10 10.5 -38t12.5 -42q3 -4 13.5 -12.5t13.5 -12.5q17 -17 49 -24q41 9 76 104q3 8 14 26.5t14 26.5l8 27l68 160q8 28 13 38t12 33 q3 15 11 40t18.5 55t13.5 39h4q5 -1 30 -9q-37 -114 -41 -137q-2 -11 -11.5 -31t-18.5 -57l-66 -145l-39 -88q-22 -80 -61 -114t-68 -34q-31 2 -69 19q-2 2 -5 2q-6 2 -12 8q-20 12 -28 20l-27 19l-12 10q-56 45 -72 121q-6 35 -10 106q0 43 -2 66q0 8 -3.5 66t-3.5 71 q0 9 1.5 26.5t1.5 26.5q2 14 2 37q0 32 12 94q2 6 2 25q3 32 6 91.5t6 90.5q0 12 10.5 88t10.5 86l-1 3q-1 4 -1 8h-31q-23 -2 -66 -2q-9 -1 -29.5 1.5t-29.5 -1.5q-11 -4 -14 6q-4 6 -1.5 12z" />
<glyph unicode="u" horiz-adv-x="620" d="M31 744q5 9 27 8q16 0 40 -4q4 -1 31 -7t35 -12q2 -2 12.5 -11t13 -11.5t10.5 -10t10.5 -11.5t6.5 -11t6 -13.5t2 -13.5l6 -78q0 -7 -6 -48t-6 -50q0 -29 2 -42t2 -42q0 -18 3 -50.5t3 -37.5q0 -3 1 -8t1 -8q3 -13 1 -42t1 -42l27 -56q2 -1 8.5 -1t19.5 4t23 10 q5 1 15.5 11t20.5 20t20.5 21.5t11.5 12.5q1 16 1 33q0 50 -7 102v35q3 12 6 35t6 35l4 39q9 33 12 71q5 28 27 82q5 11 47 82q4 10 32 29.5t34 26.5q30 30 44 17q9 -7 3 -26q-19 -59 -19 -75q0 -33 -8 -52q-18 -72 -20 -125l-13 -73q-2 -16 -2 -47q0 -13 1 -34t1 -32 q4 -46 4 -72q0 -30 4.5 -109t4.5 -97q8 -19 26 -23q4 -1 14 2t15 8q8 6 15 16.5t10.5 18t10 23t9.5 22.5q2 5 19.5 39t27.5 60t14 47l35 120q3 15 19.5 59t19.5 60h6q5 -1 25 -16q-3 -15 -18.5 -56.5t-18.5 -58.5q-8 -35 -14 -51q-6 -29 -19.5 -73.5t-17.5 -57.5l-39 -99 q-28 -66 -53 -98l-23 -35q-2 -7 -14 -18t-21 -10q-31 -13 -53 -6h-2q-11 3 -26.5 15t-25 23t-9.5 13l-7 8q-42 54 -47 80l-1 16q-1 -1 -2 1q-1 4 -3 14q0 13 -2.5 34t-3.5 27l-6 16q-5 -5 -16.5 -18.5t-22 -24t-16.5 -14.5q-10 -10 -22 -16.5t-33 -12.5t-25 -8 q-22 -9 -43 -9q-24 0 -47 11q-17 7 -25.5 11t-20 15t-18.5 25q-13 29 -14 41q-9 116 -10 146q1 5 1 14.5t1 13.5q17 126 17 199.5t-17 93.5q-3 4 -5.5 12.5t-5.5 12.5q-29 42 -29 59q0 4 1 7z" />
<glyph unicode="v" horiz-adv-x="624" d="M-56.5 747q-3.5 8 7 17.5t33.5 21.5q7 2 12 4t6 3t4.5 1.5t9.5 0.5q23 0 33 -2q2 -2 8 -2h4q36 -3 62 -29q15 -11 25 -23.5t21.5 -32t14.5 -24.5q0 -1 4.5 -7.5t7 -11t7.5 -18.5t10 -33q4 -4 6 -10q13 -37 23 -66t12 -33.5t5 -15t3 -12.5t4 -23t10 -49q0 -13 3 -16l2 -16 q5 -40 9 -63t15.5 -66t20.5 -84q2 -4 3.5 -36.5t8.5 -35.5q2 -2 2 -12v-6q3 -1 14.5 15t22 31.5t10.5 14.5l8 10q8 11 25 41l24 62q14 43 15 43q13 22 -15 32l-2 2l-6 7l-2 2q-4 6 -10.5 16t-10.5 16t-8 14.5t-6 16.5q0 1 -1 4t-1 4q-8 8 -8 27q-2 2 -2 4q-8 36 -8 74 q-2 4 -2 22q-4 47 0 62v16q0 4 1 11.5t1 11.5q6 35 33 73l30 29q8 8 31 8q15 0 27 -4q21 -3 30 -18q0 -1 5 -6q6 -4 9.5 -8t6.5 -13.5t4 -11.5v-2q3 -8 8 -56v-10q0 -27 -2 -33v-8l-4 -39q-4 -28 -4 -32q-3 -8 -8 -54q-7 -37 -23 -80l-6 -16q0 -2 -4 -14v-4q22 0 88 30 q17 13 31.5 35t25.5 33q4 4 7 4q4 4 7 10t7 9l10 18q8 8 20 32t21 33q3 3 9.5 7.5t9.5 7.5l14 -4q9 -5 -2.5 -28t-24.5 -36q-1 -1 -2 -6t-2 -6l-4 -4q-6 -6 -16 -24.5t-23 -28.5q-5 -5 -26 -35.5t-45 -49.5t-56 -22q-2 0 -26 -6l-13 -4q-10 0 -12 -2q-8 -3 -12 -10l-21 -62 v-2q-23 -61 -33 -84q-3 -9 -10 -16q0 -1 -3.5 -6t-4.5 -9l-16 -24l-11 -12l-12 -17q-2 -7 -16 -24q-6 -11 -23 -33q-13 -17 -51 -76q-7 -12 -28.5 -18t-45.5 4v2q0 3 -1 7t-1 7v37v4q-3 6 0 12q-6 6 -6 17q0 2 -2 4q-2 6 -2 28q0 35 -8 54q-8 18 -17 82q-1 3 0 9t0 9l-6 25 q-3 3 -6 16q-4 4 -6 10v6q-2 2 -2 5q-1 1 -27 86l-6 18q0 3 -1 6t-1 6q-2 2 -2 8q-3 6 -3.5 29t-4.5 33q-21 53 -24.5 79t-8.5 40q-14 34 -42.5 87.5t-47.5 76.5q-8 6 -23.5 15t-21.5 14t-9.5 13zM414 532q4 -28 4 -30q0 -39 8 -70q6 -15 10 -33q15 -36 25 -47q8 -10 14 -14 q0 1 1 4t1 4q6 24 8 27q3 13 7 18q0 1 0.5 1.5t1 2t0.5 4.5v9q3 3 6 16q2 4 2 16q0 3 1 7.5t1 7.5l4 24l6 33q0 7 1 18.5t1 18.5q2 2 2 8v16q2 6 2 23q4 20 4 37q0 41 -22 63q-1 0 -4 1t-4 1q-4 2 -19 2h-4q-15 0 -27 -12t-22 -39q-8 -19 -8 -43q-2 -26 -2 -43t2 -26v-5z " />
<glyph unicode="w" horiz-adv-x="839" d="M-57 674q2 10 16 20q14 8 42 9.5t46 -5.5l24 -9t24.5 -9.5t20 -11.5t19.5 -19l25 -35q9 -14 22 -49l4 -8q7 -19 11 -51l4 -29q4 -16 4 -18q0 -5 10 -45.5t19 -77.5t6 -37q6 -24 6 -27q4 -21 16 -122.5t19 -126.5v-17q2 -6 2 -24q1 -8 2 -22.5t2.5 -21.5t9.5 -17.5 t25 -20.5q6 -3 10.5 -0.5t10.5 12t7 10.5l10 15l2 2q1 2 3 4l10 28l12 33q2 5 6.5 17t7.5 18q17 39 17 65v15q0 46 -6 69v7q-2 2 -2 4q-9 21 4 32q4 3 0 7v4q-3 18 16 28h4q16 -10 19 -24q0 -4 2 -4q9 -11 12 -35v-8l4 -15q0 -4 1 -11t1 -11q2 0 2 -2q0 -3 1 -9.5t1 -9.5 q-3 -5 4 -18q8 -12 11 -27q1 -7 14 -37q6 -16 10 -24q13 -48 47 -64q21 -10 32 20q19 50 36 230q2 6 2 31v18q0 2 -4 6h-2q-12 0 -21 9h-4q-8 0 -14 6q-2 0 -2 2q-37 27 -49 67q0 4 -5 9q-17 25 -20 49q-4 18 -10 49.5t-8 42.5q-2 16 -2 28q0 23 6 37v3q0 1 -1 3t-1 3 q2 17 20 59l4 8q2 2 2 4q1 3 3 6q1 4 1 5q1 1 5.5 8t9 11.5t10.5 8.5q5 0 8 6q7 13 35 17l2 2h14q4 0 14 -1t15 -1q2 -2 8 -2q1 0 19 -6q7 -7 12 -9q31 -15 47 -34q26 -43 33 -72q4 -15 6.5 -31.5t5 -38t4.5 -35.5q0 -18 2 -26l4 -37q0 -5 -1 -28.5t-1 -28.5l-6 -52 q26 2 84 60q15 14 28.5 40.5t24.5 39.5q0 4 4 4q4 4 7.5 9.5t7.5 8.5l8 21q7 8 17 33t18 34l16 17l17 -2q10 -5 -0.5 -29.5t-22.5 -36.5q-1 -1 -1 -6t-1 -6q-2 0 -2 -2t-2 -4q-7 -8 -16.5 -26t-18.5 -30q-7 -9 -25 -39t-40.5 -56.5t-51.5 -45.5q-21 -12 -57 -25 q-1 -6 -6 -20q-4 -17 -10.5 -79.5t-22.5 -94.5q-11 -30 -35 -66q-2 -4 -10.5 -18t-11 -17.5t-9.5 -14t-11 -14t-12 -11t-15 -11.5t-17 -8.5t-22 -7.5q-18 0 -31 10q-46 21 -68 72q-15 29 -22 49l-6 14v-2q-1 -1 -4 -10l-13 -27l-14 -36l-6 -15q-1 -3 -2 -6.5t-1.5 -5 t-0.5 -2.5q-2 -2 -2 -4q-3 -15 -15 -19v-2q-4 -4 -4 -10l-10 -22q-3 -10 -10 -17l-2 -2l-19 -24l-10 -13l-6 -6q-18 -25 -37 -37l-2 -2q-19 -24 -63 -24h-3q-23 0 -40 20l-17 19q-16 14 -29 45l-16 71q-4 12 -4 15l-4 30q0 19 -2 25l-4 33q0 16 -2 20q-3 47 -11 88l-6 45 q-3 6 -8 43q-3 16 -12.5 92.5t-11.5 88.5q-3 21 -8.5 30.5t-8.5 22.5l-6 24l-4 13q-7 28 -35 75v5q-8 21 -27 40l-4 3l2 2l-4 4l-16 20l-2 2q-2 0 -2 2q-8 10 -8 23zM532 539l3 -9q2 -25 14 -71v-4q2 -6 6.5 -25.5t9.5 -28.5q3 -3 6.5 -10.5t6.5 -11.5q2 -4 5.5 -14t8.5 -15 q16 -23 47 -28q2 2 2 12v2q0 7 1 19.5t1 19.5q0 4 2 6v6q-3 22 0 43q2 8 2 27q0 2 4 30q0 4 1 11t1 10q4 46 4 70q1 6 1 12q0 28 -13 53q0 4 -4 8q-8 11 -12 27h-2q-3 0 -7.5 1t-7.5 1h-6q-25 0 -41 -23q-11 -11 -14 -30l-2 -2q-7 -17 -10 -37l-4 -8q-6 -22 -3 -41z" />
<glyph unicode="x" horiz-adv-x="641" d="M-45 -68l6 13l45 59l12 16q2 3 12 16t15 21l23 35q7 7 14 21q1 1 11.5 22.5t41 73t74.5 119.5l-14 39l-91 223q-3 9 -4 10q-13 38 -45 76l-10 12q-2 0 -3 0.5t-3 2.5l-5 5t-10 8.5t-16 12.5q-14 8 -10 26q3 13 63 41q3 0 8.5 1t8.5 1q1 0 2 1t2 1q3 3 14 3q3 0 9.5 -1.5 t9.5 -1.5q32 -7 51 -26l2 -4v-2q2 0 2 -2h2v-2q4 -4 16.5 -21t32.5 -48.5t35 -61.5q9 -13 10 -17l47 -106l11 -29q2 -4 2 -18q0 -1 1 -2.5t1 -2.5q2 2 10 19v2h2q13 22 16 29q3 3 5.5 8t5.5 8q8 31 120 199l5 8v2l34 47q8 8 15 8q8 0 10 -2h12v-10q0 -19 -12 -31 q-4 0 -19 -21t-20 -32l-39 -66l-45 -69l-8 -15q-17 -39 -53 -98q-15 -25 -19 -29l-2 -4l123 -219q8 -19 32 -63t46 -66q18 10 36 35t27 47q12 30 51.5 137t55.5 150q4 12 26 57t25 64h6q13 0 23 -6q-11 -55 -45 -125q-7 -17 -21.5 -68.5t-37 -113t-54.5 -122.5 q-26 -73 -47 -108l-23 -41q-4 -4 -6 -10q-13 -17 -28 -23q-3 0 -5 -2l-14 -10h-2l-25 6q-32 3 -55 41q-10 13 -127 201q-1 1 -10 14.5t-18.5 28t-21.5 37.5t-21 45q-9 0 -23 -25l-141 -233l-54 -70l-8 -10l-14 -19q-6 -15 -23 -18h-6q-7 0 -10 6q-5 6 -2 16z" />
<glyph unicode="y" horiz-adv-x="710" d="M-12 856l2 6q14 23 37 23h28q27 0 41 -2h4q4 -1 12.5 -5.5t10.5 -5.5l18 -18l6 -6q0 -1 1.5 -2t1.5 -2q0 -2 2 -2q17 -15 32 -41q1 -3 3 -5t3 -5q3 -3 5.5 -9.5t5.5 -9.5l8 -16q7 -11 11 -26t5.5 -35t2 -31.5t0 -34t-0.5 -23.5v-86v-76q0 -21 3.5 -61t7.5 -51 q5 -21 10 -29q11 -20 23 -61.5t24 -57.5q4 -4 12 -4h10q8 0 19.5 6t19 11t22 17t17.5 15l2 2q0 3 4 7l2 2q2 6 13 10q4 4 4 8q-1 12 2 50q2 28 2 61v22q0 4 4 43t4 43q-2 23 -2 66v10q5 54 6 59q3 9 5 23.5t5 21.5l5 25v14l6 15q3 4 10 18l4 8q0 1 1 3t1 3q3 3 5 9.5t5 9.5 q2 2 4 8l7 8q2 6 18.5 15t43.5 19.5t28 10.5q9 6 16 6l41 5h2h6q0 -3 2 -3h4v-6q2 -12 -10 -24q-13 -13 -16 -29l-4 -12q0 -2 -2 -4v-4l-5 -9v-8q-3 -15 -5 -42.5t-5 -43.5q0 -25 -2 -35q0 -20 -2 -34q0 -7 -12 -84.5t-12 -79.5q0 -17 -2 -23q0 -8 -5.5 -62.5t-9.5 -64.5 q0 -2 2 -4q0 -8 -4 -16q2 -14 2 -39q2 -6 2 -25q0 -3 1 -10.5t1 -11.5l4 -33h2q-2 -4 -2 -21l21 23q4 0 4 4q12 15 33.5 34.5t25.5 27.5l7 6q17 35 72.5 131.5t80.5 150.5q4 17 23.5 47t23.5 45h6q9 -1 29 -8q-4 -17 -20.5 -49.5t-20.5 -48.5q-26 -52 -88 -162l-33 -63 q-10 -14 -27.5 -40.5t-28.5 -42.5t-28.5 -35.5t-34.5 -33.5q-21 -30 -30 -35l-15 -18v-23q0 -12 2 -16v-20q2 -7 2 -26.5t-1 -38.5t-2 -36t-1 -18q0 -16 -16 -142q-3 -15 -5.5 -34t-5.5 -43t-5 -39q-3 -7 -5.5 -18.5t-5.5 -18.5l-12 -49l-6 -19v-2q-1 -1 -4 -10l-12 -16 q-6 -10 -20.5 -23t-32.5 -27t-23 -18l-15 -12l-18 -15q-5 -5 -31 -21.5t-43 -25.5q-2 -1 -5.5 -2.5t-5.5 -2.5t-3 -1h-2h-2q-14 0 -23 6q-1 0 -3 1t-3 1q-21 9 -24 25q0 3 -3 8.5t-4 7.5q-2 2 -2 4q-9 18 -12 37l-6 8q-4 4 -4 9q-4 12 -4 16q0 5 -3.5 33t-6.5 53.5t-2 26.5 q0 41 14 104l4 12q0 5 4 25q5 17 40 87t44 79q0 1 1 2t1 2q5 5 47 62t51 63q3 1 5.5 3t5.5 3q8 8 2 14q-2 6 -2 25v4v49v39v21l4 41l-19 -17q-6 -6 -12.5 -13.5t-11.5 -12.5t-11 -9q-11 -11 -22 -14q-4 -2 -12 -2h-7q-14 0 -18 -2q-3 0 -7 -1t-7 -1h-11h-20l-2 1q-2 1 -6 1 h-10q-2 2 -11 2h-2q-18 0 -41 14q-35 21 -65 72l-4 4q0 2 -2 4q-28 47 -39 109q-3 15 -4.5 42t-1 49t1 44.5t0.5 23.5q0 4 6 41t9 62.5t-1 32.5q0 18 -2 24q0 6 -2 8q0 11 -2 13l-6 51q-2 2 -2 10q-3 8 -6.5 23t-6.5 22q-22 46 -45 66h-2l-4 4q-3 1 -5 3t-5 3q-2 0 -4 2z M238 -446v-9v-2q2 -2 2 -10q0 -12 3 -25.5t8 -29.5t7 -25l2 -12q3 -5 5 -16.5t5 -16.5l9 -18v-2l4 4q9 3 12 12q7 12 29 43q15 27 20 41q4 14 10 23q10 17 13 32q3 9 6 27.5t6 26.5l6 22l4 14q2 4 8 35q3 7 21 135v52q0 36 -2 59v31v6q-4 0 -4 -2q-1 0 -4.5 -1t-4.5 -1 q-4 -4 -9.5 -13.5t-22 -35t-39.5 -58.5q-3 -4 -7.5 -12t-7.5 -12l-6 -9q-7 -7 -24.5 -34t-22.5 -43q-3 -4 -4 -9.5t-1 -12t-1 -9.5q0 -17 -6 -35q-14 -42 -14 -110z" />
<glyph unicode="z" horiz-adv-x="759" d="M-20 -492.5q1 6.5 3 18.5t1 19q4 46 27.5 103t33.5 67q61 82 167 177.5t214 168.5q-7 5 -25 20.5t-24 20.5t-19.5 14t-25 14t-25.5 9q-13 6 -32.5 19t-24.5 22q0 2 -4 10t-5 15t3 18q3 3 6 11.5t6 11.5l49 67q1 1 27.5 59t42.5 77q21 16 21 27q0 13 -33 15q-17 1 -58 1 q-48 -1 -61 2q-75 9 -131 22q-5 1 -17.5 2.5t-19.5 3t-15.5 6t-12 14.5t-1.5 25q1 17 4.5 26.5t9 11t12 1.5h13.5q16 -18 33.5 -24t56.5 -11q22 -1 59.5 -6.5t69.5 -5.5q94 4 125 4q27 5 63.5 26t41.5 21q31 5 53.5 -11t21.5 -46v-6l-6 -17q-8 -14 -10 -14l-2 -2l-8 -6v-2 q0 -2 -2 -2q-3 -8 -12.5 -18.5t-12.5 -16.5q-8 -13 -23.5 -32.5t-21.5 -28.5q-2 -8 -25 -39l-36 -45q-7 -11 -20 -27.5t-15 -20.5q-11 -11 -13 -20q-17 -10 0 -10q5 -3 15.5 -6.5t15.5 -6.5q23 -10 39 -26q15 -3 25 -19l34 -49q11 11 38 35t46 44.5t35 45.5q24 37 59 105.5 t50 89.5q9 16 19 46.5t18 43.5l6 -2l22 -19q-10 -17 -18.5 -41t-15.5 -38q-5 -7 -59 -109.5t-87 -138.5l-80 -84q-3 -1 -6 -4t-6 -4q10 -22 30 -62t27 -56t17.5 -49t10.5 -58.5t-2.5 -66.5t-13.5 -90t-30 -114q-21 -80 -111 -170v-2h-6q-10 -12 -20 -21.5t-16.5 -14.5 t-20.5 -15l-21 -15q-8 -5 -23.5 -17t-23.5 -17q-5 -3 -14 -5.5t-14 -5.5q-8 -3 -31 -4t-27 -4h-24h-2h-54q-23 0 -59 12q-48 18 -70 35l-15 9q-15 10 -20 18q-5 0 -9 3.5t-7 10.5t-5.5 13.5t-5 17.5t-3.5 17.5t-3 19t-3 16.5q-5 7 -4 13.5zM25 -461q-1 -8 2 -21t7 -21 t11.5 -23.5t7.5 -16.5q4 -7 13 -13t22 -10.5t23 -7.5t24 -6t17 -4q25 -5 51.5 1.5t36.5 12t30 17.5q77 41 126 119q48 80 62 166q12 73 12 139v24q-2 77 -19 132q-110 -68 -237 -185.5t-167 -216.5z" />
<glyph unicode="{" horiz-adv-x="606" d="M74 657v7q6 11 32 22q0 2 3 2q2 0 4 2q14 0 20 6q5 2 10 11q15 15 21 36l6 35q4 4 4 21q0 1 1 12.5t5 17.5v9q2 4 2 86q0 174 6 174q5 8 5 30q-6 14 6 41q3 6 57 76q12 13 14 17q1 3 5.5 7t5.5 7q4 3 17.5 5t18.5 5q22 19 66 19q14 0 20 2h13q8 0 10 -2q7 -2 18 -3.5 t17 -3t14.5 -4.5t16.5 -8l-7 -10l-16 -4q-12 4 -37 4h-6h-2l-2 -2q-2 -2 -6 -2q-5 -1 -13.5 -4t-13.5 -4q-16 -21 -22 -25q-6 0 -12.5 -18t-12.5 -39t-10 -25v-10q0 -25 -2 -35t-2 -39v-12q0 -3 6 -82t6 -84v-29v-18v-29q0 -29 -6 -45q-1 -9 -8.5 -27t-8.5 -22 q-9 -9 -12 -18q-4 -18 -12 -21q-5 -5 -8 -14q-3 -3 -8 -6t-6.5 -4.5t-2.5 -4.5q2 -2 6.5 -9.5t10.5 -10.5l18 -23q10 -10 10 -12q3 -3 4.5 -9t4.5 -7q6 -13 10 -35q3 -27 12 -47q0 -1 1 -9.5t5 -13.5q0 -3 -1.5 -8.5t-1.5 -10.5t3 -9q4 -13 1.5 -70.5t-7.5 -77.5 q0 -12 -4 -20q0 -21 -6 -35q1 -10 -4 -31t-2 -33q-5 -8 5 -80.5t17 -76.5q13 -13 15 -21q1 -4 8 -6q0 -1 2 -3t2 -3l8 -4q5 0 14 -2t17 -2q2 0 8 -3t12 -3q10 4 23 -9v-8q3 -8 -6 -8h-27h-31q-8 0 -12 -4q-1 0 -8 2.5t-8 -2.5h-2q-1 3 -8 2t-11 2q-3 3 -5.5 3.5t-6.5 -0.5 t-6 -1q-1 0 -9.5 1t-13.5 5q-31 13 -39 27q-4 0 -5.5 1t-4 4t-4.5 5q-2 12 -10 16q-1 1 -15 12t-18 19q-4 1 -5 5l-1 3q-8 12 -15.5 46t-7.5 57q0 3 -1.5 8.5t-1.5 9.5t3 8q-3 16 4 38t4 38q9 15 9 29q-9 15 -9 26q5 5 5 13q3 2 4 37.5t1 70.5t-1 35q0 14 -9 35q-3 8 -7 24 t-7 25q-3 5 -5 7.5t-3.5 4t-5.5 4.5t-8 7q-13 13 -37 22q0 2 -2 2q-4 4 -18.5 14t-16.5 11q-3 1 -3 6t1 9.5t0 8.5q0 4 -2 4z" />
<glyph unicode="|" horiz-adv-x="479" d="M174 -160q0 12 1 34t1 34v135q0 4 3 67.5t4 111.5t-1 79l4 66q3 43 2.5 93.5t-2.5 119t-2 69.5q0 13 -1 35t-1 33q0 32 4 188.5t4 159.5q0 9 2 32t1 36q8 57 8 208q-2 27 -2 68q-3 12 -5 32.5t-3.5 42.5t-2.5 27q0 11 9 3l4.5 -4.5t5 -3t6.5 -1.5q22 -3 33.5 -2t22.5 3.5 t14 2.5l57 2l-6 -24q-2 -6 -2 -19q0 -6 -2 -8q4 -8 1.5 -43.5t-1.5 -44.5q6 -27 6 -219q4 -68 6 -74q-8 -84 -8 -340q0 -19 -1 -37t-1 -38q0 -29 -5 -151t-5 -126l-9 -68q-4 -35 -8 -142t-4 -130q0 -5 0.5 -62t-0.5 -59v-57q3 -24 2.5 -37t-8.5 -16.5t-14.5 -3t-15.5 3 t-11 2.5q-12 -1 -26.5 -2.5t-28.5 -1.5q-25 3 -25 26z" />
<glyph unicode="}" horiz-adv-x="573" d="M72 -23q4 11 6 11l16 4q12 -4 37 -4h6h2q1 0 1.5 1t2 2t4.5 1q5 1 13.5 4t13.5 4q15 20 23 25q6 0 12.5 18t12 38.5t9.5 24.5v11q0 25 2 35q3 15 3 38v13q0 3 -6.5 82t-6.5 84v28v19v28q0 29 6 45q1 7 3.5 15t7 18.5t6.5 16.5q9 9 12 18q4 18 12 21q6 6 9 14q4 3 8 5.5 t5.5 4t2.5 4.5q-2 2 -6 10t-10 11l-19 22q-10 10 -10 13q-3 3 -4 9t-4 7q-8 18 -11 35q-3 27 -12 47q0 1 -1 9t-5 13q0 2 1.5 8t1.5 11.5t-3 9.5q-4 13 -1.5 70t7.5 77q0 13 4 21q0 21 6 35q-1 10 4.5 30.5t2.5 32.5q5 8 -5.5 81t-17.5 77q-12 12 -14 20q-1 5 -9 7q0 1 -2 3 t-2 3l-8 4q-4 0 -14 2t-17 2q-3 0 -9 3t-11 3q-11 -4 -23 8v8q-3 9 7 9h26h31q8 0 12 4q2 0 5.5 -1.5t6 -1.5t5.5 3h2q1 -3 7.5 -2t10.5 -2q3 -3 6 -3.5t7 0.5t6 1q2 -1 6 -1.5t8 -1.5t8 -4q32 -14 39 -26q4 0 5.5 -1t4 -4t4.5 -5q3 -13 11 -17q1 -1 14.5 -12t17.5 -19 q4 -1 5 -4l1 -4q8 -12 15.5 -45.5t7.5 -56.5q0 -3 1.5 -9t1.5 -10t-3 -8q3 -15 -4 -37.5t-4 -38.5q-8 -13 -8 -28q8 -13 8 -27q-4 -4 -4 -12q-3 -4 -4 -39.5t-1 -69.5t1 -34q0 -16 8 -35q3 -8 7 -24t7 -25q3 -5 5 -7.5t4 -4l6 -4.5t8 -7q13 -13 37 -22q0 -3 2 -3 q3 -3 17.5 -12.5t16.5 -11.5q3 -1 3 -6t-1 -10t0 -9q0 -4 2 -4v-6q-6 -11 -32 -22q0 -3 -2 -3t-4 -2q-15 0 -21 -6q-3 -2 -5 -4t-3 -3.5t-2 -2.5q-15 -15 -21 -37l-6 -35q-4 -4 -4 -20q0 -1 -1 -13t-5 -18v-8q-2 -4 -2 -86q0 -174 -6 -174q-4 -7 -4 -31q6 -14 -6 -41 q-1 -3 -58 -76q-13 -13 -14 -16t-5 -7t-5 -7q-4 -3 -18 -5.5t-19 -5.5q-21 -18 -66 -18q-14 0 -20 -2h-13q-8 0 -10 2q-8 2 -18 3.5t-16 2.5t-14.5 4t-16.5 8z" />
<glyph unicode="~" horiz-adv-x="772" d="M242 606v2v6v9v6q0 4 4 8q11 5 28 -12l9 -11h6q3 0 6 -1t6 -1q3 -3 12 0q3 -4 20.5 5t18.5 8q27 7 29 8q2 0 22 2.5t25 1.5q2 0 17 -1t25.5 -1.5t16.5 0.5h2q2 0 10.5 -7t12.5 -12l14 -18q2 -2 2 -8v-6v-6v-3v-2v-10h-6l-6 4l-12 6q-2 2 -12 2q-12 0 -15 3q-4 1 -27 -1 l-22 -2q-10 0 -12 -2q-2 -1 -13 -3t-21.5 -5t-14.5 -6l-19 -6h-12q-4 0 -8 -1l-4 -1l-7 -2q-2 2 -4 2q-6 0 -21 4t-20 8l-14 12q-11 13 -14 21q-2 2 -2 10z" />
<glyph unicode="&#xad;" d="M134 549q-14 61 5 74q13 10 65 10t90 -3.5t48 1.5h14q15 0 54 -2t58 -2.5t36 2.5q16 4 16 -16q0 -7 -6 -50q0 -3 1.5 -9l3 -12t2 -11.5t-2 -9t-8.5 -3.5q-4 0 -20 -1t-37.5 -1.5t-69.5 0.5l-41 2h-33q-66 6 -164 0q-2 -2 -11 31z" />
<glyph unicode="&#x2000;" horiz-adv-x="770" />
<glyph unicode="&#x2001;" horiz-adv-x="1540" />
<glyph unicode="&#x2002;" horiz-adv-x="770" />
<glyph unicode="&#x2003;" horiz-adv-x="1540" />
<glyph unicode="&#x2004;" horiz-adv-x="513" />
<glyph unicode="&#x2005;" horiz-adv-x="385" />
<glyph unicode="&#x2006;" horiz-adv-x="256" />
<glyph unicode="&#x2007;" horiz-adv-x="256" />
<glyph unicode="&#x2008;" horiz-adv-x="192" />
<glyph unicode="&#x2009;" horiz-adv-x="308" />
<glyph unicode="&#x200a;" horiz-adv-x="85" />
<glyph unicode="&#x2010;" d="M134 549q-14 61 5 74q13 10 65 10t90 -3.5t48 1.5h14q15 0 54 -2t58 -2.5t36 2.5q16 4 16 -16q0 -7 -6 -50q0 -3 1.5 -9l3 -12t2 -11.5t-2 -9t-8.5 -3.5q-4 0 -20 -1t-37.5 -1.5t-69.5 0.5l-41 2h-33q-66 6 -164 0q-2 -2 -11 31z" />
<glyph unicode="&#x2011;" d="M134 549q-14 61 5 74q13 10 65 10t90 -3.5t48 1.5h14q15 0 54 -2t58 -2.5t36 2.5q16 4 16 -16q0 -7 -6 -50q0 -3 1.5 -9l3 -12t2 -11.5t-2 -9t-8.5 -3.5q-4 0 -20 -1t-37.5 -1.5t-69.5 0.5l-41 2h-33q-66 6 -164 0q-2 -2 -11 31z" />
<glyph unicode="&#x2012;" d="M134 549q-14 61 5 74q13 10 65 10t90 -3.5t48 1.5h14q15 0 54 -2t58 -2.5t36 2.5q16 4 16 -16q0 -7 -6 -50q0 -3 1.5 -9l3 -12t2 -11.5t-2 -9t-8.5 -3.5q-4 0 -20 -1t-37.5 -1.5t-69.5 0.5l-41 2h-33q-66 6 -164 0q-2 -2 -11 31z" />
<glyph unicode="&#x2013;" horiz-adv-x="1260" d="M143 549q-36 61 14 74q33 10 169 10t235 -3.5t125 1.5h37q39 0 140.5 -2t151 -2.5t94.5 2.5q41 4 41 -16q0 -7 -15 -50q0 -3 4 -9t7.5 -12t5 -11.5t-5 -9t-22.5 -3.5q-10 0 -52 -1t-98 -1.5t-181 0.5l-107 2h-86q-172 6 -428 0q-5 -2 -29 31z" />
<glyph unicode="&#x2014;" horiz-adv-x="2284" d="M159 549q-73 61 26 74q68 10 339.5 10t469.5 -3.5t250 1.5h73q79 0 282.5 -2t302.5 -2.5t187 2.5q84 4 84 -16q0 -7 -31 -50q0 -3 7.5 -9t15.5 -12t10.5 -11.5t-10.5 -9t-44 -3.5q-21 0 -104.5 -1t-195.5 -1.5t-363 0.5l-214 2h-172q-344 6 -856 0q-10 -2 -57 31z" />
<glyph unicode="&#x202f;" horiz-adv-x="308" />
<glyph unicode="&#x205f;" horiz-adv-x="385" />
<glyph unicode="&#x25fc;" horiz-adv-x="788" d="M0 0v788h788v-788h-788z" />
</font>
</defs>
</svg>
